<svg width="16" height="16" viewBox="0 0 16 16" fill="none" xmlns="http://www.w3.org/2000/svg">
<path fill-rule="evenodd" clip-rule="evenodd" d="M16 8C16 12.4183 12.4183 16 8 16C3.58172 16 0 12.4183 0 8C0 3.58172 3.58172 0 8 0C12.4183 0 16 3.58172 16 8ZM9.11111 4.66667C9.11111 5.28032 8.61365 5.77778 8 5.77778C7.38635 5.77778 6.88889 5.28032 6.88889 4.66667C6.88889 4.05302 7.38635 3.55556 8 3.55556C8.61365 3.55556 9.11111 4.05302 9.11111 4.66667ZM8 7.55556C7.38635 7.55556 6.88889 8.05302 6.88889 8.66667V11.3333C6.88889 11.947 7.38635 12.4444 8 12.4444C8.61365 12.4444 9.11111 11.947 9.11111 11.3333V8.66667C9.11111 8.05302 8.61365 7.55556 8 7.55556Z" fill="#ADAFBB"/>
</svg>
