<svg width="24" height="24" viewBox="0 0 24 24" fill="none" xmlns="http://www.w3.org/2000/svg">
<path fill-rule="evenodd" clip-rule="evenodd" d="M24 12C24 18.6274 18.6274 24 12 24C5.37258 24 0 18.6274 0 12C0 5.37258 5.37258 0 12 0C18.6274 0 24 5.37258 24 12ZM13.6667 7C13.6667 7.92047 12.9205 8.66667 12 8.66667C11.0795 8.66667 10.3333 7.92047 10.3333 7C10.3333 6.07953 11.0795 5.33333 12 5.33333C12.9205 5.33333 13.6667 6.07953 13.6667 7ZM12 11.3333C11.0795 11.3333 10.3333 12.0795 10.3333 13V17C10.3333 17.9205 11.0795 18.6667 12 18.6667C12.9205 18.6667 13.6667 17.9205 13.6667 17V13C13.6667 12.0795 12.9205 11.3333 12 11.3333Z" fill="#858898"/>
</svg>
