<svg width="24" height="25" viewBox="0 0 24 25" fill="none" xmlns="http://www.w3.org/2000/svg">
<path fill-rule="evenodd" clip-rule="evenodd" d="M24 12.5C24 19.1274 18.6274 24.5 12 24.5C5.37258 24.5 0 19.1274 0 12.5C0 5.87258 5.37258 0.5 12 0.5C18.6274 0.5 24 5.87258 24 12.5ZM13.6667 17.8333C13.6667 18.7538 12.9205 19.5 12 19.5C11.0795 19.5 10.3333 18.7538 10.3333 17.8333C10.3333 16.9129 11.0795 16.1667 12 16.1667C12.9205 16.1667 13.6667 16.9129 13.6667 17.8333ZM10.3333 9.4697C10.3333 8.88263 10.9369 8.16667 12 8.16667C13.0599 8.16667 13.6667 8.8906 13.6667 9.4697C13.6667 9.83923 13.3779 10.3317 12.8044 10.6393C12.0836 11.0259 11 11.8656 11 13.1883V13.5C11 14.0523 11.4477 14.5 12 14.5C12.5523 14.5 13 14.0523 13 13.5V13.1883C13 13.1203 13.0264 13.011 13.1585 12.8548C13.2941 12.6947 13.5027 12.5343 13.7498 12.4018C14.7634 11.858 15.6667 10.7866 15.6667 9.4697C15.6667 7.52643 13.8856 6.16667 12 6.16667C10.1176 6.16667 8.33333 7.51291 8.33333 9.4697C8.33333 10.022 8.78105 10.4697 9.33333 10.4697C9.88562 10.4697 10.3333 10.022 10.3333 9.4697Z" fill="#858898"/>
</svg>
