<svg width="16" height="16" viewBox="0 0 16 16" fill="none" xmlns="http://www.w3.org/2000/svg">
<path fill-rule="evenodd" clip-rule="evenodd" d="M16 8C16 12.4183 12.4183 16 8 16C3.58172 16 0 12.4183 0 8C0 3.58172 3.58172 0 8 0C12.4183 0 16 3.58172 16 8ZM9.11111 11.5556C9.11111 12.1692 8.61365 12.6667 8 12.6667C7.38635 12.6667 6.88889 12.1692 6.88889 11.5556C6.88889 10.9419 7.38635 10.4444 8 10.4444C8.61365 10.4444 9.11111 10.9419 9.11111 11.5556ZM6.88889 5.9798C6.88889 5.58842 7.29126 5.11111 8 5.11111C8.7066 5.11111 9.11111 5.59373 9.11111 5.9798C9.11111 6.22616 8.91859 6.55445 8.53626 6.75954C8.05572 7.0173 7.33333 7.57705 7.33333 8.45887V8.66667C7.33333 9.03486 7.63181 9.33333 8 9.33333C8.36819 9.33333 8.66667 9.03486 8.66667 8.66667V8.45887C8.66667 8.4135 8.68424 8.34065 8.77234 8.23656C8.86271 8.12978 9.00178 8.02287 9.16652 7.9345C9.84226 7.57203 10.4444 6.85774 10.4444 5.9798C10.4444 4.68429 9.25708 3.77778 8 3.77778C6.74506 3.77778 5.55556 4.67527 5.55556 5.9798C5.55556 6.34799 5.85403 6.64646 6.22222 6.64646C6.59041 6.64646 6.88889 6.34799 6.88889 5.9798Z" fill="#ADAFBB"/>
</svg>
