<svg width="24" height="24" viewBox="0 0 24 24" fill="none" xmlns="http://www.w3.org/2000/svg">
<mask id="path-1-inside-1_3494_63146" fill="white">
<path fill-rule="evenodd" clip-rule="evenodd" d="M2.92877 7.6273C2.35265 8.03058 2.03067 8.70681 2.08077 9.40826L2.86732 20.4199C2.94208 21.4665 3.81296 22.2774 4.86224 22.2774H9V14.2774H15V22.2774H19.1378C20.187 22.2774 21.0579 21.4665 21.1327 20.4199L21.9192 9.40826C21.9693 8.70681 21.6474 8.03058 21.0712 7.6273L13.1469 2.08029C12.4583 1.59824 11.5417 1.59824 10.8531 2.08029L2.92877 7.6273Z"/>
</mask>
<path fill-rule="evenodd" clip-rule="evenodd" d="M2.92877 7.6273C2.35265 8.03058 2.03067 8.70681 2.08077 9.40826L2.86732 20.4199C2.94208 21.4665 3.81296 22.2774 4.86224 22.2774H9V14.2774H15V22.2774H19.1378C20.187 22.2774 21.0579 21.4665 21.1327 20.4199L21.9192 9.40826C21.9693 8.70681 21.6474 8.03058 21.0712 7.6273L13.1469 2.08029C12.4583 1.59824 11.5417 1.59824 10.8531 2.08029L2.92877 7.6273Z" fill="#2BC466"/>
<path d="M2.08077 9.40826L4.07569 9.26577L2.08077 9.40826ZM2.92877 7.6273L4.07569 9.26577H4.07569L2.92877 7.6273ZM2.86732 20.4199L0.872404 20.5624L2.86732 20.4199ZM9 22.2774V24.2774H11V22.2774H9ZM9 14.2774V12.2774H7V14.2774H9ZM15 14.2774H17V12.2774H15V14.2774ZM15 22.2774H13V24.2774H15V22.2774ZM21.1327 20.4199L23.1276 20.5624L21.1327 20.4199ZM21.9192 9.40826L23.9141 9.55075V9.55075L21.9192 9.40826ZM21.0712 7.6273L22.2182 5.98884V5.98884L21.0712 7.6273ZM13.1469 2.08029L14.2938 0.441822L14.2938 0.441822L13.1469 2.08029ZM10.8531 2.08029L9.70615 0.441822V0.441823L10.8531 2.08029ZM4.07569 9.26577L4.07569 9.26577L1.78184 5.98884C0.629609 6.7954 -0.0143518 8.14785 0.0858556 9.55075L4.07569 9.26577ZM4.86224 20.2774L4.07569 9.26577L0.0858556 9.55075L0.872404 20.5624L4.86224 20.2774ZM4.86224 20.2774L0.872404 20.5624C1.02192 22.6556 2.76368 24.2774 4.86224 24.2774V20.2774ZM9 20.2774H4.86224V24.2774H9V20.2774ZM11 22.2774V14.2774H7V22.2774H11ZM9 16.2774H15V12.2774H9V16.2774ZM13 14.2774V22.2774H17V14.2774H13ZM19.1378 20.2774H15V24.2774H19.1378V20.2774ZM19.1378 20.2774V24.2774C21.2363 24.2774 22.9781 22.6556 23.1276 20.5624L19.1378 20.2774ZM19.9243 9.26577L19.1378 20.2774L23.1276 20.5624L23.9141 9.55075L19.9243 9.26577ZM19.9243 9.26577L19.9243 9.26577L23.9141 9.55075C24.0143 8.14785 23.3704 6.7954 22.2182 5.98884L19.9243 9.26577ZM12 3.71875L19.9243 9.26577L22.2182 5.98884L14.2938 0.441822L12 3.71875ZM12 3.71875L12 3.71875L14.2938 0.441822C12.9166 -0.522275 11.0834 -0.522273 9.70615 0.441822L12 3.71875ZM4.07569 9.26577L12 3.71875L9.70615 0.441823L1.78184 5.98884L4.07569 9.26577Z" fill="#2BC466" mask="url(#path-1-inside-1_3494_63146)"/>
</svg>
