<svg width="24" height="24" viewBox="0 0 24 24" fill="none" xmlns="http://www.w3.org/2000/svg">
<path fill-rule="evenodd" clip-rule="evenodd" d="M23 11C23 15.9706 18.299 20 12.5 20C11.588 20 10.7031 19.9003 9.85942 19.713C8.91857 20.2921 7.12174 21.1702 5.03332 21.04C4.67765 21.0178 4.56 20.5375 4.80703 20.2806C5.26577 19.8036 5.81068 19.0634 6.02888 18.0881C3.57611 16.4406 2 13.8781 2 11C2 6.02944 6.70101 2 12.5 2C18.299 2 23 6.02944 23 11ZM9 11.25C9 11.9404 8.44036 12.5 7.75 12.5C7.05964 12.5 6.5 11.9404 6.5 11.25C6.5 10.5596 7.05964 10 7.75 10C8.44036 10 9 10.5596 9 11.25ZM12.5 12.5C13.1904 12.5 13.75 11.9404 13.75 11.25C13.75 10.5596 13.1904 10 12.5 10C11.8096 10 11.25 10.5596 11.25 11.25C11.25 11.9404 11.8096 12.5 12.5 12.5ZM18.5 11.25C18.5 11.9404 17.9404 12.5 17.25 12.5C16.5596 12.5 16 11.9404 16 11.25C16 10.5596 16.5596 10 17.25 10C17.9404 10 18.5 10.5596 18.5 11.25Z" fill="#2BC466"/>
</svg>
