<svg width="24" height="24" viewBox="0 0 24 24" fill="none" xmlns="http://www.w3.org/2000/svg">
<mask id="path-1-inside-1_3494_63241" fill="white">
<path fill-rule="evenodd" clip-rule="evenodd" d="M5 2C2.79086 2 1 3.79086 1 6V18C1 20.2091 2.79086 22 5 22H19C21.2091 22 23 20.2091 23 18V6C23 3.79086 21.2091 2 19 2H5ZM9.5 11C10.6046 11 11.5 10.1046 11.5 9C11.5 7.89543 10.6046 7 9.5 7C8.39543 7 7.5 7.89543 7.5 9C7.5 10.1046 8.39543 11 9.5 11ZM15.5 12L10.481 18.1772L7 14L3.36682 18.3598C2.82405 19.0111 3.2872 20 4.13504 20H9H12H19.899C20.7411 20 21.2061 19.0229 20.6751 18.3694L15.5 12Z"/>
</mask>
<path fill-rule="evenodd" clip-rule="evenodd" d="M5 2C2.79086 2 1 3.79086 1 6V18C1 20.2091 2.79086 22 5 22H19C21.2091 22 23 20.2091 23 18V6C23 3.79086 21.2091 2 19 2H5ZM9.5 11C10.6046 11 11.5 10.1046 11.5 9C11.5 7.89543 10.6046 7 9.5 7C8.39543 7 7.5 7.89543 7.5 9C7.5 10.1046 8.39543 11 9.5 11ZM15.5 12L10.481 18.1772L7 14L3.36682 18.3598C2.82405 19.0111 3.2872 20 4.13504 20H9H12H19.899C20.7411 20 21.2061 19.0229 20.6751 18.3694L15.5 12Z" fill="#2BC466"/>
<path d="M10.481 18.1772L8.94457 19.4576L10.5006 21.3248L12.0332 19.4384L10.481 18.1772ZM15.5 12L17.0522 10.7388L15.5 8.82838L13.9478 10.7388L15.5 12ZM7 14L8.53644 12.7196L7 10.8759L5.46356 12.7196L7 14ZM3.36682 18.3598L1.83038 17.0794H1.83038L3.36682 18.3598ZM20.6751 18.3694L19.1229 19.6306L20.6751 18.3694ZM3 6C3 4.89543 3.89543 4 5 4V0C1.68629 0 -1 2.68629 -1 6H3ZM3 18V6H-1V18H3ZM5 20C3.89543 20 3 19.1046 3 18H-1C-1 21.3137 1.68629 24 5 24V20ZM19 20H5V24H19V20ZM21 18C21 19.1046 20.1046 20 19 20V24C22.3137 24 25 21.3137 25 18H21ZM21 6V18H25V6H21ZM19 4C20.1046 4 21 4.89543 21 6H25C25 2.68629 22.3137 0 19 0V4ZM5 4H19V0H5V4ZM9.5 9V13C11.7091 13 13.5 11.2091 13.5 9H9.5ZM9.5 9H13.5C13.5 6.79086 11.7091 5 9.5 5V9ZM9.5 9V5C7.29086 5 5.5 6.79086 5.5 9H9.5ZM9.5 9H5.5C5.5 11.2091 7.29086 13 9.5 13V9ZM12.0332 19.4384L17.0522 13.2612L13.9478 10.7388L8.92878 16.916L12.0332 19.4384ZM12.0175 16.8968L8.53644 12.7196L5.46356 15.2804L8.94457 19.4576L12.0175 16.8968ZM5.46356 12.7196L1.83038 17.0794L4.90326 19.6402L8.53644 15.2804L5.46356 12.7196ZM1.83038 17.0794C0.20206 19.0334 1.59153 22 4.13504 22V18C4.98288 18 5.44604 18.9889 4.90326 19.6402L1.83038 17.0794ZM4.13504 22H9V18H4.13504V22ZM9 22H12V18H9V22ZM19.899 18H12V22H19.899V18ZM19.1229 19.6306C18.5919 18.9771 19.057 18 19.899 18V22C22.4251 22 23.8203 19.0688 22.2274 17.1082L19.1229 19.6306ZM13.9478 13.2612L19.1229 19.6306L22.2274 17.1082L17.0522 10.7388L13.9478 13.2612Z" fill="#2BC466" mask="url(#path-1-inside-1_3494_63241)"/>
</svg>
