<svg width="24" height="24" viewBox="0 0 24 24" fill="none" xmlns="http://www.w3.org/2000/svg">
<path fill-rule="evenodd" clip-rule="evenodd" d="M5 2C2.79086 2 1 3.79086 1 6V18C1 20.2091 2.79086 22 5 22H19C21.2091 22 23 20.2091 23 18V6C23 3.79086 21.2091 2 19 2H5ZM9.5 11C10.6046 11 11.5 10.1046 11.5 9C11.5 7.89543 10.6046 7 9.5 7C8.39543 7 7.5 7.89543 7.5 9C7.5 10.1046 8.39543 11 9.5 11ZM15.5 12L10.481 18.1772L7 14L3.36682 18.3598C2.82405 19.0111 3.2872 20 4.13504 20H9H12H19.899C20.7411 20 21.2061 19.0229 20.6751 18.3694L15.5 12Z" fill="#858898"/>
</svg>
