<svg xmlns="http://www.w3.org/2000/svg" width="16" height="16" viewBox="0 0 16 16" fill="none">
  <path d="M7.99974 1.56689C8.33111 1.56689 8.59974 1.83552 8.59974 2.16689V7.40023H13.8331C14.1644 7.40023 14.4331 7.66886 14.4331 8.00023C14.4331 8.3316 14.1644 8.60023 13.8331 8.60023H8.59974V13.8336C8.59974 14.1649 8.33111 14.4336 7.99974 14.4336C7.66837 14.4336 7.39974 14.1649 7.39974 13.8336V8.60023H2.16641C1.83504 8.60023 1.56641 8.3316 1.56641 8.00023C1.56641 7.66886 1.83504 7.40023 2.16641 7.40023H7.39974V2.16689C7.39974 1.83552 7.66837 1.56689 7.99974 1.56689Z" fill="#232332"/>
</svg>