<svg xmlns="http://www.w3.org/2000/svg" width="20" height="20" viewBox="0 0 20 20" fill="none">
  <path d="M10 1.625C10.5983 1.625 11.0833 2.11002 11.0833 2.70833V8.91667H17.2917C17.89 8.91667 18.375 9.40169 18.375 10C18.375 10.5983 17.89 11.0833 17.2917 11.0833H11.0833V17.2917C11.0833 17.89 10.5983 18.375 10 18.375C9.40169 18.375 8.91666 17.89 8.91666 17.2917V11.0833H2.70833C2.11002 11.0833 1.625 10.5983 1.625 10C1.625 9.40169 2.11002 8.91667 2.70833 8.91667H8.91666V2.70833C8.91666 2.11002 9.40169 1.625 10 1.625Z" fill="white"/>
</svg>