<svg xmlns="http://www.w3.org/2000/svg" width="16" height="16" viewBox="0 0 16 16" fill="none">
  <path fill-rule="evenodd" clip-rule="evenodd" d="M6.08255 4.85192C6.08255 3.79235 6.9415 2.9334 8.00106 2.9334C9.06063 2.9334 9.91958 3.79235 9.91958 4.85192C9.91958 5.91149 9.06063 6.77043 8.00106 6.77043C6.9415 6.77043 6.08255 5.91149 6.08255 4.85192ZM8.00106 1.7334C6.27875 1.7334 4.88255 3.12961 4.88255 4.85192C4.88255 6.57423 6.27875 7.97043 8.00106 7.97043C9.72338 7.97043 11.1196 6.57423 11.1196 4.85192C11.1196 3.12961 9.72338 1.7334 8.00106 1.7334ZM8.00112 8.73405C9.9559 8.73405 11.8714 9.28182 13.5407 10.2949C13.6696 10.373 13.8256 10.4675 13.9565 10.6177C14.0671 10.7448 14.1577 10.9062 14.2086 11.0667C14.269 11.2571 14.2684 11.4507 14.268 11.6126L14.2679 12.6203C14.2679 12.7898 14.2679 12.9512 14.2568 13.0872C14.2447 13.2354 14.2164 13.4055 14.1298 13.5755C14.0084 13.8138 13.8146 14.0076 13.5763 14.1291C13.4063 14.2157 13.2362 14.2439 13.0879 14.256C12.952 14.2671 12.7906 14.2671 12.6211 14.2671H3.38137C3.21182 14.2671 3.05046 14.2671 2.91448 14.256C2.76621 14.2439 2.59614 14.2157 2.42615 14.1291C2.18782 14.0076 1.99404 13.8138 1.8726 13.5755C1.78599 13.4055 1.75773 13.2354 1.74562 13.0872C1.73451 12.9512 1.73452 12.7898 1.73454 12.6203L1.73446 11.6125C1.73399 11.4505 1.73342 11.257 1.79379 11.0666C1.8447 10.906 1.93535 10.7446 2.04596 10.6176C2.17681 10.4674 2.33286 10.3729 2.46173 10.2948C4.13104 9.28178 6.04642 8.73405 8.00112 8.73405ZM2.94929 11.4051C4.40798 10.4737 6.14057 9.93376 8.0011 9.93376C9.8617 9.93376 11.5944 10.4737 13.0531 11.4053C13.0556 11.4069 13.0679 11.4172 13.0679 11.4435V13.0002C13.0679 13.037 13.038 13.0668 13.0012 13.0668H3.00118C2.96437 13.0668 2.93452 13.037 2.93452 13.0002V11.4434C2.93452 11.4171 2.94674 11.4068 2.94929 11.4051Z" fill="white"/>
  <path fill-rule="evenodd" clip-rule="evenodd" d="M12.7347 6.73366V5.66699H13.9347V6.73366H15.0014V7.93366H13.9347V9.00032H12.7347V7.93366H11.6681V6.73366H12.7347Z" fill="white"/>
</svg>