<svg xmlns="http://www.w3.org/2000/svg" width="20" height="20" viewBox="0 0 20 20" fill="none">
  <path fill-rule="evenodd" clip-rule="evenodd" d="M18.3327 10.0001C18.3327 14.6025 14.6017 18.3334 9.99935 18.3334C5.39698 18.3334 1.66602 14.6025 1.66602 10.0001C1.66602 5.39771 5.39698 1.66675 9.99935 1.66675C14.6017 1.66675 18.3327 5.39771 18.3327 10.0001ZM9.99935 14.7917C10.3445 14.7917 10.6243 14.5119 10.6243 14.1667V9.16675C10.6243 8.82157 10.3445 8.54175 9.99935 8.54175C9.65417 8.54175 9.37435 8.82157 9.37435 9.16675V14.1667C9.37435 14.5119 9.65417 14.7917 9.99935 14.7917ZM9.99935 5.83342C10.4596 5.83342 10.8327 6.20651 10.8327 6.66675C10.8327 7.12699 10.4596 7.50008 9.99935 7.50008C9.53911 7.50008 9.16602 7.12699 9.16602 6.66675C9.16602 6.20651 9.53911 5.83342 9.99935 5.83342Z" fill="#CACCD8"/>
</svg>