<svg width="40" height="40" viewBox="0 0 40 40" fill="none" xmlns="http://www.w3.org/2000/svg">
<path d="M25 13.5C24 12 22.8308 11 20 11C17.1692 11 15.7237 12.421 15 13.5C14.2763 14.579 13.9846 16.4686 13.9845 17.7923V23.0336L11.213 25.7732C11.1147 25.8703 11.0462 25.9964 11.0165 26.1353C10.9868 26.2742 10.9974 26.4194 11.0467 26.5518C11.0961 26.6843 11.182 26.7979 11.2932 26.8779C11.4045 26.9578 11.5359 27.0004 11.6703 27H28.3325C28.4665 26.9998 28.5974 26.9569 28.7081 26.8769C28.8188 26.7969 28.9043 26.6835 28.9534 26.5514C29.0026 26.4194 29.0131 26.2747 28.9837 26.1362C28.9543 25.9976 28.8862 25.8717 28.7884 25.7746L26.0169 23.0336V17.7923C26.0168 16.4686 25.9084 14.8626 25 13.5Z" stroke="#F8F8FC" stroke-width="1.7" stroke-linecap="round" stroke-linejoin="round"/>
<path d="M18 28.6561C18.1457 29.049 18.4163 29.3893 18.7746 29.63C19.1328 29.8707 19.561 30 20 30C20.439 30 20.8672 29.8707 21.2254 29.63C21.5837 29.3893 21.8543 29.049 22 28.6561V27L18 27.0004L18 28.6561Z" stroke="#F8F8FC" stroke-width="1.7"/>
<rect x="26" y="5" width="6" height="6" rx="3" fill="#2BC466"/>
</svg>
