<svg width="24" height="24" viewBox="0 0 24 24" fill="none" xmlns="http://www.w3.org/2000/svg">
<g id="bitcoin-icons:bell-outline">
<g id="Group">
<path id="Vector" d="M17 5.5C16 4 14.8308 3 12 3C9.16921 3 7.72371 4.42098 7 5.5C6.27629 6.57902 5.98463 8.46857 5.98451 9.79231V15.0336L3.21304 17.7732C3.11465 17.8703 3.04616 17.9964 3.01649 18.1353C2.98682 18.2742 2.99736 18.4194 3.04673 18.5518C3.0961 18.6843 3.182 18.7979 3.29324 18.8779C3.40447 18.9578 3.53587 19.0004 3.67027 19H20.3325C20.4665 18.9998 20.5974 18.9569 20.7081 18.8769C20.8188 18.7969 20.9043 18.6835 20.9534 18.5514C21.0026 18.4194 21.0131 18.2747 20.9837 18.1362C20.9543 17.9976 20.8862 17.8717 20.7884 17.7746L18.0169 15.0336V9.79231C18.0168 8.46857 17.9084 6.86263 17 5.5Z" stroke="#23252B" stroke-width="1.7" stroke-linecap="round" stroke-linejoin="round"/>
<path id="Vector_2" d="M10 20.6561C10.1457 21.049 10.4163 21.3893 10.7746 21.63C11.1328 21.8707 11.561 22 12 22C12.439 22 12.8672 21.8707 13.2254 21.63C13.5837 21.3893 13.8543 21.049 14 20.6561V19L10 19.0004L10 20.6561Z" stroke="#23252B" stroke-width="1.7"/>
</g>
</g>
</svg>
