<svg xmlns="http://www.w3.org/2000/svg" width="20" height="20" viewBox="0 0 20 20" fill="none">
  <path fill-rule="evenodd" clip-rule="evenodd" d="M10.0323 3.32495C9.83107 3.32495 9.65021 3.44767 9.57586 3.63464L7.08652 9.89511V16.671H15.0889C15.2995 16.671 15.4162 16.6705 15.5014 16.6641C15.5278 16.6621 15.5444 16.6599 15.5536 16.6584C15.5603 16.6542 15.5665 16.649 15.5718 16.6431C15.5748 16.6343 15.5798 16.6183 15.5863 16.5927C15.6072 16.5098 15.6276 16.395 15.6637 16.1875L16.5301 11.2002C16.6256 10.6502 16.6884 10.2851 16.7124 10.0044C16.7359 9.73049 16.7135 9.61781 16.6912 9.5571C16.6173 9.35502 16.4746 9.18539 16.2882 9.07794C16.2321 9.04566 16.125 9.00426 15.8511 8.9805C15.5704 8.95614 15.2 8.95548 14.6417 8.95548H11.9401C11.934 8.95548 11.9279 8.95548 11.9217 8.95548C11.8215 8.95551 11.7062 8.95555 11.6054 8.94731C11.4895 8.93784 11.3284 8.91387 11.1605 8.82832C10.9409 8.71646 10.7625 8.53799 10.6506 8.31847C10.5652 8.15077 10.5411 7.9899 10.5316 7.87395C10.5234 7.77318 10.5234 7.65811 10.5234 7.55825C10.5234 7.55205 10.5234 7.5459 10.5234 7.53983V3.81491C10.5234 3.5446 10.3045 3.32495 10.0323 3.32495ZM10.0323 1.82495C11.131 1.82495 12.0234 2.71426 12.0234 3.81491V7.45548L14.6741 7.45548C15.1914 7.45546 15.6274 7.45545 15.9808 7.48612C16.3484 7.51802 16.7068 7.58795 17.0372 7.77833C17.5287 8.06163 17.9049 8.50882 18.0999 9.04159C18.2309 9.39962 18.2385 9.76473 18.207 10.1324C18.1767 10.4858 18.1021 10.9154 18.0135 11.425L17.1378 16.4659C17.1069 16.6436 17.0771 16.8153 17.0406 16.9597C17.0004 17.1192 16.9403 17.2973 16.8238 17.4707C16.658 17.7174 16.4261 17.9125 16.1547 18.0336C15.9638 18.1187 15.7782 18.1474 15.6141 18.1598C15.4655 18.171 15.2913 18.171 15.111 18.171L3.1717 18.171C3.0715 18.171 2.95624 18.171 2.85538 18.1628C2.73952 18.1533 2.57838 18.1294 2.41046 18.0438C2.19094 17.932 2.01246 17.7535 1.90061 17.534C1.81505 17.366 1.79109 17.2049 1.78162 17.089C1.77338 16.9882 1.77342 16.8729 1.77345 16.7727L1.77345 10.4181C1.77345 10.4121 1.77344 10.4059 1.77344 10.3997C1.77341 10.2995 1.77337 10.1843 1.78161 10.0834C1.79108 9.96754 1.81505 9.8064 1.9006 9.63848C2.01246 9.41896 2.19093 9.24048 2.41046 9.12863C2.57837 9.04307 2.73951 9.0191 2.85537 9.00964C2.95624 9.0014 3.07149 9.00143 3.17169 9.00146C3.17789 9.00147 3.18403 9.00147 3.19011 9.00147H5.82763L8.18201 3.0804C8.4834 2.32244 9.21659 1.82495 10.0323 1.82495ZM5.58652 10.5015H3.27344L3.27345 16.671H5.58652V10.5015Z" fill="#23252B"/>
</svg>