<svg width="14" height="15" viewBox="0 0 14 15" fill="none" xmlns="http://www.w3.org/2000/svg">
<path fill-rule="evenodd" clip-rule="evenodd" d="M7.02699 2.15996C6.86602 2.15996 6.72133 2.25814 6.66186 2.40771L4.67039 7.41609V12.8368H11.0723C11.2408 12.8368 11.3341 12.8364 11.4023 12.8312C11.4234 12.8297 11.4367 12.8279 11.444 12.8267C11.4494 12.8234 11.4543 12.8192 11.4586 12.8145C11.461 12.8074 11.465 12.7946 11.4702 12.7741C11.4869 12.7078 11.5033 12.616 11.5321 12.45L12.2252 8.46016C12.3017 8.02015 12.3519 7.7281 12.3711 7.50349C12.3899 7.2844 12.3719 7.19425 12.3542 7.14568C12.295 6.98402 12.1808 6.84832 12.0317 6.76235C11.9869 6.73653 11.9011 6.70341 11.6821 6.6844C11.4575 6.66491 11.1611 6.66438 10.7145 6.66438H8.55325C8.54839 6.66438 8.54348 6.66438 8.53852 6.66439C8.45836 6.66441 8.36615 6.66444 8.28546 6.65785C8.19277 6.65027 8.06386 6.6311 7.92953 6.56265C7.75391 6.47317 7.61113 6.33039 7.52165 6.15477C7.45329 6.02062 7.43406 5.89192 7.42647 5.79916C7.41986 5.71855 7.41989 5.62649 7.41992 5.5466C7.41992 5.54164 7.41992 5.53672 7.41992 5.53186V2.55192C7.41992 2.33568 7.24476 2.15996 7.02699 2.15996ZM7.02699 0.959961C7.90598 0.959961 8.61992 1.67141 8.61992 2.55192V5.46438L10.7404 5.46438C11.1543 5.46437 11.5031 5.46436 11.7858 5.48889C12.0799 5.51442 12.3666 5.57036 12.6309 5.72267C13.0241 5.9493 13.3251 6.30705 13.4811 6.73327C13.5859 7.0197 13.5919 7.31178 13.5667 7.6059C13.5425 7.88862 13.4828 8.23232 13.412 8.64003L12.7114 12.6727C12.6867 12.8148 12.6629 12.9522 12.6337 13.0678C12.6015 13.1954 12.5534 13.3378 12.4602 13.4766C12.3276 13.6739 12.1421 13.83 11.9249 13.9269C11.7722 13.995 11.6237 14.018 11.4925 14.0278C11.3736 14.0368 11.2342 14.0368 11.0899 14.0368L1.53853 14.0368C1.45837 14.0368 1.36617 14.0368 1.28547 14.0302C1.19279 14.0227 1.06388 14.0035 0.929542 13.935C0.753925 13.8456 0.611143 13.7028 0.521661 13.5272C0.453215 13.3928 0.434041 13.2639 0.426468 13.1712C0.419875 13.0905 0.419905 12.9983 0.41993 12.9182L0.419928 7.83451C0.419928 7.82965 0.419927 7.82474 0.419925 7.81978C0.419899 7.73961 0.419869 7.64741 0.426462 7.56672C0.434035 7.47403 0.453209 7.34512 0.521655 7.21079C0.611137 7.03517 0.753918 6.89239 0.929536 6.8029C1.06387 6.73446 1.19278 6.71528 1.28547 6.70771C1.36616 6.70112 1.45837 6.70115 1.53853 6.70117C1.54349 6.70117 1.5484 6.70118 1.55326 6.70118H3.66327L5.54678 1.96432C5.78789 1.35795 6.37444 0.959961 7.02699 0.959961ZM3.47039 7.90118H1.61993L1.61993 12.8368H3.47039V7.90118Z" fill="#858898"/>
</svg>
