<svg xmlns="http://www.w3.org/2000/svg" width="16" height="17" viewBox="0 0 16 17" fill="none">
  <path fill-rule="evenodd" clip-rule="evenodd" d="M8.02503 3.15996C7.86407 3.15996 7.71938 3.25814 7.65991 3.40771L5.66843 8.41609V13.8368H12.0704C12.2388 13.8368 12.3321 13.8364 12.4003 13.8312C12.4214 13.8297 12.4347 13.8279 12.4421 13.8267C12.4475 13.8234 12.4524 13.8192 12.4566 13.8145C12.459 13.8074 12.463 13.7946 12.4682 13.7741C12.485 13.7078 12.5013 13.616 12.5302 13.45L13.2233 9.46016C13.2997 9.02015 13.3499 8.7281 13.3692 8.50349C13.3879 8.2844 13.37 8.19425 13.3522 8.14568C13.293 7.98402 13.1789 7.84832 13.0297 7.76235C12.9849 7.73653 12.8992 7.70341 12.6801 7.6844C12.4555 7.66491 12.1592 7.66438 11.7126 7.66438H9.5513C9.54644 7.66438 9.54153 7.66438 9.53657 7.66439C9.45641 7.66441 9.3642 7.66444 9.28351 7.65785C9.19082 7.65027 9.06191 7.6311 8.92758 7.56265C8.75196 7.47317 8.60918 7.33039 8.5197 7.15477C8.45134 7.02062 8.43211 6.89192 8.42451 6.79916C8.41791 6.71855 8.41794 6.62649 8.41797 6.5466C8.41797 6.54164 8.41797 6.53672 8.41797 6.53186V3.55192C8.41797 3.33568 8.24281 3.15996 8.02503 3.15996ZM8.02503 1.95996C8.90402 1.95996 9.61797 2.67141 9.61797 3.55192V6.46438L11.7385 6.46438C12.1523 6.46437 12.5012 6.46436 12.7839 6.48889C13.0779 6.51442 13.3647 6.57036 13.6289 6.72267C14.0222 6.9493 14.3231 7.30705 14.4791 7.73327C14.5839 8.0197 14.59 8.31178 14.5648 8.6059C14.5406 8.88862 14.4809 9.23232 14.41 9.64003L13.7094 13.6727C13.6848 13.8148 13.6609 13.9522 13.6317 14.0678C13.5995 14.1954 13.5515 14.3378 13.4582 14.4766C13.3256 14.6739 13.1401 14.83 12.9229 14.9269C12.7703 14.995 12.6217 15.018 12.4905 15.0278C12.3716 15.0368 12.2322 15.0368 12.088 15.0368L2.53658 15.0368C2.45642 15.0368 2.36421 15.0368 2.28352 15.0302C2.19083 15.0227 2.06192 15.0035 1.92759 14.935C1.75197 14.8456 1.60919 14.7028 1.51971 14.5272C1.45126 14.3928 1.43209 14.2639 1.42451 14.1712C1.41792 14.0905 1.41795 13.9983 1.41798 13.9182L1.41798 8.83451C1.41798 8.82965 1.41797 8.82474 1.41797 8.81978C1.41795 8.73961 1.41792 8.64741 1.42451 8.56672C1.43208 8.47403 1.45126 8.34512 1.5197 8.21079C1.60918 8.03517 1.75197 7.89239 1.92758 7.8029C2.06192 7.73446 2.19083 7.71528 2.28352 7.70771C2.36421 7.70112 2.45641 7.70115 2.53657 7.70117C2.54153 7.70117 2.54645 7.70118 2.55131 7.70118H4.66132L6.54482 2.96432C6.78593 2.35795 7.37249 1.95996 8.02503 1.95996ZM4.46843 8.90118H2.61797L2.61798 13.8368H4.46843V8.90118Z" fill="#CACCD8"/>
</svg>