<svg xmlns="http://www.w3.org/2000/svg" width="16" height="16" viewBox="0 0 16 16" fill="none">
  <path fill-rule="evenodd" clip-rule="evenodd" d="M8.00234 1.81335C4.44192 1.81335 1.40234 4.34408 1.40234 7.63404C1.40234 9.10135 2.02271 10.4317 3.01741 11.4435L2.6531 13.4801C2.6119 13.7104 2.70831 13.9436 2.90007 14.0776C3.09183 14.2116 3.34398 14.2219 3.54604 14.104L5.44656 12.9954C6.2346 13.2872 7.09725 13.4547 8.00234 13.4547C11.5628 13.4547 14.6023 10.924 14.6023 7.63404C14.6023 4.34408 11.5628 1.81335 8.00234 1.81335ZM8.00234 3.01335C4.94207 3.01335 2.60234 5.15849 2.60234 7.63404C2.60234 8.83708 3.1491 9.95134 4.0689 10.7909C4.22103 10.9297 4.29131 11.1369 4.25503 11.3397L4.06299 12.4132L5.09312 11.8123C5.25555 11.7176 5.45302 11.7045 5.62655 11.7769C6.35026 12.079 7.15468 12.2547 8.00234 12.2547C11.0626 12.2547 13.4023 10.1096 13.4023 7.63404C13.4023 5.15849 11.0626 3.01335 8.00234 3.01335ZM6.00234 7.74669C6.00234 8.11488 5.70386 8.41335 5.33567 8.41335C4.96748 8.41335 4.66901 8.11488 4.66901 7.74669C4.66901 7.3785 4.96748 7.08002 5.33567 7.08002C5.70386 7.08002 6.00234 7.3785 6.00234 7.74669ZM8.669 7.74669C8.669 8.11488 8.37053 8.41335 8.00234 8.41335C7.63415 8.41335 7.33567 8.11488 7.33567 7.74669C7.33567 7.3785 7.63415 7.08002 8.00234 7.08002C8.37053 7.08002 8.669 7.3785 8.669 7.74669ZM11.3357 7.74669C11.3357 8.11488 11.0372 8.41335 10.669 8.41335C10.3008 8.41335 10.0023 8.11488 10.0023 7.74669C10.0023 7.3785 10.3008 7.08002 10.669 7.08002C11.0372 7.08002 11.3357 7.3785 11.3357 7.74669Z" fill="#F5506C"/>
</svg>