<svg xmlns="http://www.w3.org/2000/svg" width="16" height="16" viewBox="0 0 16 16" fill="none">
  <path fill-rule="evenodd" clip-rule="evenodd" d="M3.3812 1.73303C3.21165 1.73302 3.05029 1.733 2.91432 1.74411C2.76604 1.75622 2.59597 1.78448 2.42599 1.87109C2.18765 1.99253 1.99387 2.18631 1.87244 2.42464C1.78582 2.59463 1.75757 2.7647 1.74545 2.91297C1.73434 3.04895 1.73436 3.21031 1.73438 3.37986V12.6195C1.73436 12.7891 1.73434 12.9504 1.74545 13.0864C1.75757 13.2347 1.78582 13.4047 1.87244 13.5747C1.99387 13.8131 2.18765 14.0068 2.42599 14.1283C2.59597 14.2149 2.76604 14.2431 2.91432 14.2553C3.05028 14.2664 3.21163 14.2663 3.38116 14.2663H12.6208C12.7904 14.2663 12.9518 14.2664 13.0877 14.2553C13.236 14.2431 13.4061 14.2149 13.5761 14.1283C13.8144 14.0068 14.0082 13.8131 14.1296 13.5747C14.2162 13.4047 14.2445 13.2347 14.2566 13.0864C14.2677 12.9504 14.2677 12.7891 14.2677 12.6195V3.37986C14.2677 3.21032 14.2677 3.04894 14.2566 2.91297C14.2445 2.7647 14.2162 2.59463 14.1296 2.42464C14.0082 2.18631 13.8144 1.99253 13.5761 1.87109C13.4061 1.78448 13.236 1.75622 13.0877 1.74411C12.9518 1.733 12.7904 1.73302 12.6208 1.73303H3.3812ZM2.93438 2.99967C2.93438 2.96285 2.96423 2.933 3.00105 2.933H13.001C13.0378 2.933 13.0677 2.96285 13.0677 2.99967V9.21818L11.3342 7.48475L9.00092 9.81807L5.6676 6.48475L2.93438 9.21797V2.99967ZM11.5009 5.33328C11.5009 5.79352 11.1278 6.16661 10.6676 6.16661C10.2074 6.16661 9.83426 5.79352 9.83426 5.33328C9.83426 4.87305 10.2074 4.49995 10.6676 4.49995C11.1278 4.49995 11.5009 4.87305 11.5009 5.33328Z" fill="#CACCD8"/>
</svg>