<svg xmlns="http://www.w3.org/2000/svg" width="16" height="16" viewBox="0 0 16 16" fill="none">
  <path fill-rule="evenodd" clip-rule="evenodd" d="M8.00039 1.81335C4.43997 1.81335 1.40039 4.34408 1.40039 7.63404C1.40039 9.10135 2.02076 10.4317 3.01546 11.4435L2.65114 13.4801C2.60995 13.7104 2.70635 13.9436 2.89811 14.0776C3.08987 14.2116 3.34202 14.2219 3.54409 14.104L5.44461 12.9954C6.23265 13.2872 7.0953 13.4547 8.00039 13.4547C11.5608 13.4547 14.6004 10.924 14.6004 7.63404C14.6004 4.34408 11.5608 1.81335 8.00039 1.81335ZM8.00039 3.01335C4.94012 3.01335 2.60039 5.15849 2.60039 7.63404C2.60039 8.83708 3.14715 9.95134 4.06695 10.7909C4.21908 10.9297 4.28935 11.1369 4.25308 11.3397L4.06104 12.4132L5.09117 11.8123C5.2536 11.7176 5.45106 11.7045 5.6246 11.7769C6.3483 12.079 7.15273 12.2547 8.00039 12.2547C11.0607 12.2547 13.4004 10.1096 13.4004 7.63404C13.4004 5.15849 11.0607 3.01335 8.00039 3.01335ZM6.00039 7.74669C6.00039 8.11488 5.70191 8.41335 5.33372 8.41335C4.96553 8.41335 4.66705 8.11488 4.66705 7.74669C4.66705 7.3785 4.96553 7.08002 5.33372 7.08002C5.70191 7.08002 6.00039 7.3785 6.00039 7.74669ZM8.66705 7.74669C8.66705 8.11488 8.36857 8.41335 8.00038 8.41335C7.63219 8.41335 7.33372 8.11488 7.33372 7.74669C7.33372 7.3785 7.63219 7.08002 8.00038 7.08002C8.36857 7.08002 8.66705 7.3785 8.66705 7.74669ZM11.3337 7.74669C11.3337 8.11488 11.0352 8.41335 10.667 8.41335C10.2989 8.41335 10.0004 8.11488 10.0004 7.74669C10.0004 7.3785 10.2989 7.08002 10.667 7.08002C11.0352 7.08002 11.3337 7.3785 11.3337 7.74669Z" fill="#11D85D"/>
</svg>