<svg xmlns="http://www.w3.org/2000/svg" width="24" height="24" viewBox="0 0 24 24" fill="none">
  <path d="M14.4289 4.57789C14.4289 3.25711 13.358 2.18994 12.0395 2.18994C11.0607 2.18994 10.1809 2.78693 9.8192 3.69648L7.02891 10.7138V21.8052L18.1339 21.8052C18.3503 21.8052 18.5595 21.8052 18.7377 21.7918C18.9346 21.7769 19.1574 21.7425 19.3864 21.6403C19.7121 21.495 19.9904 21.2609 20.1893 20.9648C20.3292 20.7567 20.4013 20.5431 20.4496 20.3517C20.4933 20.1783 20.5291 19.9723 20.5661 19.7591L21.617 13.71C21.7232 13.0985 21.8128 12.5829 21.8492 12.1589C21.8869 11.7177 21.8779 11.2795 21.7206 10.8499C21.4867 10.2106 21.0352 9.67395 20.4454 9.334C20.049 9.10554 19.6189 9.02162 19.1778 8.98334C18.7537 8.94654 18.2304 8.94656 17.6097 8.94657L14.4289 8.94657V4.57789Z" fill="#11D85D"/>
  <path d="M5.22891 21.8052V10.8018L3.80681 10.8018C3.68657 10.8017 3.54827 10.8017 3.42723 10.8116C3.28819 10.8229 3.09483 10.8517 2.89333 10.9544C2.6299 11.0886 2.41573 11.3028 2.28151 11.5662C2.17884 11.7677 2.15008 11.961 2.13872 12.1001C2.12883 12.2211 2.12887 12.3594 2.12891 12.4797L2.12892 20.1273C2.12888 20.2475 2.12884 20.3858 2.13873 20.5069C2.15008 20.6459 2.17885 20.8393 2.28152 21.0408C2.41574 21.3042 2.62991 21.5183 2.89334 21.6526C3.09484 21.7552 3.2882 21.784 3.42724 21.7954C3.54825 21.8052 3.68653 21.8052 3.80675 21.8052H5.22891Z" fill="#11D85D"/>
</svg>