<svg xmlns="http://www.w3.org/2000/svg" width="16" height="16" viewBox="0 0 16 16" fill="none">
  <path fill-rule="evenodd" clip-rule="evenodd" d="M12.4467 1.73826C12.1923 1.6556 11.9183 1.6556 11.6639 1.73826C11.4824 1.79722 11.3422 1.8975 11.2288 1.99378C11.1248 2.08206 11.0107 2.19617 10.8908 2.31607L10.8768 2.33011L2.06641 11.1405V13.9335H4.85938L13.6698 5.12308L13.6838 5.10905C13.8037 4.98918 13.9178 4.87509 14.0061 4.77108C14.1024 4.65767 14.2027 4.51743 14.2616 4.33599C14.3443 4.08159 14.3443 3.80755 14.2616 3.55315C14.2027 3.37171 14.1024 3.23147 14.0061 3.11806C13.9178 3.01406 13.8037 2.89998 13.6838 2.78011L13.2198 2.31608C13.0999 2.19618 12.9858 2.08207 12.8818 1.99378C12.7684 1.8975 12.6282 1.79722 12.4467 1.73826ZM12.0082 2.89579C12.0342 2.86975 12.0764 2.86975 12.1024 2.89579L13.1041 3.89742C13.1301 3.92346 13.1301 3.96567 13.1041 3.9917L4.36232 12.7335H3.2664V11.6375L12.0082 2.89579Z" fill="#35363F"/>
</svg>