<svg xmlns="http://www.w3.org/2000/svg" width="16" height="16" viewBox="0 0 16 16" fill="none">
  <path fill-rule="evenodd" clip-rule="evenodd" d="M2.34905 7.99989C3.42439 5.97718 5.55325 4.5999 8.0038 4.5999C10.4543 4.5999 12.5832 5.97718 13.6585 7.99989C12.5832 10.0226 10.4543 11.3999 8.0038 11.3999C5.55325 11.3999 3.42439 10.0226 2.34905 7.99989ZM14.8705 8.26109C14.9491 8.09581 14.9491 7.90397 14.8705 7.73868C13.6499 5.17322 11.0339 3.3999 8.0038 3.3999C4.97366 3.3999 2.3577 5.17322 1.1371 7.73868C1.05847 7.90397 1.05847 8.0958 1.1371 8.26109C2.3577 10.8265 4.97366 12.5999 8.0038 12.5999C11.0339 12.5999 13.6499 10.8265 14.8705 8.26109ZM6.6038 7.9999C6.6038 7.2267 7.2306 6.5999 8.0038 6.5999C8.77699 6.5999 9.4038 7.2267 9.4038 7.9999C9.4038 8.7731 8.77699 9.3999 8.0038 9.3999C7.2306 9.3999 6.6038 8.7731 6.6038 7.9999ZM8.0038 5.3999C6.56786 5.3999 5.4038 6.56396 5.4038 7.9999C5.4038 9.43584 6.56786 10.5999 8.0038 10.5999C9.43974 10.5999 10.6038 9.43584 10.6038 7.9999C10.6038 6.56396 9.43974 5.3999 8.0038 5.3999Z" fill="#11D85D"/>
</svg>