<svg xmlns="http://www.w3.org/2000/svg" width="12" height="12" viewBox="0 0 12 12" fill="none">
  <g clip-path="url(#clip0_99_938)">
    <path d="M6.54333 10.6938L7.02739 10.9804V10.9804L6.54333 10.6938ZM6.81438 10.2359L6.33032 9.9494L6.81438 10.2359ZM5.1856 10.2359L4.70154 10.5224L4.70154 10.5224L5.1856 10.2359ZM5.45665 10.6938L5.94071 10.4073L5.45665 10.6938ZM1.1903 7.95671L1.70998 7.74145H1.70998L1.1903 7.95671ZM3.89479 9.49573L3.8851 10.0581L3.89479 9.49573ZM2.54329 9.3097L2.32803 9.82938L2.32803 9.82938L2.54329 9.3097ZM10.8097 7.95671L11.3294 8.17197V8.17197L10.8097 7.95671ZM8.10519 9.49573L8.0955 8.93331L8.10519 9.49573ZM9.45671 9.3097L9.67197 9.82938L9.45671 9.3097ZM9.80625 1.3684L9.51234 1.84801L9.80625 1.3684ZM10.6316 2.19375L11.1112 1.89985L11.1112 1.89985L10.6316 2.19375ZM2.19375 1.3684L1.89985 0.88879V0.88879L2.19375 1.3684ZM1.3684 2.19375L0.88879 1.89985H0.88879L1.3684 2.19375ZM4.7014 9.60492L4.9842 9.11868L4.9842 9.11868L4.7014 9.60492ZM7.02739 10.9804L7.29844 10.5224L6.33032 9.9494L6.05927 10.4073L7.02739 10.9804ZM4.70154 10.5224L4.97259 10.9804L5.94071 10.4073L5.66966 9.9494L4.70154 10.5224ZM6.05927 10.4073C6.0524 10.4189 6.0454 10.4247 6.03798 10.4287C6.02901 10.4335 6.01585 10.4375 5.99999 10.4375C5.98413 10.4375 5.97097 10.4335 5.962 10.4287C5.95458 10.4247 5.94758 10.4189 5.94071 10.4073L4.97259 10.9804C5.43198 11.7565 6.568 11.7565 7.02739 10.9804L6.05927 10.4073ZM5.25 1.5625H6.75V0.4375H5.25V1.5625ZM10.4375 5.25V5.75H11.5625V5.25H10.4375ZM1.5625 5.75V5.25H0.4375V5.75H1.5625ZM0.4375 5.75C0.4375 6.32473 0.437195 6.78395 0.462592 7.15618C0.488334 7.53346 0.542346 7.86229 0.670619 8.17197L1.70998 7.74145C1.64795 7.5917 1.60682 7.3996 1.58498 7.0796C1.5628 6.75454 1.5625 6.34012 1.5625 5.75H0.4375ZM3.90448 8.93331C3.27674 8.92249 2.9802 8.88183 2.75855 8.79002L2.32803 9.82938C2.76669 10.0111 3.25748 10.0473 3.8851 10.0581L3.90448 8.93331ZM0.670619 8.17197C0.981444 8.92237 1.57763 9.51856 2.32803 9.82938L2.75855 8.79002C2.28381 8.59337 1.90663 8.21619 1.70998 7.74145L0.670619 8.17197ZM10.4375 5.75C10.4375 6.34012 10.4372 6.75454 10.415 7.0796C10.3932 7.3996 10.352 7.5917 10.29 7.74145L11.3294 8.17197C11.4577 7.86229 11.5117 7.53346 11.5374 7.15618C11.5628 6.78395 11.5625 6.32473 11.5625 5.75H10.4375ZM8.11488 10.0581C8.74251 10.0473 9.23331 10.0111 9.67197 9.82938L9.24145 8.79002C9.0198 8.88183 8.72325 8.92249 8.0955 8.93331L8.11488 10.0581ZM10.29 7.74145C10.0934 8.21619 9.71619 8.59337 9.24145 8.79002L9.67197 9.82938C10.4224 9.51855 11.0186 8.92237 11.3294 8.17197L10.29 7.74145ZM6.75 1.5625C7.57925 1.5625 8.16169 1.56309 8.61321 1.60602C9.05636 1.64816 9.31499 1.72707 9.51234 1.84801L10.1002 0.88879C9.69633 0.641327 9.24519 0.53604 8.71969 0.486075C8.20257 0.436907 7.55747 0.4375 6.75 0.4375V1.5625ZM11.5625 5.25C11.5625 4.44253 11.5631 3.79743 11.5139 3.28031C11.464 2.75481 11.3587 2.30367 11.1112 1.89985L10.152 2.48766C10.2729 2.68501 10.3518 2.94364 10.394 3.38679C10.4369 3.83831 10.4375 4.42075 10.4375 5.25H11.5625ZM9.51234 1.84801C9.77304 2.00777 9.99223 2.22696 10.152 2.48766L11.1112 1.89985C10.8587 1.48777 10.5122 1.14131 10.1002 0.88879L9.51234 1.84801ZM5.25 0.4375C4.44253 0.4375 3.79743 0.436907 3.28031 0.486075C2.75481 0.53604 2.30367 0.641327 1.89985 0.88879L2.48766 1.84801C2.68501 1.72707 2.94364 1.64816 3.38679 1.60602C3.83831 1.56309 4.42075 1.5625 5.25 1.5625V0.4375ZM1.5625 5.25C1.5625 4.42075 1.56309 3.83831 1.60602 3.38679C1.64816 2.94364 1.72707 2.68501 1.84801 2.48766L0.88879 1.89985C0.641327 2.30367 0.53604 2.75481 0.486075 3.28031C0.436907 3.79743 0.4375 4.44253 0.4375 5.25H1.5625ZM1.89985 0.88879C1.48777 1.14131 1.14131 1.48777 0.88879 1.89985L1.84801 2.48766C2.00777 2.22696 2.22696 2.00777 2.48766 1.84801L1.89985 0.88879ZM5.66966 9.9494C5.56995 9.78094 5.4757 9.62054 5.38256 9.49274C5.28249 9.35544 5.15971 9.22076 4.9842 9.11868L4.41859 10.0912C4.41867 10.0912 4.41869 10.0912 4.41869 10.0912C4.4187 10.0912 4.41886 10.0913 4.41922 10.0916C4.41985 10.0921 4.42197 10.0938 4.42577 10.0975C4.43388 10.1054 4.44908 10.122 4.4734 10.1554C4.52759 10.2297 4.59102 10.3357 4.70154 10.5224L5.66966 9.9494ZM3.8851 10.0581C4.10813 10.062 4.237 10.0648 4.33231 10.0753C4.41718 10.0847 4.4271 10.0961 4.41859 10.0912L4.9842 9.11868C4.80684 9.01553 4.62604 8.97598 4.45612 8.95716C4.29663 8.9395 4.10662 8.93679 3.90448 8.93331L3.8851 10.0581ZM7.29844 10.5224C7.40896 10.3357 7.47239 10.2297 7.52658 10.1554C7.5509 10.122 7.56609 10.1054 7.5742 10.0975C7.57801 10.0938 7.58013 10.0921 7.58076 10.0916C7.58111 10.0913 7.58127 10.0912 7.58128 10.0912C7.58129 10.0912 7.5813 10.0912 7.58139 10.0912L7.01578 9.11868C6.84027 9.22076 6.71749 9.35544 6.61742 9.49274C6.52428 9.62054 6.43003 9.78094 6.33032 9.9494L7.29844 10.5224ZM8.0955 8.93331C7.89336 8.93679 7.70335 8.9395 7.54386 8.95716C7.37394 8.97598 7.19314 9.01553 7.01578 9.11868L7.58139 10.0912C7.57288 10.0961 7.5828 10.0847 7.66767 10.0753C7.76298 10.0648 7.89185 10.062 8.11488 10.0581L8.0955 8.93331Z" fill="#11D85D"/>
    <path opacity="0.5" d="M4 4.5H8" stroke="#11D85D" stroke-width="1.125" stroke-linecap="round"/>
    <path opacity="0.5" d="M4 6.25H6.75" stroke="#11D85D" stroke-width="1.125" stroke-linecap="round"/>
  </g>
  <defs>
    <clipPath id="clip0_99_938">
      <rect width="12" height="12" fill="white"/>
    </clipPath>
  </defs>
</svg>