<svg xmlns="http://www.w3.org/2000/svg" width="12" height="12" viewBox="0 0 12 12" fill="none">
  <path d="M4.48087 9.45544L4.8291 9.01369L4.48087 9.45544ZM6 2.75032L5.59473 3.14039C5.70077 3.25056 5.84709 3.31282 6 3.31282C6.15291 3.31282 6.29923 3.25056 6.40527 3.14039L6 2.75032ZM7.51913 9.45544L7.86737 9.89718L7.51913 9.45544ZM4.8291 9.01369C4.06015 8.40752 3.25226 7.83934 2.60934 7.11538C1.9857 6.41314 1.5625 5.60873 1.5625 4.56855H0.4375C0.4375 5.95983 1.01916 7.019 1.76816 7.86241C2.49788 8.68409 3.43043 9.34363 4.13263 9.89718L4.8291 9.01369ZM1.5625 4.56855C1.5625 3.56327 2.13027 2.72996 2.89013 2.38263C3.61453 2.0515 4.61373 2.12117 5.59473 3.14039L6.40527 2.36024C5.13635 1.04188 3.63555 0.804932 2.42243 1.35945C1.24477 1.89776 0.4375 3.14237 0.4375 4.56855H1.5625ZM4.13263 9.89718C4.38702 10.0977 4.67205 10.3214 4.96381 10.4918C5.25539 10.6622 5.6072 10.8125 6 10.8125V9.6875C5.8928 9.6875 5.74461 9.64511 5.5314 9.52052C5.31838 9.39605 5.09384 9.22239 4.8291 9.01369L4.13263 9.89718ZM7.86737 9.89718C8.56957 9.34363 9.50212 8.68409 10.2318 7.86241C10.9808 7.019 11.5625 5.95983 11.5625 4.56855H10.4375C10.4375 5.60873 10.0143 6.41314 9.39066 7.11538C8.74774 7.83934 7.93985 8.40751 7.1709 9.01369L7.86737 9.89718ZM11.5625 4.56855C11.5625 3.14237 10.7552 1.89776 9.57757 1.35945C8.36445 0.804932 6.86365 1.04188 5.59473 2.36024L6.40527 3.14039C7.38627 2.12117 8.38547 2.0515 9.10987 2.38263C9.86973 2.72996 10.4375 3.56327 10.4375 4.56855H11.5625ZM7.1709 9.01369C6.90616 9.22239 6.68162 9.39605 6.4686 9.52052C6.25539 9.64511 6.1072 9.6875 6 9.6875V10.8125C6.3928 10.8125 6.74461 10.6622 7.03619 10.4918C7.32795 10.3214 7.61298 10.0977 7.86737 9.89718L7.1709 9.01369Z" fill="#11D85D"/>
</svg>