<svg xmlns="http://www.w3.org/2000/svg" width="16" height="16" viewBox="0 0 16 16" fill="none">
  <path fill-rule="evenodd" clip-rule="evenodd" d="M4.9102 1.7334C4.91758 1.7334 4.92499 1.7334 4.93242 1.7334L11.088 1.7334C11.349 1.73339 11.58 1.73338 11.7714 1.74902C11.9753 1.76567 12.1865 1.80301 12.3921 1.90779C12.6932 2.06119 12.938 2.30596 13.0914 2.60702C13.1961 2.81265 13.2335 3.02389 13.2501 3.22774C13.2658 3.41918 13.2658 3.65017 13.2658 3.91118L13.2658 14.3334C13.2658 14.5501 13.1489 14.75 12.96 14.8563C12.7711 14.9626 12.5396 14.9587 12.3544 14.8463L7.99909 12.202L3.64381 14.8463C3.45856 14.9587 3.22704 14.9626 3.03817 14.8563C2.8493 14.75 2.73242 14.5501 2.73242 14.3334V3.9334C2.73242 3.92597 2.73242 3.91856 2.73242 3.91118C2.73241 3.65017 2.7324 3.41918 2.74804 3.22774C2.7647 3.02389 2.80204 2.81265 2.90681 2.60702C3.06021 2.30596 3.30498 2.06119 3.60604 1.90779C3.81168 1.80301 4.02291 1.76567 4.22677 1.74902C4.4182 1.73338 4.6492 1.73339 4.9102 1.7334ZM4.32448 2.94503C4.19484 2.95562 4.1591 2.97278 4.15083 2.977C4.07556 3.01535 4.01437 3.07654 3.97602 3.1518C3.9718 3.16008 3.95465 3.19581 3.94405 3.32546C3.93289 3.46211 3.93242 3.64347 3.93242 3.9334V13.2672L7.6877 10.9872C7.87904 10.871 8.11914 10.871 8.31048 10.9872L12.0658 13.2672V3.9334C12.0658 3.64347 12.0653 3.46211 12.0541 3.32546C12.0435 3.19581 12.0264 3.16008 12.0222 3.1518C11.9838 3.07654 11.9226 3.01535 11.8474 2.977C11.8391 2.97278 11.8033 2.95562 11.6737 2.94503C11.537 2.93387 11.3557 2.9334 11.0658 2.9334H4.93242C4.6425 2.9334 4.46114 2.93387 4.32448 2.94503Z" fill="#CACCD8"/>
</svg>