<svg xmlns="http://www.w3.org/2000/svg" width="16" height="16" viewBox="0 0 16 16" fill="none">
  <path fill-rule="evenodd" clip-rule="evenodd" d="M4.91118 1.7334C4.91856 1.7334 4.92597 1.7334 4.9334 1.7334L11.089 1.7334C11.35 1.73339 11.581 1.73338 11.7724 1.74902C11.9763 1.76567 12.1875 1.80301 12.3931 1.90779C12.6942 2.06119 12.939 2.30596 13.0923 2.60701C13.1971 2.81265 13.2345 3.02389 13.2511 3.22774C13.2668 3.41918 13.2667 3.65017 13.2667 3.91118L13.2667 14.3334C13.2667 14.5501 13.1499 14.75 12.961 14.8563C12.7721 14.9626 12.5406 14.9587 12.3554 14.8463L8.00007 12.202L3.64479 14.8463C3.45953 14.9587 3.22802 14.9626 3.03915 14.8563C2.85028 14.75 2.7334 14.5501 2.7334 14.3334V3.9334C2.7334 3.92597 2.7334 3.91856 2.7334 3.91118C2.73339 3.65017 2.73338 3.41918 2.74902 3.22774C2.76567 3.02389 2.80301 2.81265 2.90779 2.60701C3.06119 2.30596 3.30596 2.06119 3.60702 1.90779C3.81265 1.80301 4.02389 1.76567 4.22774 1.74902C4.41918 1.73338 4.65017 1.73339 4.91118 1.7334ZM4.32546 2.94503C4.19581 2.95562 4.16008 2.97278 4.1518 2.977C4.07654 3.01535 4.01535 3.07654 3.977 3.1518C3.97278 3.16008 3.95562 3.19581 3.94503 3.32546C3.93387 3.46211 3.9334 3.64347 3.9334 3.9334V13.2672L7.68868 10.9872C7.88002 10.871 8.12012 10.871 8.31146 10.9872L12.0667 13.2672V3.9334C12.0667 3.64347 12.0663 3.46211 12.0551 3.32546C12.0445 3.19581 12.0274 3.16008 12.0231 3.1518C11.9848 3.07654 11.9236 3.01535 11.8483 2.977C11.8401 2.97278 11.8043 2.95562 11.6747 2.94503C11.538 2.93387 11.3567 2.9334 11.0667 2.9334H4.9334C4.64347 2.9334 4.46211 2.93387 4.32546 2.94503Z" fill="#35363F"/>
</svg>