<svg xmlns="http://www.w3.org/2000/svg" width="24" height="24" viewBox="0 0 24 24" fill="none">
  <mask id="path-1-inside-1_116_1145" fill="white">
    <path d="M1.2002 8.52695C1.2002 13.9506 5.54118 16.8407 8.71887 19.4277C9.8402 20.3405 10.9202 21.2 12.0002 21.2C13.0802 21.2 14.1602 20.3405 15.2815 19.4277C18.4592 16.8407 22.8002 13.9506 22.8002 8.52695C22.8002 3.10331 16.86 -0.743024 12.0002 4.47119C7.14037 -0.743024 1.2002 3.10331 1.2002 8.52695Z"/>
  </mask>
  <path d="M1.2002 8.52695C1.2002 13.9506 5.54118 16.8407 8.71887 19.4277C9.8402 20.3405 10.9202 21.2 12.0002 21.2C13.0802 21.2 14.1602 20.3405 15.2815 19.4277C18.4592 16.8407 22.8002 13.9506 22.8002 8.52695C22.8002 3.10331 16.86 -0.743024 12.0002 4.47119C7.14037 -0.743024 1.2002 3.10331 1.2002 8.52695Z" fill="#EAEAF2"/>
  <path d="M8.71887 19.4277L10.1394 17.6827L8.71887 19.4277ZM12.0002 4.47119L10.3543 6.00527C10.7798 6.46189 11.376 6.72119 12.0002 6.72119C12.6244 6.72119 13.2205 6.46189 13.6461 6.00527L12.0002 4.47119ZM15.2815 19.4277L16.702 21.1726L16.702 21.1726L15.2815 19.4277ZM10.1394 17.6827C8.41886 16.2821 6.78565 15.0994 5.47384 13.574C4.23852 12.1375 3.4502 10.56 3.4502 8.52695H-1.0498C-1.0498 11.9175 0.332359 14.4969 2.06195 16.5081C3.71506 18.4304 5.84118 19.9863 7.29837 21.1726L10.1394 17.6827ZM3.4502 8.52695C3.4502 6.61716 4.49317 5.1323 5.73823 4.54458C6.8202 4.03384 8.49215 4.00737 10.3543 6.00527L13.6461 2.93712C10.6484 -0.279202 6.92036 -0.989607 3.81729 0.475176C0.877307 1.86298 -1.0498 5.0131 -1.0498 8.52695H3.4502ZM7.29837 21.1726C7.83797 21.6118 8.50928 22.1582 9.21253 22.5826C9.9132 23.0054 10.8704 23.45 12.0002 23.45V18.95C12.0499 18.95 11.9272 18.9649 11.5375 18.7297C11.1504 18.4961 10.7211 18.1563 10.1394 17.6827L7.29837 21.1726ZM16.702 21.1726C18.1592 19.9863 20.2853 18.4304 21.9384 16.5081C23.668 14.4969 25.0502 11.9175 25.0502 8.52695H20.5502C20.5502 10.56 19.7619 12.1375 18.5265 13.574C17.2147 15.0994 15.5815 16.2821 13.861 17.6827L16.702 21.1726ZM25.0502 8.52695C25.0502 5.0131 23.1231 1.86298 20.1831 0.475176C17.08 -0.989607 13.352 -0.279202 10.3543 2.93712L13.6461 6.00527C15.5082 4.00737 17.1802 4.03384 18.2622 4.54458C19.5072 5.1323 20.5502 6.61716 20.5502 8.52695H25.0502ZM13.861 17.6827C13.2793 18.1563 12.8499 18.4961 12.4629 18.7297C12.0732 18.9649 11.9504 18.95 12.0002 18.95V23.45C13.1299 23.45 14.0872 23.0054 14.7879 22.5826C15.4911 22.1582 16.1624 21.6118 16.702 21.1726L13.861 17.6827Z" fill="#EAEAF2" mask="url(#path-1-inside-1_116_1145)"/>
</svg>