<svg width="40" height="40" viewBox="0 0 40 40" fill="none" xmlns="http://www.w3.org/2000/svg">
<rect x="39.5" y="39.5" width="39" height="39" rx="19.5" transform="rotate(-180 39.5 39.5)" fill="white"/>
<rect x="39.5" y="39.5" width="39" height="39" rx="19.5" transform="rotate(-180 39.5 39.5)" stroke="#EAEAF2"/>
<path d="M23.1668 13.8792C23.5741 13.4719 23.5741 12.8115 23.1668 12.4042V12.4042C22.7595 11.9969 22.0991 11.9969 21.6918 12.4042L14.6852 19.4108C14.3598 19.7362 14.3598 20.2639 14.6852 20.5893L21.6918 27.5959C22.0991 28.0032 22.7595 28.0032 23.1668 27.5959V27.5959C23.5741 27.1886 23.5741 26.5282 23.1668 26.1209L17.046 20L23.1668 13.8792Z" fill="black"/>
</svg>
