<svg width="24" height="24" viewBox="0 0 24 24" fill="none" xmlns="http://www.w3.org/2000/svg">
<mask id="path-1-inside-1_116_1147" fill="white">
<path d="M1.2002 8.52695C1.2002 13.9506 5.54118 16.8407 8.71887 19.4277C9.8402 20.3405 10.9202 21.2 12.0002 21.2C13.0802 21.2 14.1602 20.3405 15.2815 19.4277C18.4592 16.8407 22.8002 13.9506 22.8002 8.52695C22.8002 3.10331 16.86 -0.743024 12.0002 4.47119C7.14037 -0.743024 1.2002 3.10331 1.2002 8.52695Z"/>
</mask>
<path d="M1.2002 8.52695C1.2002 13.9506 5.54118 16.8407 8.71887 19.4277C9.8402 20.3405 10.9202 21.2 12.0002 21.2C13.0802 21.2 14.1602 20.3405 15.2815 19.4277C18.4592 16.8407 22.8002 13.9506 22.8002 8.52695C22.8002 3.10331 16.86 -0.743024 12.0002 4.47119C7.14037 -0.743024 1.2002 3.10331 1.2002 8.52695Z" fill="#F5506C"/>
<path d="M8.71887 19.4277L9.3502 18.6521L8.71887 19.4277ZM12.0002 4.47119L11.2687 5.153C11.4578 5.35595 11.7228 5.47119 12.0002 5.47119C12.2776 5.47119 12.5426 5.35595 12.7317 5.153L12.0002 4.47119ZM15.2815 19.4277L15.9129 20.2032L15.2815 19.4277ZM9.3502 18.6521C7.70284 17.3111 5.93271 16.0247 4.5261 14.389C3.15348 12.7929 2.2002 10.9371 2.2002 8.52695H0.200195C0.200195 11.5404 1.4174 13.8415 3.0097 15.6931C4.568 17.5052 6.5572 18.9573 8.08753 20.2032L9.3502 18.6521ZM2.2002 8.52695C2.2002 6.17159 3.48876 4.22415 5.20463 3.41419C6.84802 2.63844 9.09111 2.81666 11.2687 5.153L12.7317 3.78938C10.0495 0.911513 6.89254 0.405794 4.35089 1.60556C1.88171 2.77112 0.200195 5.45867 0.200195 8.52695H2.2002ZM8.08753 20.2032C8.63884 20.652 9.24294 21.141 9.85836 21.5123C10.4726 21.883 11.1981 22.2 12.0002 22.2V20.2C11.7223 20.2 11.3677 20.0872 10.8917 19.8C10.4168 19.5134 9.92022 19.1162 9.3502 18.6521L8.08753 20.2032ZM15.9129 20.2032C17.4432 18.9573 19.4324 17.5052 20.9907 15.6931C22.583 13.8415 23.8002 11.5404 23.8002 8.52695H21.8002C21.8002 10.9371 20.8469 12.7929 19.4743 14.389C18.0677 16.0247 16.2976 17.3111 14.6502 18.6521L15.9129 20.2032ZM23.8002 8.52695C23.8002 5.45867 22.1187 2.77112 19.6495 1.60556C17.1079 0.405794 13.9509 0.911513 11.2687 3.78938L12.7317 5.153C14.9093 2.81666 17.1524 2.63844 18.7958 3.41419C20.5116 4.22415 21.8002 6.17159 21.8002 8.52695H23.8002ZM14.6502 18.6521C14.0802 19.1162 13.5836 19.5134 13.1087 19.8C12.6326 20.0872 12.2781 20.2 12.0002 20.2V22.2C12.8023 22.2 13.5277 21.883 14.142 21.5123C14.7575 21.141 15.3616 20.652 15.9129 20.2032L14.6502 18.6521Z" fill="#35363F" mask="url(#path-1-inside-1_116_1147)"/>
</svg>
