<svg width="22" height="20" viewBox="0 0 22 20" fill="none" xmlns="http://www.w3.org/2000/svg">
<mask id="path-1-inside-1_143_3807" fill="white">
<path d="M0.200195 6.52695C0.200195 11.9506 4.54118 14.8407 7.71887 17.4277C8.8402 18.3405 9.9202 19.2 11.0002 19.2C12.0802 19.2 13.1602 18.3405 14.2815 17.4277C17.4592 14.8407 21.8002 11.9506 21.8002 6.52695C21.8002 1.10331 15.86 -2.74302 11.0002 2.47119C6.14037 -2.74302 0.200195 1.10331 0.200195 6.52695Z"/>
</mask>
<path d="M0.200195 6.52695C0.200195 11.9506 4.54118 14.8407 7.71887 17.4277C8.8402 18.3405 9.9202 19.2 11.0002 19.2C12.0802 19.2 13.1602 18.3405 14.2815 17.4277C17.4592 14.8407 21.8002 11.9506 21.8002 6.52695C21.8002 1.10331 15.86 -2.74302 11.0002 2.47119C6.14037 -2.74302 0.200195 1.10331 0.200195 6.52695Z" fill="white"/>
<path d="M7.71887 17.4277L8.3502 16.6521L7.71887 17.4277ZM11.0002 2.47119L10.2687 3.153C10.4578 3.35595 10.7228 3.47119 11.0002 3.47119C11.2776 3.47119 11.5426 3.35595 11.7317 3.153L11.0002 2.47119ZM14.2815 17.4277L14.9129 18.2032L14.2815 17.4277ZM8.3502 16.6521C6.70284 15.3111 4.93271 14.0247 3.5261 12.389C2.15348 10.7929 1.2002 8.9371 1.2002 6.52695H-0.799805C-0.799805 9.54043 0.417404 11.8415 2.0097 13.6931C3.568 15.5052 5.5572 16.9573 7.08753 18.2032L8.3502 16.6521ZM1.2002 6.52695C1.2002 4.17159 2.48876 2.22415 4.20463 1.41419C5.84802 0.638436 8.09111 0.816657 10.2687 3.153L11.7317 1.78938C9.04945 -1.08849 5.89254 -1.59421 3.35089 -0.394435C0.881714 0.771121 -0.799805 3.45867 -0.799805 6.52695H1.2002ZM7.08753 18.2032C7.63884 18.652 8.24294 19.141 8.85836 19.5123C9.47264 19.883 10.1981 20.2 11.0002 20.2V18.2C10.7223 18.2 10.3677 18.0872 9.8917 17.8C9.41679 17.5134 8.92022 17.1162 8.3502 16.6521L7.08753 18.2032ZM14.9129 18.2032C16.4432 16.9573 18.4324 15.5052 19.9907 13.6931C21.583 11.8415 22.8002 9.54043 22.8002 6.52695H20.8002C20.8002 8.9371 19.8469 10.7929 18.4743 12.389C17.0677 14.0247 15.2976 15.3111 13.6502 16.6521L14.9129 18.2032ZM22.8002 6.52695C22.8002 3.45867 21.1187 0.771121 18.6495 -0.394435C16.1079 -1.59421 12.9509 -1.08849 10.2687 1.78938L11.7317 3.153C13.9093 0.816657 16.1524 0.638436 17.7958 1.41419C19.5116 2.22415 20.8002 4.17159 20.8002 6.52695H22.8002ZM13.6502 16.6521C13.0802 17.1162 12.5836 17.5134 12.1087 17.8C11.6326 18.0872 11.2781 18.2 11.0002 18.2V20.2C11.8023 20.2 12.5277 19.883 13.142 19.5123C13.7575 19.141 14.3616 18.652 14.9129 18.2032L13.6502 16.6521Z" fill="#35363F" mask="url(#path-1-inside-1_143_3807)"/>
</svg>
