<svg xmlns="http://www.w3.org/2000/svg" width="24" height="24" viewBox="0 0 24 24" fill="none">
  <mask id="path-1-inside-1_144_3651" fill="white">
    <path fill-rule="evenodd" clip-rule="evenodd" d="M12 22C7.28595 22 4.92893 22 3.46447 20.5355C2 19.0711 2 16.714 2 12C2 7.28595 2 4.92893 3.46447 3.46447C4.92893 2 7.28595 2 12 2C16.714 2 19.0711 2 20.5355 3.46447C22 4.92893 22 7.28595 22 12C22 16.714 22 19.0711 20.5355 20.5355C19.0711 22 16.714 22 12 22Z"/>
  </mask>
  <path d="M12 21C9.61471 21 7.92634 20.9979 6.64689 20.8259C5.39621 20.6577 4.68704 20.3439 4.17157 19.8284L2.75736 21.2426C3.70636 22.1916 4.90794 22.6101 6.38039 22.808C7.82408 23.0021 9.67125 23 12 23V21ZM1 12C1 14.3288 0.997876 16.1759 1.19198 17.6196C1.38994 19.0921 1.80836 20.2936 2.75736 21.2426L4.17157 19.8284C3.65611 19.313 3.34229 18.6038 3.17414 17.3531C3.00212 16.0737 3 14.3853 3 12H1ZM21 12C21 14.3853 20.9979 16.0737 20.8259 17.3531C20.6577 18.6038 20.3439 19.313 19.8284 19.8284L21.2426 21.2426C22.1916 20.2936 22.6101 19.0921 22.808 17.6196C23.0021 16.1759 23 14.3288 23 12H21ZM12 23C14.3288 23 16.1759 23.0021 17.6196 22.808C19.0921 22.6101 20.2936 22.1916 21.2426 21.2426L19.8284 19.8284C19.313 20.3439 18.6038 20.6577 17.3531 20.8259C16.0737 20.9979 14.3853 21 12 21V23ZM12 3C14.3853 3 16.0737 3.00212 17.3531 3.17414C18.6038 3.34229 19.313 3.65611 19.8284 4.17157L21.2426 2.75736C20.2936 1.80836 19.0921 1.38994 17.6196 1.19198C16.1759 0.997876 14.3288 1 12 1V3ZM23 12C23 9.67125 23.0021 7.82408 22.808 6.38039C22.6101 4.90794 22.1916 3.70636 21.2426 2.75736L19.8284 4.17157C20.3439 4.68704 20.6577 5.39621 20.8259 6.64689C20.9979 7.92634 21 9.61471 21 12H23ZM12 1C9.67125 1 7.82408 0.997876 6.38039 1.19198C4.90794 1.38994 3.70636 1.80836 2.75736 2.75736L4.17157 4.17157C4.68704 3.65611 5.39621 3.34229 6.64689 3.17414C7.92634 3.00212 9.61471 3 12 3V1ZM3 12C3 9.61471 3.00212 7.92634 3.17414 6.64689C3.34229 5.39621 3.65611 4.68704 4.17157 4.17157L2.75736 2.75736C1.80836 3.70636 1.38994 4.90794 1.19198 6.38039C0.997876 7.82408 1 9.67125 1 12H3Z" fill="#EAEAF2" mask="url(#path-1-inside-1_144_3651)"/>
</svg>