<svg width="20" height="20" viewBox="0 0 20 20" fill="none" xmlns="http://www.w3.org/2000/svg">
<mask id="path-1-inside-1_4320_34334" fill="white">
<path fill-rule="evenodd" clip-rule="evenodd" d="M10 20C5.28595 20 2.92893 20 1.46447 18.5355C0 17.0711 0 14.714 0 10C0 5.28595 0 2.92893 1.46447 1.46447C2.92893 0 5.28595 0 10 0C14.714 0 17.0711 0 18.5355 1.46447C20 2.92893 20 5.28595 20 10C20 14.714 20 17.0711 18.5355 18.5355C17.0711 20 14.714 20 10 20Z"/>
</mask>
<path fill-rule="evenodd" clip-rule="evenodd" d="M10 20C5.28595 20 2.92893 20 1.46447 18.5355C0 17.0711 0 14.714 0 10C0 5.28595 0 2.92893 1.46447 1.46447C2.92893 0 5.28595 0 10 0C14.714 0 17.0711 0 18.5355 1.46447C20 2.92893 20 5.28595 20 10C20 14.714 20 17.0711 18.5355 18.5355C17.0711 20 14.714 20 10 20Z" fill="white"/>
<path d="M10 20V19C7.61471 19 5.92634 18.9979 4.64689 18.8259C3.39621 18.6577 2.68704 18.3439 2.17157 17.8284L1.46447 18.5355L0.757359 19.2426C1.70636 20.1916 2.90794 20.6101 4.38039 20.808C5.82408 21.0021 7.67125 21 10 21V20ZM0 10H-1C-1 12.3288 -1.00212 14.1759 -0.808025 15.6196C-0.610058 17.0921 -0.191643 18.2936 0.757359 19.2426L1.46447 18.5355L2.17157 17.8284C1.65611 17.313 1.34229 16.6038 1.17414 15.3531C1.00212 14.0737 1 12.3853 1 10H0ZM20 10H19C19 12.3853 18.9979 14.0737 18.8259 15.3531C18.6577 16.6038 18.3439 17.313 17.8284 17.8284L18.5355 18.5355L19.2426 19.2426C20.1916 18.2936 20.6101 17.0921 20.808 15.6196C21.0021 14.1759 21 12.3288 21 10H20ZM10 20V21C12.3288 21 14.1759 21.0021 15.6196 20.808C17.0921 20.6101 18.2936 20.1916 19.2426 19.2426L18.5355 18.5355L17.8284 17.8284C17.313 18.3439 16.6038 18.6577 15.3531 18.8259C14.0737 18.9979 12.3853 19 10 19V20ZM10 0V1C12.3853 1 14.0737 1.00212 15.3531 1.17414C16.6038 1.34229 17.313 1.65611 17.8284 2.17157L18.5355 1.46447L19.2426 0.757359C18.2936 -0.191643 17.0921 -0.610058 15.6196 -0.808025C14.1759 -1.00212 12.3288 -1 10 -1V0ZM20 10H21C21 7.67125 21.0021 5.82408 20.808 4.38039C20.6101 2.90794 20.1916 1.70636 19.2426 0.757359L18.5355 1.46447L17.8284 2.17157C18.3439 2.68704 18.6577 3.39621 18.8259 4.64689C18.9979 5.92634 19 7.61471 19 10H20ZM10 0V-1C7.67125 -1 5.82408 -1.00212 4.38039 -0.808025C2.90794 -0.610058 1.70636 -0.191643 0.757359 0.757359L1.46447 1.46447L2.17157 2.17157C2.68704 1.65611 3.39621 1.34229 4.64689 1.17414C5.92634 1.00212 7.61471 1 10 1V0ZM0 10H1C1 7.61471 1.00212 5.92634 1.17414 4.64689C1.34229 3.39621 1.65611 2.68704 2.17157 2.17157L1.46447 1.46447L0.757359 0.757359C-0.191643 1.70636 -0.610058 2.90794 -0.808025 4.38039C-1.00212 5.82408 -1 7.67125 -1 10H0Z" fill="#EAEAF2" mask="url(#path-1-inside-1_4320_34334)"/>
</svg>
