<svg xmlns="http://www.w3.org/2000/svg" width="16" height="16" viewBox="0 0 16 16" fill="none">
  <path fill-rule="evenodd" clip-rule="evenodd" d="M7.99941 1.81329C4.43899 1.81329 1.39941 4.34402 1.39941 7.63398C1.39941 9.10129 2.01978 10.4316 3.01448 11.4435L2.65017 13.4801C2.60897 13.7103 2.70538 13.9436 2.89714 14.0775C3.0889 14.2115 3.34105 14.2218 3.54311 14.104L5.44363 12.9953C6.23167 13.2872 7.09432 13.4547 7.99941 13.4547C11.5598 13.4547 14.5994 10.9239 14.5994 7.63398C14.5994 4.34402 11.5598 1.81329 7.99941 1.81329ZM7.99941 3.01329C4.93914 3.01329 2.59941 5.15843 2.59941 7.63398C2.59941 8.83702 3.14617 9.95128 4.06597 10.7908C4.21811 10.9297 4.28838 11.1369 4.2521 11.3396L4.06006 12.4132L5.09019 11.8123C5.25263 11.7175 5.45009 11.7044 5.62363 11.7768C6.34733 12.0789 7.15175 12.2547 7.99941 12.2547C11.0597 12.2547 13.3994 10.1095 13.3994 7.63398C13.3994 5.15843 11.0597 3.01329 7.99941 3.01329ZM5.99941 7.74663C5.99941 8.11482 5.70093 8.41329 5.33274 8.41329C4.96455 8.41329 4.66608 8.11482 4.66608 7.74663C4.66608 7.37844 4.96455 7.07996 5.33274 7.07996C5.70093 7.07996 5.99941 7.37844 5.99941 7.74663ZM8.66607 7.74663C8.66607 8.11482 8.3676 8.41329 7.99941 8.41329C7.63122 8.41329 7.33274 8.11482 7.33274 7.74663C7.33274 7.37844 7.63122 7.07996 7.99941 7.07996C8.3676 7.07996 8.66607 7.37844 8.66607 7.74663ZM11.3327 7.74663C11.3327 8.11482 11.0343 8.41329 10.6661 8.41329C10.2979 8.41329 9.99941 8.11482 9.99941 7.74663C9.99941 7.37844 10.2979 7.07996 10.6661 7.07996C11.0343 7.07996 11.3327 7.37844 11.3327 7.74663Z" fill="#ADAFBB"/>
</svg>