<svg xmlns="http://www.w3.org/2000/svg" width="24" height="24" viewBox="0 0 24 24" fill="none">
  <path fill-rule="evenodd" clip-rule="evenodd" d="M11.9998 2.71997C6.65922 2.71997 2.09985 6.51606 2.09985 11.451C2.09985 13.652 3.03041 15.6474 4.52245 17.1653L3.97598 20.2201C3.91419 20.5655 4.0588 20.9154 4.34644 21.1163C4.63408 21.3173 5.0123 21.3328 5.3154 21.156L8.16618 19.493C9.34824 19.9308 10.6422 20.182 11.9998 20.182C17.3405 20.182 21.8998 16.3859 21.8998 11.451C21.8998 6.51606 17.3405 2.71997 11.9998 2.71997ZM11.9998 4.51997C7.40945 4.51997 3.89985 7.73767 3.89985 11.451C3.89985 13.2556 4.71999 14.9269 6.09969 16.1863C6.32789 16.3946 6.4333 16.7053 6.37889 17.0095L6.09083 18.6198L7.63602 17.7184C7.87967 17.5763 8.17586 17.5566 8.43617 17.6653C9.52172 18.1184 10.7284 18.382 11.9998 18.382C16.5902 18.382 20.0998 15.1643 20.0998 11.451C20.0998 7.73767 16.5902 4.51997 11.9998 4.51997ZM8.99985 11.62C8.99985 12.1723 8.55213 12.62 7.99985 12.62C7.44756 12.62 6.99985 12.1723 6.99985 11.62C6.99985 11.0677 7.44756 10.62 7.99985 10.62C8.55213 10.62 8.99985 11.0677 8.99985 11.62ZM12.9998 11.62C12.9998 12.1723 12.5521 12.62 11.9998 12.62C11.4476 12.62 10.9998 12.1723 10.9998 11.62C10.9998 11.0677 11.4476 10.62 11.9998 10.62C12.5521 10.62 12.9998 11.0677 12.9998 11.62ZM16.9998 11.62C16.9998 12.1723 16.5521 12.62 15.9998 12.62C15.4476 12.62 14.9998 12.1723 14.9998 11.62C14.9998 11.0677 15.4476 10.62 15.9998 10.62C16.5521 10.62 16.9998 11.0677 16.9998 11.62Z" fill="#CACCD8"/>
</svg>