<svg width="14" height="14" viewBox="0 0 14 14" fill="none" xmlns="http://www.w3.org/2000/svg">
<path fill-rule="evenodd" clip-rule="evenodd" d="M6.9999 0.8125C3.43948 0.8125 0.399902 3.34323 0.399902 6.63319C0.399902 8.1005 1.02027 9.4308 2.01497 10.4427L1.65066 12.4793C1.60946 12.7095 1.70586 12.9428 1.89763 13.0767C2.08939 13.2107 2.34154 13.2211 2.5436 13.1032L4.44412 11.9945C5.23216 12.2864 6.09481 12.4539 6.9999 12.4539C10.5603 12.4539 13.5999 9.92315 13.5999 6.63319C13.5999 3.34323 10.5603 0.8125 6.9999 0.8125ZM6.9999 2.0125C3.93963 2.0125 1.5999 4.15764 1.5999 6.63319C1.5999 7.83623 2.14666 8.95048 3.06646 9.79003C3.21859 9.92889 3.28886 10.1361 3.25259 10.3388L3.06055 11.4124L4.09068 10.8115C4.25311 10.7167 4.45057 10.7036 4.62411 10.776C5.34781 11.0781 6.15224 11.2539 6.9999 11.2539C10.0602 11.2539 12.3999 9.10874 12.3999 6.63319C12.3999 4.15764 10.0602 2.0125 6.9999 2.0125ZM4.9999 6.74583C4.9999 7.11402 4.70142 7.4125 4.33323 7.4125C3.96504 7.4125 3.66657 7.11402 3.66657 6.74583C3.66657 6.37764 3.96504 6.07917 4.33323 6.07917C4.70142 6.07917 4.9999 6.37764 4.9999 6.74583ZM7.66656 6.74583C7.66656 7.11402 7.36809 7.4125 6.9999 7.4125C6.63171 7.4125 6.33323 7.11402 6.33323 6.74583C6.33323 6.37764 6.63171 6.07917 6.9999 6.07917C7.36809 6.07917 7.66656 6.37764 7.66656 6.74583ZM10.3332 6.74583C10.3332 7.11402 10.0347 7.4125 9.66656 7.4125C9.29837 7.4125 8.9999 7.11402 8.9999 6.74583C8.9999 6.37764 9.29837 6.07917 9.66656 6.07917C10.0347 6.07917 10.3332 6.37764 10.3332 6.74583Z" fill="#858898"/>
</svg>
