<svg xmlns="http://www.w3.org/2000/svg" width="21" height="20" viewBox="0 0 21 20" fill="none">
  <path fill-rule="evenodd" clip-rule="evenodd" d="M15.6005 4.90019C14.5114 3.8111 12.7457 3.8111 11.6566 4.90019L9.24948 7.30725L8.18882 6.24659L10.5959 3.83952C12.2708 2.16467 14.9862 2.16465 16.6611 3.83952C18.336 5.5144 18.336 8.22992 16.6611 9.90479L14.2541 12.3119L13.1934 11.2512L15.6005 8.84413C16.6896 7.75505 16.6896 5.98928 15.6005 4.90019ZM13.6446 7.91671L8.41732 13.144L7.35666 12.0834L12.584 6.85605L13.6446 7.91671ZM6.97797 9.58571L5.4008 11.1559C4.31214 12.2451 4.31185 14.0109 5.4008 15.0999C6.4897 16.1888 8.25502 16.189 9.34415 15.1005L10.915 13.5227L11.978 14.581L10.4066 16.1594L10.4054 16.1605C8.73053 17.8354 6.01501 17.8354 4.34013 16.1605C2.66526 14.4856 2.66527 11.7702 4.34013 10.0953L5.91965 8.52272L6.97797 9.58571Z" fill="#23252B"/>
</svg>