<svg xmlns="http://www.w3.org/2000/svg" width="20" height="20" viewBox="0 0 20 20" fill="none">
  <path d="M17.4888 2.01118C14.8072 -0.670394 10.4595 -0.670394 7.77792 2.01118L7.05707 2.73203C6.76418 3.02492 6.76418 3.4998 7.05707 3.79269C7.34997 4.08558 7.82484 4.08558 8.11773 3.79269L8.83858 3.07184C10.9344 0.976053 14.3323 0.976053 16.4281 3.07184C18.5239 5.16763 18.5239 8.56558 16.4281 10.6614L15.7073 11.3822C15.4144 11.6751 15.4144 12.15 15.7073 12.4429C16.0002 12.7358 16.475 12.7358 16.7679 12.4429L17.4888 11.722C20.1703 9.04045 20.1703 4.69276 17.4888 2.01118Z" fill="#23252B"/>
  <path d="M3.79269 7.05707C4.08558 7.34997 4.08558 7.82484 3.79269 8.11773L3.07184 8.83858C0.976053 10.9344 0.976053 14.3323 3.07184 16.4281C5.16763 18.5239 8.56558 18.5239 10.6614 16.4281L11.3822 15.7073C11.6751 15.4144 12.15 15.4144 12.4429 15.7073C12.7358 16.0001 12.7358 16.475 12.4429 16.7679L11.722 17.4888C9.04045 20.1703 4.69276 20.1703 2.01118 17.4888C-0.670394 14.8072 -0.670394 10.4595 2.01118 7.77792L2.73203 7.05707C3.02492 6.76418 3.4998 6.76418 3.79269 7.05707Z" fill="#23252B"/>
  <path d="M12.4428 7.05707C12.7357 7.34997 12.7357 7.82484 12.4428 8.11773L8.11773 12.4428C7.82484 12.7357 7.34997 12.7357 7.05707 12.4428C6.76418 12.1499 6.76418 11.6751 7.05707 11.3822L11.3822 7.05707C11.6751 6.76418 12.1499 6.76418 12.4428 7.05707Z" fill="#23252B"/>
</svg>