<svg xmlns="http://www.w3.org/2000/svg" width="20" height="20" viewBox="0 0 20 20" fill="none">
  <path fill-rule="evenodd" clip-rule="evenodd" d="M3.6088 3.6088C4.03187 3.18574 4.7178 3.18574 5.14087 3.6088L9.99984 8.46777L14.8588 3.6088C15.2819 3.18574 15.9678 3.18574 16.3909 3.6088C16.8139 4.03187 16.8139 4.7178 16.3909 5.14087L11.5319 9.99984L16.3909 14.8588C16.8139 15.2819 16.8139 15.9678 16.3909 16.3909C15.9678 16.8139 15.2819 16.8139 14.8588 16.3909L9.99984 11.5319L5.14087 16.3909C4.7178 16.8139 4.03187 16.8139 3.6088 16.3909C3.18574 15.9678 3.18574 15.2819 3.6088 14.8588L8.46777 9.99984L3.6088 5.14087C3.18574 4.7178 3.18574 4.03187 3.6088 3.6088Z" fill="#35363F"/>
</svg>