<svg width="40" height="40" viewBox="0 0 40 40" fill="none" xmlns="http://www.w3.org/2000/svg">
<rect x="0.5" y="0.5" width="39" height="39" rx="11.5" fill="white"/>
<rect x="0.5" y="0.5" width="39" height="39" rx="11.5" stroke="#EAEAF2"/>
<path d="M25.922 14.078C26.3451 14.5011 26.3451 15.187 25.922 15.6101L21.5321 20L25.922 24.39C26.3451 24.8131 26.3451 25.499 25.922 25.9221C25.4989 26.3451 24.813 26.3451 24.39 25.9221L20 21.5321L15.61 25.9221C15.187 26.3451 14.5011 26.3451 14.078 25.9221C13.6549 25.499 13.6549 24.8131 14.078 24.39L18.4679 20L14.078 15.6101C13.6549 15.187 13.6549 14.5011 14.078 14.078C14.501 13.655 15.187 13.655 15.61 14.078L20 18.468L24.39 14.078C24.813 13.655 25.499 13.655 25.922 14.078Z" fill="#232332"/>
</svg>
