<svg width="14" height="10" viewBox="0 0 14 10" fill="none" xmlns="http://www.w3.org/2000/svg">
<path fill-rule="evenodd" clip-rule="evenodd" d="M1.34905 4.9994C2.42439 2.97669 4.55325 1.59941 7.0038 1.59941C9.45434 1.59941 11.5832 2.97669 12.6585 4.9994C11.5832 7.02211 9.45434 8.39938 7.0038 8.39938C4.55325 8.39938 2.42439 7.02211 1.34905 4.9994ZM13.8705 5.2606C13.9491 5.09532 13.9491 4.90348 13.8705 4.7382C12.6499 2.17274 10.0339 0.399414 7.0038 0.399414C3.97366 0.399414 1.3577 2.17274 0.137104 4.7382C0.0584655 4.90348 0.0584655 5.09532 0.137104 5.2606C1.3577 7.82606 3.97366 9.59938 7.0038 9.59938C10.0339 9.59938 12.6499 7.82606 13.8705 5.2606ZM5.6038 4.99941C5.6038 4.22622 6.2306 3.59941 7.0038 3.59941C7.77699 3.59941 8.4038 4.22622 8.4038 4.99941C8.4038 5.77261 7.77699 6.39941 7.0038 6.39941C6.2306 6.39941 5.6038 5.77261 5.6038 4.99941ZM7.0038 2.39941C5.56786 2.39941 4.4038 3.56347 4.4038 4.99941C4.4038 6.43536 5.56786 7.59941 7.0038 7.59941C8.43974 7.59941 9.6038 6.43536 9.6038 4.99941C9.6038 3.56347 8.43974 2.39941 7.0038 2.39941Z" fill="#CACCD8"/>
</svg>
