<svg xmlns="http://www.w3.org/2000/svg" width="20" height="20" viewBox="0 0 20 20" fill="none">
  <path d="M6.13824 2.16675C5.812 2.16673 5.52323 2.16672 5.28395 2.18627C5.02913 2.20709 4.76508 2.25377 4.50804 2.38474C4.13171 2.57648 3.82575 2.88245 3.63401 3.25877C3.50303 3.51582 3.45636 3.77986 3.43554 4.03468C3.41599 4.27397 3.416 4.56269 3.41602 4.88893L3.41602 17.9168C3.41602 18.1877 3.56211 18.4375 3.7982 18.5704C4.0343 18.7032 4.32368 18.6984 4.55525 18.5578L9.99935 15.2525L15.4435 18.5578C15.675 18.6984 15.9644 18.7032 16.2005 18.5704C16.4366 18.4375 16.5827 18.1877 16.5827 17.9168L16.5827 4.88897C16.5827 4.56275 16.5827 4.27395 16.5632 4.03468C16.5423 3.77986 16.4957 3.51582 16.3647 3.25877C16.173 2.88245 15.867 2.57648 15.4907 2.38474C15.2336 2.25377 14.9696 2.20709 14.7148 2.18627C14.4755 2.16672 14.1867 2.16673 13.8605 2.16675H6.13824Z" fill="#2BC466"/>
</svg>