<svg width="14" height="13" viewBox="0 0 14 13" fill="none" xmlns="http://www.w3.org/2000/svg">
<path fill-rule="evenodd" clip-rule="evenodd" d="M6.31418 2.37055C5.33721 1.01407 3.48148 0.808588 2.25611 1.90232C1.00491 3.01909 0.927921 5.02161 2.0942 6.23987L6.99972 11.1856L11.9052 6.23988C13.0715 5.02162 12.9946 3.0191 11.7434 1.90233C10.5179 0.808584 8.66226 1.01407 7.68527 2.37055L7.48658 2.6464C7.37382 2.80295 7.19266 2.89573 6.99972 2.89573C6.80679 2.89573 6.62563 2.80295 6.51287 2.6464L6.31418 2.37055ZM6.99973 1.31209C8.44474 -0.288645 10.8925 -0.465548 12.5424 1.00706C14.3048 2.58006 14.4056 5.36874 12.7675 7.0744L12.7608 7.08133L7.77972 12.1032C7.35057 12.5455 6.64888 12.5455 6.21973 12.1032L1.23865 7.08133L1.23187 7.07439C-0.406111 5.36874 -0.305298 2.58007 1.45703 1.00707C3.10689 -0.465551 5.55473 -0.288646 6.99973 1.31209Z" fill="#CACCD8"/>
</svg>
