<svg xmlns="http://www.w3.org/2000/svg" width="20" height="20" viewBox="0 0 20 20" fill="none">
  <path fill-rule="evenodd" clip-rule="evenodd" d="M6.14019 2.16675C6.14942 2.16675 6.15868 2.16675 6.16797 2.16675L13.8624 2.16675C14.1887 2.16673 14.4774 2.16672 14.7167 2.18627C14.9715 2.20709 15.2356 2.25377 15.4926 2.38474C15.8689 2.57648 16.1749 2.88244 16.3666 3.25877C16.4976 3.51581 16.5443 3.77986 16.5651 4.03468C16.5847 4.27397 16.5846 4.56271 16.5846 4.88897L16.5846 17.9167C16.5846 18.1877 16.4385 18.4375 16.2024 18.5704C15.9664 18.7032 15.677 18.6984 15.4454 18.5578L10.0013 15.2525L4.5572 18.5578C4.32564 18.6984 4.03625 18.7032 3.80016 18.5704C3.56406 18.4375 3.41797 18.1877 3.41797 17.9167V4.91675C3.41797 4.90746 3.41797 4.8982 3.41797 4.88897C3.41795 4.56272 3.41794 4.27397 3.43749 4.03468C3.45831 3.77986 3.50499 3.51581 3.63596 3.25877C3.8277 2.88244 4.13366 2.57648 4.50999 2.38474C4.76703 2.25377 5.03108 2.20709 5.2859 2.18627C5.52519 2.16672 5.81394 2.16673 6.14019 2.16675ZM5.40805 3.68129C5.24599 3.69453 5.20132 3.71598 5.19097 3.72125C5.09689 3.76918 5.0204 3.84567 4.97247 3.93975C4.9672 3.9501 4.94575 3.99477 4.93251 4.15683C4.91855 4.32764 4.91797 4.55434 4.91797 4.91675V16.584L9.61207 13.734C9.85124 13.5888 10.1514 13.5888 10.3905 13.734L15.0846 16.584V4.91675C15.0846 4.55434 15.084 4.32764 15.0701 4.15683C15.0569 3.99477 15.0354 3.9501 15.0301 3.93975C14.9822 3.84567 14.9057 3.76918 14.8116 3.72125C14.8013 3.71598 14.7566 3.69453 14.5946 3.68129C14.4237 3.66733 14.197 3.66675 13.8346 3.66675H6.16797C5.80556 3.66675 5.57886 3.66733 5.40805 3.68129Z" fill="#ADAFBB"/>
</svg>