<svg width="40" height="40" viewBox="0 0 40 40" fill="none" xmlns="http://www.w3.org/2000/svg">
<rect x="0.5" y="0.5" width="39" height="39" rx="19.5" stroke="#E1E1E8"/>
<path d="M21.0763 15.0774C20.8253 15.0101 20.5834 14.9158 20.3553 14.7963C19.9401 14.5789 19.5934 14.2526 18.9 13.6L18.4323 13.1598C18.1999 12.9411 18.0837 12.8317 17.9616 12.7364C17.435 12.3256 16.7892 12.0738 16.1082 12.0139C15.9503 12 15.786 12 15.4573 12C14.7071 12 14.3321 12 14.0196 12.0555C12.6443 12.2997 11.5684 13.3122 11.3089 14.6067C11.25 14.9008 11.25 15.2538 11.25 15.9598V21.6C11.25 24.617 11.25 26.1255 12.2458 27.0627C13.2417 28 14.8444 28 18.05 28H21.45C24.6556 28 26.2583 28 27.2542 27.0627C28.25 26.1255 28.25 24.617 28.25 21.6V19.8383" stroke="#35363F" stroke-width="1.25" stroke-linecap="round"/>
<path d="M25.4952 14.6655L26.8725 13.2883C27.2568 12.9039 27.8777 12.9039 28.262 13.2883L28.9617 13.988C29.3461 14.3723 29.3461 14.9932 28.9617 15.3775L27.5845 16.7548M25.4952 14.6655L20.978 19.1828L20.3349 21.6714C20.2968 21.8189 20.4311 21.9532 20.5786 21.9151L23.0672 21.272L27.5845 16.7548M25.4952 14.6655L27.5845 16.7548" stroke="#35363F" stroke-width="1.25"/>
</svg>
