<svg xmlns="http://www.w3.org/2000/svg" width="21" height="21" viewBox="0 0 21 21" fill="none">
  <path fill-rule="evenodd" clip-rule="evenodd" d="M20.5 11.0278C20.5 10.3042 20.4351 9.60846 20.3145 8.94055H10.7041V12.8877H16.1958C15.9592 14.1632 15.2403 15.2439 14.1596 15.9675V18.5278H17.4574C19.3869 16.7513 20.5 14.1354 20.5 11.0278Z" fill="#4285F4"/>
  <path fill-rule="evenodd" clip-rule="evenodd" d="M10.7037 21.0001C13.4588 21.0001 15.7687 20.0863 17.457 18.5279L14.1592 15.9676C13.2455 16.5798 12.0766 16.9416 10.7037 16.9416C8.04601 16.9416 5.79647 15.1466 4.99406 12.7347H1.58496V15.3785C3.264 18.7134 6.71484 21.0001 10.7037 21.0001Z" fill="#34A853"/>
  <path fill-rule="evenodd" clip-rule="evenodd" d="M4.99444 12.7346C4.79036 12.1224 4.6744 11.4684 4.6744 10.7958C4.6744 10.1233 4.79036 9.46929 4.99444 8.85704V6.21326H1.58534C0.894249 7.59081 0.5 9.14925 0.5 10.7958C0.5 12.4424 0.894249 14.0008 1.58534 15.3784L4.99444 12.7346Z" fill="#FBBC05"/>
  <path fill-rule="evenodd" clip-rule="evenodd" d="M10.7037 4.65024C12.2019 4.65024 13.5469 5.16509 14.6045 6.17622L17.5312 3.2495C15.764 1.60293 13.4542 0.591797 10.7037 0.591797C6.71484 0.591797 3.264 2.87844 1.58496 6.21333L4.99406 8.85711C5.79647 6.44524 8.04601 4.65024 10.7037 4.65024Z" fill="#EA4335"/>
</svg>