<svg xmlns="http://www.w3.org/2000/svg" width="24" height="24" viewBox="0 0 24 24" fill="none">
  <path d="M3.10059 5.0001C3.10059 4.50304 3.50353 4.1001 4.00058 4.1001H20.0005C20.4976 4.1001 20.9005 4.50304 20.9005 5.0001C20.9005 5.49715 20.4976 5.90009 20.0005 5.90009H4.00058C3.50353 5.90009 3.10059 5.49715 3.10059 5.0001Z" fill="#232332"/>
  <path d="M3.10059 19.0001C3.10059 18.503 3.50353 18.1001 4.00058 18.1001H20.0005C20.4976 18.1001 20.9005 18.503 20.9005 19.0001C20.9005 19.4971 20.4976 19.9001 20.0005 19.9001H4.00058C3.50353 19.9001 3.10059 19.4971 3.10059 19.0001Z" fill="#232332"/>
  <path d="M4.00058 11.1001C3.50353 11.1001 3.10059 11.503 3.10059 12.0001C3.10059 12.4971 3.50353 12.9001 4.00058 12.9001H20.0005C20.4976 12.9001 20.9005 12.4971 20.9005 12.0001C20.9005 11.503 20.4976 11.1001 20.0005 11.1001H4.00058Z" fill="#232332"/>
</svg>