<svg xmlns="http://www.w3.org/2000/svg" width="25" height="25" viewBox="0 0 25 25" fill="none">
  <path d="M12.4929 3.5918C6.9611 3.5918 2.5 7.16064 2.5 11.4933C2.5 14.3055 4.35582 16.7681 7.13954 18.1742L6.19736 21.6931C6.17959 21.7459 6.17686 21.8025 6.18947 21.8567C6.20208 21.9109 6.22952 21.9605 6.26874 22C6.32592 22.0504 6.39949 22.0783 6.47573 22.0785C6.53895 22.0735 6.59892 22.0485 6.64704 22.0072L10.7013 19.2734C11.2997 19.356 11.903 19.3989 12.5071 19.4019C18.0318 19.4019 22.5 15.833 22.5 11.4933C22.5 7.1535 18.0175 3.5918 12.4929 3.5918Z" fill="#392020"/>
  <path d="M5.99736 10.244H4.90528C4.76992 10.2479 4.63624 10.2132 4.51984 10.144C4.46816 10.1117 4.42373 10.0689 4.38934 10.0186C4.35495 9.96822 4.33134 9.91129 4.31998 9.85137C4.31652 9.81338 4.31652 9.77522 4.31998 9.73723C4.31659 9.66615 4.33039 9.59526 4.36021 9.53064C4.39003 9.46603 4.435 9.40959 4.49129 9.36605C4.61573 9.27593 4.76592 9.22832 4.91955 9.23039H8.21006C8.34649 9.2256 8.48109 9.263 8.5955 9.33747C8.6484 9.36842 8.69376 9.41077 8.72833 9.46137C8.76289 9.51198 8.78578 9.56962 8.79536 9.63015C8.79884 9.66575 8.79884 9.70163 8.79536 9.73723C8.79872 9.80934 8.78496 9.8812 8.75518 9.94695C8.7254 10.0127 8.68046 10.0704 8.62405 10.1155C8.50264 10.2055 8.3539 10.2509 8.20292 10.244H7.14654V13.9985C7.15083 14.0784 7.13845 14.1584 7.11019 14.2334C7.08193 14.3083 7.0384 14.3766 6.98236 14.4338C6.92863 14.4886 6.86405 14.5315 6.79275 14.5597C6.72145 14.588 6.64501 14.601 6.56837 14.598C6.43432 14.6018 6.30312 14.559 6.19721 14.4767C6.09639 14.3963 6.02796 14.2822 6.0045 14.1555C5.99744 14.1034 5.99744 14.0506 6.0045 13.9985L5.99736 10.244Z" fill="#FEE500"/>
  <path d="M9.11068 9.5088C9.14207 9.39134 9.2158 9.28963 9.31768 9.22327C9.42622 9.16175 9.54992 9.13206 9.67456 9.13762H9.9458C10.0781 9.13288 10.209 9.16501 10.3241 9.23042C10.446 9.31241 10.5327 9.43725 10.5668 9.58016L11.9943 13.613C12.0313 13.7182 12.0623 13.8255 12.0871 13.9343C12.0896 13.9794 12.0896 14.0247 12.0871 14.0698C12.0895 14.1394 12.0767 14.2087 12.0496 14.2728C12.0225 14.3369 11.9817 14.3943 11.9301 14.441C11.8801 14.4923 11.8201 14.5327 11.7537 14.5597C11.6874 14.5867 11.6162 14.5997 11.5447 14.598C11.4346 14.609 11.324 14.5826 11.2308 14.523C11.1375 14.4634 11.0671 14.3742 11.0307 14.2697L10.7309 13.3918H8.85372L8.55394 14.2697C8.51848 14.3763 8.44717 14.4672 8.35215 14.5271C8.25714 14.587 8.1443 14.612 8.03288 14.598C7.91218 14.6012 7.79395 14.5634 7.6974 14.4909C7.60333 14.4161 7.53987 14.3096 7.51896 14.1912C7.51517 14.1509 7.51517 14.1102 7.51896 14.0698C7.5067 13.999 7.5067 13.9266 7.51896 13.8558C7.51896 13.7772 7.56892 13.6915 7.59747 13.613L9.11068 9.5088ZM9.82446 10.4439L9.14637 12.5852H10.4954L9.82446 10.4439Z" fill="#FEE500"/>
  <path d="M12.2506 9.73719C12.2434 9.57701 12.2998 9.42048 12.4076 9.3018C12.4625 9.24651 12.5283 9.2033 12.6008 9.17502C12.6733 9.14675 12.751 9.13396 12.8288 9.13756C12.9625 9.136 13.093 9.17869 13.1999 9.25893C13.2991 9.34266 13.3649 9.45912 13.3855 9.58724C13.3926 9.63696 13.3926 9.68748 13.3855 9.73719V13.4917H15.3484C15.4845 13.4899 15.6182 13.527 15.7338 13.5987C15.7858 13.6307 15.8305 13.6734 15.8649 13.7238C15.8993 13.7742 15.9228 13.8313 15.9337 13.8913C15.9337 13.8913 15.9337 13.9627 15.9337 13.9984C15.9371 14.0695 15.9233 14.1403 15.8935 14.2049C15.8637 14.2695 15.8187 14.3261 15.7624 14.3696C15.638 14.4597 15.4878 14.5072 15.3341 14.5052H12.9216C12.7679 14.5151 12.6152 14.4751 12.4862 14.391C12.3708 14.3047 12.2939 14.1766 12.272 14.0341C12.2668 13.9557 12.2668 13.877 12.272 13.7985L12.2506 9.73719Z" fill="#FEE500"/>
  <path d="M16.0618 9.73717C16.0575 9.57746 16.1136 9.422 16.2188 9.30178C16.3258 9.20457 16.463 9.14717 16.6073 9.13937C16.7517 9.13157 16.8943 9.1738 17.0111 9.25891C17.1124 9.3419 17.1808 9.45831 17.2038 9.58722C17.2074 9.63712 17.2074 9.68727 17.2038 9.73717V11.4859L19.0097 9.40163C19.0793 9.33053 19.1532 9.26385 19.231 9.20184C19.3043 9.15818 19.3883 9.13587 19.4736 9.13754C19.5984 9.13686 19.7204 9.17422 19.8234 9.24462C19.8719 9.2773 19.9134 9.31947 19.9452 9.36852C19.9771 9.41758 19.9988 9.47253 20.009 9.53015C20.0119 9.54428 20.0119 9.55889 20.009 9.57302C20.0055 9.58949 20.0055 9.60647 20.009 9.62294C20.0087 9.69805 19.989 9.77185 19.9519 9.83711C19.914 9.90621 19.8685 9.97078 19.8163 10.0298L18.6314 11.3289L20.0589 13.5416V13.6129C20.133 13.7152 20.1908 13.8285 20.2302 13.9485V13.9841C20.2385 14.0668 20.2266 14.1503 20.1955 14.2274C20.1644 14.3045 20.1151 14.3728 20.0518 14.4266C19.9327 14.5166 19.787 14.5644 19.6378 14.5623C19.5386 14.5664 19.4402 14.5442 19.3523 14.498C19.2572 14.4342 19.1789 14.3486 19.1239 14.2482L17.7963 12.1069L17.161 12.7707V13.9627C17.1653 14.1224 17.1092 14.2778 17.004 14.3981C16.9476 14.4532 16.8805 14.4963 16.8068 14.5245C16.7332 14.5527 16.6545 14.5656 16.5757 14.5623C16.444 14.5651 16.3154 14.5222 16.2117 14.4409C16.1109 14.3606 16.0424 14.2465 16.019 14.1198C16.0119 14.0677 16.0119 14.0148 16.019 13.9627L16.0618 9.73717Z" fill="#FEE500"/>
</svg>