<svg xmlns="http://www.w3.org/2000/svg" width="21" height="20" viewBox="0 0 21 20" fill="none">
  <path d="M10.4954 2.5C5.88555 2.5 2.16797 5.47403 2.16797 9.08455C2.16797 11.4281 3.71448 13.4802 6.03426 14.652L5.2491 17.5845C5.2343 17.6284 5.23202 17.6756 5.24253 17.7207C5.25303 17.7659 5.2759 17.8073 5.30858 17.8402C5.35623 17.8822 5.41754 17.9055 5.48108 17.9056C5.53376 17.9014 5.58374 17.8806 5.62383 17.8461L9.00237 15.568C9.50109 15.6369 10.0038 15.6726 10.5072 15.6751C15.1111 15.6751 18.8346 12.701 18.8346 9.08455C18.8346 5.46809 15.0992 2.5 10.4954 2.5Z" fill="#23252B"/>
  <path d="M5.08162 8.04349H4.17155C4.05876 8.04676 3.94735 8.01787 3.85036 7.96021C3.80729 7.93323 3.77027 7.89762 3.7416 7.85565C3.71294 7.81368 3.69327 7.76624 3.68381 7.71631C3.68092 7.68465 3.68092 7.65285 3.68381 7.62119C3.68098 7.56196 3.69248 7.50288 3.71733 7.44904C3.74218 7.39519 3.77965 7.34816 3.82656 7.31188C3.93026 7.23678 4.05542 7.19711 4.18345 7.19883H6.92554C7.03923 7.19483 7.15139 7.226 7.24674 7.28806C7.29082 7.31385 7.32862 7.34914 7.35743 7.39131C7.38623 7.43349 7.40531 7.48152 7.41329 7.53196C7.41619 7.56163 7.41619 7.59152 7.41329 7.62119C7.41609 7.68128 7.40462 7.74117 7.3798 7.79596C7.35499 7.85076 7.31754 7.89886 7.27053 7.93639C7.16936 8.0114 7.0454 8.04925 6.91959 8.04349H6.03927V11.1722C6.04284 11.2389 6.03253 11.3055 6.00898 11.368C5.98543 11.4304 5.94915 11.4873 5.90246 11.535C5.85768 11.5807 5.80386 11.6164 5.74444 11.64C5.68503 11.6635 5.62133 11.6744 5.55747 11.6718C5.44576 11.675 5.33642 11.6393 5.24817 11.5708C5.16415 11.5038 5.10712 11.4087 5.08757 11.3031C5.08169 11.2596 5.08169 11.2156 5.08757 11.1722L5.08162 8.04349Z" fill="white"/>
  <path d="M7.67785 7.43084C7.70401 7.33295 7.76545 7.24819 7.85034 7.1929C7.9408 7.14163 8.04388 7.11689 8.14775 7.12152H8.37378C8.484 7.11757 8.59314 7.14435 8.68903 7.19885C8.79063 7.26717 8.86283 7.37121 8.89127 7.4903L10.0809 10.851C10.1117 10.9387 10.1376 11.0281 10.1582 11.1187C10.1603 11.1564 10.1603 11.1941 10.1582 11.2317C10.1602 11.2897 10.1496 11.3474 10.127 11.4008C10.1044 11.4542 10.0704 11.5021 10.0274 11.541C9.98568 11.5837 9.93566 11.6174 9.88039 11.6399C9.82513 11.6624 9.76581 11.6733 9.70616 11.6719C9.61441 11.681 9.52227 11.659 9.44458 11.6093C9.36689 11.5597 9.30817 11.4853 9.27789 11.3983L9.02807 10.6667H7.46371L7.21389 11.3983C7.18434 11.4871 7.12492 11.5629 7.04574 11.6128C6.96656 11.6626 6.87253 11.6835 6.77968 11.6719C6.67909 11.6745 6.58057 11.643 6.50011 11.5826C6.42172 11.5203 6.36884 11.4315 6.35141 11.3328C6.34825 11.2992 6.34825 11.2653 6.35141 11.2317C6.3412 11.1727 6.3412 11.1123 6.35141 11.0533C6.35141 10.9879 6.39305 10.9164 6.41684 10.851L7.67785 7.43084ZM8.27266 8.21008L7.70758 9.99452H8.83178L8.27266 8.21008Z" fill="white"/>
  <path d="M10.2935 7.62116C10.2874 7.48768 10.3345 7.35724 10.4243 7.25834C10.47 7.21226 10.5249 7.17625 10.5853 7.15269C10.6458 7.12912 10.7105 7.11847 10.7753 7.12147C10.8867 7.12017 10.9954 7.15574 11.0846 7.22261C11.1672 7.29238 11.2221 7.38944 11.2392 7.4962C11.2451 7.53763 11.2451 7.57973 11.2392 7.62116V10.7499H12.875C12.9884 10.7484 13.0998 10.7793 13.1962 10.8391C13.2395 10.8658 13.2767 10.9013 13.3054 10.9433C13.3341 10.9853 13.3536 11.0329 13.3627 11.0829C13.3627 11.0829 13.3627 11.1424 13.3627 11.1722C13.3655 11.2314 13.354 11.2904 13.3292 11.3443C13.3043 11.3981 13.2669 11.4452 13.22 11.4815C13.1163 11.5566 12.9911 11.5962 12.8631 11.5945H10.8526C10.7246 11.6027 10.5973 11.5694 10.4898 11.4994C10.3936 11.4274 10.3295 11.3206 10.3113 11.202C10.307 11.1366 10.307 11.071 10.3113 11.0056L10.2935 7.62116Z" fill="white"/>
  <path d="M13.4698 7.62111C13.4662 7.48801 13.5129 7.35846 13.6006 7.25828C13.6898 7.17727 13.8041 7.12944 13.9244 7.12294C14.0447 7.11643 14.1635 7.15163 14.2609 7.22256C14.3453 7.29171 14.4023 7.38872 14.4215 7.49615C14.4244 7.53773 14.4244 7.57952 14.4215 7.62111V9.07837L15.9264 7.34149C15.9843 7.28224 16.0459 7.22667 16.1108 7.175C16.1718 7.13862 16.2419 7.12002 16.313 7.12141C16.417 7.12084 16.5186 7.15198 16.6044 7.21065C16.6449 7.23788 16.6794 7.27302 16.706 7.3139C16.7326 7.35478 16.7506 7.40057 16.7591 7.44859C16.7615 7.46036 16.7615 7.47254 16.7591 7.48431C16.7562 7.49804 16.7562 7.51219 16.7591 7.52592C16.7589 7.58851 16.7425 7.65001 16.7115 7.70439C16.68 7.76197 16.642 7.81578 16.5985 7.86493L15.6111 8.94753L16.8007 10.7914V10.8509C16.8625 10.9361 16.9107 11.0305 16.9435 11.1305V11.1602C16.9504 11.2291 16.9404 11.2987 16.9145 11.3629C16.8886 11.4272 16.8475 11.4841 16.7948 11.529C16.6956 11.604 16.5742 11.6438 16.4498 11.642C16.3672 11.6455 16.2851 11.6269 16.2119 11.5885C16.1327 11.5353 16.0674 11.4639 16.0215 11.3803L14.9152 9.59585L14.3858 10.1491V11.1424C14.3894 11.2755 14.3426 11.405 14.2549 11.5052C14.2079 11.5511 14.152 11.587 14.0906 11.6105C14.0293 11.6341 13.9637 11.6448 13.898 11.642C13.7883 11.6443 13.6811 11.6086 13.5947 11.5409C13.5107 11.4739 13.4536 11.3789 13.4341 11.2733C13.4282 11.2298 13.4282 11.1858 13.4341 11.1424L13.4698 7.62111Z" fill="white"/>
</svg>