<svg width="40" height="40" viewBox="0 0 40 40" fill="none" xmlns="http://www.w3.org/2000/svg">
<path d="M21.75 12.75C21.75 13.7165 20.9665 14.5 20 14.5C19.0335 14.5 18.25 13.7165 18.25 12.75C18.25 11.7835 19.0335 11 20 11C20.9665 11 21.75 11.7835 21.75 12.75Z" fill="#858898"/>
<path d="M21.75 20C21.75 20.9665 20.9665 21.75 20 21.75C19.0335 21.75 18.25 20.9665 18.25 20C18.25 19.0335 19.0335 18.25 20 18.25C20.9665 18.25 21.75 19.0335 21.75 20Z" fill="#858898"/>
<path d="M20 29C20.9665 29 21.75 28.2165 21.75 27.25C21.75 26.2835 20.9665 25.5 20 25.5C19.0335 25.5 18.25 26.2835 18.25 27.25C18.25 28.2165 19.0335 29 20 29Z" fill="#858898"/>
</svg>
