<svg xmlns="http://www.w3.org/2000/svg" width="16" height="16" viewBox="0 0 16 16" fill="none">
  <path fill-rule="evenodd" clip-rule="evenodd" d="M7.31418 4.37055C6.33721 3.01407 4.48148 2.80859 3.25611 3.90232C2.00491 5.01909 1.92792 7.02161 3.0942 8.23987L7.99972 13.1856L12.9052 8.23988C14.0715 7.02162 13.9946 5.0191 12.7434 3.90233C11.5179 2.80858 9.66226 3.01407 8.68527 4.37055L8.48658 4.6464C8.37382 4.80295 8.19266 4.89573 7.99972 4.89573C7.80679 4.89573 7.62563 4.80295 7.51287 4.6464L7.31418 4.37055ZM7.99973 3.31209C9.44474 1.71136 11.8925 1.53445 13.5424 3.00706C15.3048 4.58006 15.4056 7.36874 13.7675 9.0744L13.7608 9.08133L8.77972 14.1032C8.35057 14.5455 7.64888 14.5455 7.21973 14.1032L2.23865 9.08133L2.23187 9.07439C0.593889 7.36874 0.694702 4.58007 2.45703 3.00707C4.10689 1.53445 6.55473 1.71135 7.99973 3.31209Z" fill="#ADAFBB"/>
</svg>