<svg xmlns="http://www.w3.org/2000/svg" width="24" height="24" viewBox="0 0 24 24" fill="none">
  <path fill-rule="evenodd" clip-rule="evenodd" d="M10.9715 6.55582C9.50605 4.5211 6.72246 4.21288 4.8844 5.85348C3.00761 7.52864 2.89212 10.5324 4.64155 12.3598L11.9998 19.7784L19.3581 12.3598C21.1076 10.5324 20.9921 7.52865 19.1153 5.85349C17.2772 4.21288 14.4936 4.5211 13.0281 6.55583L12.7301 6.9696C12.561 7.20443 12.2892 7.34359 11.9998 7.34359C11.7104 7.34359 11.4387 7.20443 11.2695 6.9696L10.9715 6.55582ZM11.9998 4.96814C14.1673 2.56703 17.839 2.30168 20.3139 4.51059C22.9574 6.87009 23.1086 11.0531 20.6516 13.6116L20.6414 13.622L13.1698 21.1548C12.5261 21.8183 11.4736 21.8183 10.8298 21.1548L3.35821 13.622L3.34806 13.6116C0.891078 11.0531 1.0423 6.8701 3.68579 4.5106C6.16058 2.30167 9.83234 2.56703 11.9998 4.96814Z" fill="#CACCD8"/>
</svg>