<svg width="14" height="13" viewBox="0 0 14 13" fill="none" xmlns="http://www.w3.org/2000/svg">
<path fill-rule="evenodd" clip-rule="evenodd" d="M6.31418 2.87055C5.33721 1.51407 3.48148 1.30859 2.25611 2.40232C1.00491 3.51909 0.927921 5.52161 2.0942 6.73987L6.99972 11.6856L11.9052 6.73988C13.0715 5.52162 12.9946 3.5191 11.7434 2.40233C10.5179 1.30858 8.66226 1.51407 7.68527 2.87055L7.48658 3.1464C7.37382 3.30295 7.19266 3.39573 6.99972 3.39573C6.80679 3.39573 6.62563 3.30295 6.51287 3.1464L6.31418 2.87055ZM6.99973 1.81209C8.44474 0.211355 10.8925 0.0344519 12.5424 1.50706C14.3048 3.08006 14.4056 5.86874 12.7675 7.5744L12.7608 7.58133L7.77972 12.6032C7.35057 13.0455 6.64888 13.0455 6.21973 12.6032L1.23865 7.58133L1.23187 7.57439C-0.406111 5.86874 -0.305299 3.08007 1.45703 1.50707C3.10689 0.034449 5.55473 0.211354 6.99973 1.81209Z" fill="#858898"/>
</svg>
