<svg xmlns="http://www.w3.org/2000/svg" width="20" height="20" viewBox="0 0 20 20" fill="none">
  <path d="M16.5079 3.49206C14.2407 1.22487 10.5649 1.22487 8.29768 3.49206L7.69697 4.09277C7.42035 4.36939 7.42035 4.81788 7.69697 5.0945C7.97359 5.37112 8.42208 5.37112 8.6987 5.0945L9.29941 4.49379C11.0134 2.77985 13.7922 2.77985 15.5062 4.49379C17.2201 6.20774 17.2201 8.9866 15.5062 10.7005L14.9055 11.3013C14.6288 11.5779 14.6288 12.0264 14.9055 12.303C15.1821 12.5796 15.6306 12.5796 15.9072 12.303L16.5079 11.7023C18.7751 9.43509 18.7751 5.75925 16.5079 3.49206ZM5.0945 8.6987C5.37112 8.42208 5.37112 7.97359 5.0945 7.69697C4.81788 7.42035 4.36939 7.42035 4.09277 7.69697L3.49206 8.29767C1.22487 10.5649 1.22487 14.2407 3.49206 16.5079C5.75925 18.7751 9.43509 18.7751 11.7023 16.5079L12.303 15.9072C12.5796 15.6306 12.5796 15.1821 12.303 14.9055C12.0264 14.6288 11.5779 14.6288 11.3013 14.9055L10.7005 15.5062C8.9866 17.2201 6.20774 17.2201 4.49379 15.5062C2.77985 13.7922 2.77985 11.0134 4.49379 9.29941L5.0945 8.6987ZM12.3029 8.6987C12.5796 8.42208 12.5796 7.97359 12.3029 7.69697C12.0263 7.42035 11.5778 7.42035 11.3012 7.69697L7.69697 11.3012C7.42035 11.5778 7.42035 12.0263 7.69697 12.3029C7.97359 12.5796 8.42208 12.5796 8.6987 12.3029L12.3029 8.6987Z" fill="#ADAFBB" stroke="#ADAFBB" stroke-width="0.166667"/>
</svg>