<svg xmlns="http://www.w3.org/2000/svg" width="20" height="20" viewBox="0 0 20 20" fill="none">
  <path d="M16.0417 11.4584C15.2362 11.4584 14.5833 10.8055 14.5833 10.0001C14.5833 9.19467 15.2362 8.54175 16.0417 8.54175C16.8471 8.54175 17.5 9.19467 17.5 10.0001C17.5 10.8055 16.8471 11.4584 16.0417 11.4584Z" fill="#35363F"/>
  <path d="M10 11.4584C9.19458 11.4584 8.54166 10.8055 8.54166 10.0001C8.54166 9.19467 9.19458 8.54175 10 8.54175C10.8054 8.54175 11.4583 9.19467 11.4583 10.0001C11.4583 10.8055 10.8054 11.4584 10 11.4584Z" fill="#35363F"/>
  <path d="M2.5 10.0001C2.5 10.8055 3.15292 11.4584 3.95833 11.4584C4.76375 11.4584 5.41666 10.8055 5.41666 10.0001C5.41666 9.19467 4.76375 8.54175 3.95833 8.54175C3.15292 8.54175 2.5 9.19467 2.5 10.0001Z" fill="#35363F"/>
</svg>