<svg xmlns="http://www.w3.org/2000/svg" width="20" height="20" viewBox="0 0 20 20" fill="none">
  <path fill-rule="evenodd" clip-rule="evenodd" d="M17.4164 12.5003L17.4164 15.3589C17.4164 15.5708 17.4164 15.7726 17.4025 15.9425C17.3874 16.1279 17.3521 16.3404 17.2438 16.5529C17.092 16.8508 16.8498 17.0931 16.5519 17.2449C16.3394 17.3531 16.1268 17.3885 15.9414 17.4036C15.7715 17.4175 15.5698 17.4175 15.3579 17.4174H4.64155C4.42963 17.4175 4.2279 17.4175 4.05794 17.4036C3.8726 17.3885 3.66001 17.3531 3.44753 17.2449C3.1496 17.0931 2.90738 16.8508 2.75558 16.5529C2.64732 16.3404 2.612 16.1279 2.59685 15.9425C2.58297 15.7725 2.58299 15.5708 2.58301 15.3589V12.5003H4.08302V15.8338C4.08302 15.8799 4.12033 15.9172 4.16635 15.9172H15.833C15.8791 15.9172 15.9164 15.8799 15.9164 15.8338V12.5003H17.4164Z" fill="white"/>
  <path d="M14.0875 7.18146C13.8036 7.48309 13.3289 7.49748 13.0273 7.21359L10.7497 5.06992V12.9176C10.7497 13.3318 10.4139 13.6676 9.99967 13.6676C9.58546 13.6676 9.24967 13.3318 9.24967 12.9176V5.06992L6.97203 7.21359C6.6704 7.49748 6.19575 7.48309 5.91186 7.18146C5.62797 6.87983 5.64235 6.40518 5.94398 6.12129L9.48565 2.78796C9.77444 2.51616 10.2249 2.51616 10.5137 2.78796L14.0554 6.12129C14.357 6.40518 14.3714 6.87983 14.0875 7.18146Z" fill="white"/>
</svg>