<svg xmlns="http://www.w3.org/2000/svg" width="24" height="24" viewBox="0 0 24 24" fill="none">
  <path fill-rule="evenodd" clip-rule="evenodd" d="M7.36627 2.6001C7.37734 2.6001 7.38845 2.6001 7.3996 2.6001L16.6329 2.6001C17.0244 2.60008 17.3709 2.60006 17.658 2.62352C17.9638 2.64851 18.2807 2.70452 18.5891 2.86168C19.0407 3.09178 19.4079 3.45893 19.638 3.91052C19.7951 4.21897 19.8511 4.53582 19.8761 4.84161C19.8996 5.12876 19.8996 5.47525 19.8996 5.86675L19.8996 21.5C19.8996 21.8251 19.7242 22.1249 19.4409 22.2844C19.1576 22.4438 18.8104 22.438 18.5325 22.2693L11.9996 18.3029L5.46669 22.2693C5.18881 22.438 4.84154 22.4438 4.55823 22.2844C4.27492 22.1249 4.09961 21.8251 4.09961 21.5V5.90009C4.09961 5.88894 4.09961 5.87783 4.09961 5.86675C4.09959 5.47525 4.09958 5.12876 4.12304 4.84161C4.14802 4.53582 4.20403 4.21897 4.36119 3.91052C4.59129 3.45893 4.95844 3.09178 5.41003 2.86168C5.71848 2.70452 6.03533 2.64851 6.34112 2.62352C6.62827 2.60006 6.97476 2.60008 7.36627 2.6001ZM6.48769 4.41754C6.29322 4.43343 6.23962 4.45916 6.22721 4.46549C6.11431 4.52301 6.02252 4.6148 5.965 4.7277C5.95868 4.74011 5.93294 4.79371 5.91705 4.98818C5.9003 5.19316 5.8996 5.4652 5.8996 5.90009V19.9007L11.5325 16.4807C11.8195 16.3065 12.1797 16.3065 12.4667 16.4807L18.0996 19.9007V5.90009C18.0996 5.4652 18.0989 5.19316 18.0821 4.98818C18.0662 4.79371 18.0405 4.74011 18.0342 4.7277C17.9766 4.6148 17.8849 4.52301 17.772 4.46549C17.7595 4.45916 17.7059 4.43343 17.5115 4.41754C17.3065 4.40079 17.0345 4.40009 16.5996 4.40009H7.3996C6.96471 4.40009 6.69267 4.40079 6.48769 4.41754Z" fill="#858898"/>
</svg>