<svg xmlns="http://www.w3.org/2000/svg" width="32" height="32" viewBox="0 0 32 32" fill="none">
  <path d="M15.9994 3.13342C16.6622 3.13342 17.1994 3.67068 17.1994 4.33342V14.8H27.666C28.3288 14.8 28.866 15.3373 28.866 16C28.866 16.6628 28.3288 17.2 27.666 17.2H17.1994V27.6666C17.1994 28.3294 16.6622 28.8666 15.9994 28.8666C15.3367 28.8666 14.7994 28.3294 14.7994 27.6666V17.2H4.33281C3.67007 17.2 3.13281 16.6628 3.13281 16C3.13281 15.3373 3.67007 14.8 4.33281 14.8H14.7994V4.33342C14.7994 3.67068 15.3367 3.13342 15.9994 3.13342Z" fill="white"/>
</svg>