<svg xmlns="http://www.w3.org/2000/svg" width="16" height="16" viewBox="0 0 16 16" fill="none">
  <path fill-rule="evenodd" clip-rule="evenodd" d="M8.00065 14.6666C11.6825 14.6666 14.6673 11.6819 14.6673 7.99998C14.6673 4.31808 11.6825 1.33331 8.00065 1.33331C4.31875 1.33331 1.33398 4.31808 1.33398 7.99998C1.33398 11.6819 4.31875 14.6666 8.00065 14.6666ZM8.50065 5.99998C8.50065 5.72384 8.27679 5.49998 8.00065 5.49998C7.72451 5.49998 7.50065 5.72384 7.50065 5.99998L7.50065 7.5H6.00065C5.72451 7.5 5.50065 7.72385 5.50065 8C5.50065 8.27614 5.72451 8.5 6.00065 8.5H7.50065V9.99998C7.50065 10.2761 7.72451 10.5 8.00065 10.5C8.27679 10.5 8.50065 10.2761 8.50065 9.99998L8.50065 8.5H10.0007C10.2768 8.5 10.5007 8.27614 10.5007 8C10.5007 7.72385 10.2768 7.5 10.0007 7.5H8.50065V5.99998Z" fill="#35363F"/>
</svg>