<svg xmlns="http://www.w3.org/2000/svg" width="16" height="16" viewBox="0 0 16 16" fill="none">
  <path fill-rule="evenodd" clip-rule="evenodd" d="M2.34905 8.00001C3.42439 5.9773 5.55326 4.60002 8.0038 4.60002C10.4544 4.60002 12.5832 5.9773 13.6586 8.00001C12.5832 10.0227 10.4544 11.4 8.0038 11.4C5.55326 11.4 3.42439 10.0227 2.34905 8.00001ZM14.8705 8.26121C14.9491 8.09593 14.9491 7.90409 14.8705 7.73881C13.6499 5.17335 11.0339 3.40002 8.0038 3.40002C4.97366 3.40002 2.3577 5.17335 1.1371 7.73881C1.05847 7.90409 1.05847 8.09593 1.1371 8.26121C2.3577 10.8267 4.97366 12.6 8.0038 12.6C11.0339 12.6 13.6499 10.8267 14.8705 8.26121ZM6.6038 8.00002C6.6038 7.22683 7.2306 6.60002 8.0038 6.60002C8.777 6.60002 9.40381 7.22683 9.40381 8.00002C9.40381 8.77322 8.777 9.40002 8.0038 9.40002C7.2306 9.40002 6.6038 8.77322 6.6038 8.00002ZM8.0038 5.40002C6.56786 5.40002 5.4038 6.56408 5.4038 8.00002C5.4038 9.43596 6.56786 10.6 8.0038 10.6C9.43975 10.6 10.6038 9.43596 10.6038 8.00002C10.6038 6.56408 9.43975 5.40002 8.0038 5.40002Z" fill="#ADAFBB"/>
</svg>