<svg xmlns="http://www.w3.org/2000/svg" width="17" height="16" viewBox="0 0 17 16" fill="none">
  <path fill-rule="evenodd" clip-rule="evenodd" d="M2.84905 8.00025C3.92439 5.97754 6.05325 4.60027 8.5038 4.60027C10.9543 4.60027 13.0832 5.97754 14.1585 8.00025C13.0832 10.023 10.9543 11.4002 8.5038 11.4002C6.05325 11.4002 3.92439 10.023 2.84905 8.00025ZM15.3705 8.26145C15.4491 8.09617 15.4491 7.90433 15.3705 7.73905C14.1499 5.17359 11.5339 3.40027 8.5038 3.40027C5.47366 3.40027 2.8577 5.17359 1.6371 7.73905C1.55847 7.90433 1.55847 8.09617 1.6371 8.26145C2.8577 10.8269 5.47366 12.6002 8.5038 12.6002C11.5339 12.6002 14.1499 10.8269 15.3705 8.26145ZM7.1038 8.00027C7.1038 7.22707 7.7306 6.60027 8.5038 6.60027C9.27699 6.60027 9.9038 7.22707 9.9038 8.00027C9.9038 8.77347 9.27699 9.40027 8.5038 9.40027C7.7306 9.40027 7.1038 8.77347 7.1038 8.00027ZM8.5038 5.40027C7.06786 5.40027 5.9038 6.56433 5.9038 8.00027C5.9038 9.43621 7.06786 10.6003 8.5038 10.6003C9.93974 10.6003 11.1038 9.43621 11.1038 8.00027C11.1038 6.56433 9.93974 5.40027 8.5038 5.40027Z" fill="#CACCD8"/>
</svg>