<svg xmlns="http://www.w3.org/2000/svg" width="17" height="16" viewBox="0 0 17 16" fill="none">
  <path fill-rule="evenodd" clip-rule="evenodd" d="M7.81418 4.37079C6.83721 3.01431 4.98148 2.80883 3.75611 3.90256C2.50491 5.01934 2.42792 7.02186 3.5942 8.24011L8.49972 13.1858L13.4052 8.24012C14.5715 7.02187 14.4946 5.01935 13.2434 3.90257C12.0179 2.80883 10.1623 3.01431 9.18527 4.3708L8.98658 4.64664C8.87382 4.8032 8.69266 4.89597 8.49972 4.89597C8.30679 4.89597 8.12563 4.8032 8.01287 4.64664L7.81418 4.37079ZM8.49973 3.31234C9.94474 1.7116 12.3925 1.5347 14.0424 3.00731C15.8048 4.5803 15.9056 7.36898 14.2675 9.07464L14.2608 9.08157L9.27972 14.1035C8.85057 14.5458 8.14888 14.5458 7.71973 14.1035L2.73865 9.08157L2.73187 9.07463C1.09389 7.36898 1.1947 4.58031 2.95703 3.00731C4.60689 1.53469 7.05473 1.7116 8.49973 3.31234Z" fill="#CACCD8"/>
</svg>