<svg width="32" height="32" viewBox="0 0 32 32" fill="none" xmlns="http://www.w3.org/2000/svg">
<rect width="32" height="32" rx="16" fill="#D0A989"/>
<path d="M15.9922 22.1562C13.5703 22.1562 11.8516 20.8438 11.8047 18.9375H13.8516C13.9141 19.8438 14.8203 20.4375 15.9922 20.4375C17.2422 20.4375 18.1328 19.75 18.1328 18.75C18.1328 17.7344 17.2578 17 15.7891 17H14.7734V15.4375H15.7891C16.9922 15.4375 17.8359 14.7656 17.8203 13.7812C17.8359 12.8281 17.1172 12.1875 16.0078 12.1875C14.9453 12.1875 14.0234 12.7812 13.9922 13.7344H12.0391C12.0859 11.8281 13.8047 10.5312 16.0234 10.5312C18.3203 10.5312 19.8047 11.9375 19.7891 13.6719C19.8047 14.9375 18.9609 15.8594 17.7266 16.1094V16.2031C19.3203 16.4219 20.2266 17.4375 20.2109 18.8594C20.2266 20.7656 18.4453 22.1562 15.9922 22.1562Z" fill="white"/>
</svg>
