<svg width="32" height="32" viewBox="0 0 32 32" fill="none" xmlns="http://www.w3.org/2000/svg">
<g clip-path="url(#clip0_3656_53212)">
<rect width="32" height="32" rx="16" fill="#ADAFBB"/>
<path opacity="0.4" d="M0 32L32 0V32H0Z" fill="#858898"/>
<path d="M12.0078 22L11.9922 20.2969L16.0547 16.5625C17.1172 15.5469 17.6797 14.9219 17.6797 14.0312C17.6797 13.0312 16.9141 12.4062 15.8828 12.4062C14.8203 12.4062 14.1328 13.0781 14.1328 14.1562H11.8984C11.8828 11.9375 13.5234 10.5312 15.9141 10.5312C18.3359 10.5312 19.9453 11.9062 19.9453 13.875C19.9453 15.1562 19.3203 16.2188 16.9922 18.3281L15.2734 20V20.0625H20.1016V22H12.0078Z" fill="white"/>
</g>
<rect x="1" y="1" width="30" height="30" rx="15" stroke="white" stroke-opacity="0.3" stroke-width="2"/>
<defs>
<clipPath id="clip0_3656_53212">
<rect width="32" height="32" rx="16" fill="white"/>
</clipPath>
</defs>
</svg>
