<svg width="32" height="32" viewBox="0 0 32 32" fill="none" xmlns="http://www.w3.org/2000/svg">
<g clip-path="url(#clip0_3656_53215)">
<rect width="32" height="32" rx="16" fill="#CE986B"/>
<path opacity="0.4" d="M0 32L32 0V32H0Z" fill="#AD7242"/>
<path d="M16.4688 22.1562C13.9844 22.1562 12.2031 20.7812 12.1562 18.8125H14.5312C14.5781 19.6562 15.3906 20.2188 16.4844 20.2188C17.6094 20.2188 18.4219 19.5781 18.4062 18.6719C18.4219 17.75 17.5938 17.0938 16.2656 17.0938H15.2188V15.3594H16.2656C17.375 15.3594 18.1562 14.75 18.1562 13.8594C18.1562 13 17.5 12.4062 16.5 12.4062C15.5 12.4062 14.6719 12.9688 14.6406 13.8281H12.3906C12.4219 11.875 14.1875 10.5312 16.5 10.5312C18.8594 10.5312 20.4375 11.9219 20.4219 13.7188C20.4375 14.9844 19.5469 15.8906 18.2812 16.1094V16.2031C19.9375 16.4062 20.8594 17.4219 20.8438 18.8281C20.8594 20.7656 19.0156 22.1562 16.4688 22.1562Z" fill="white"/>
</g>
<rect x="1" y="1" width="30" height="30" rx="15" stroke="white" stroke-opacity="0.3" stroke-width="2"/>
<defs>
<clipPath id="clip0_3656_53215">
<rect width="32" height="32" rx="16" fill="white"/>
</clipPath>
</defs>
</svg>
