<svg xmlns="http://www.w3.org/2000/svg" width="24" height="24" viewBox="0 0 24 24" fill="none">
  <path fill-rule="evenodd" clip-rule="evenodd" d="M7.36652 2.6001C7.3776 2.6001 7.38871 2.6001 7.39986 2.6001L16.6332 2.6001C17.0247 2.60008 17.3712 2.60006 17.6583 2.62353C17.9641 2.64851 18.281 2.70452 18.5894 2.86168C19.041 3.09178 19.4082 3.45893 19.6383 3.91052C19.7954 4.21898 19.8514 4.53583 19.8764 4.84161C19.8999 5.12877 19.8999 5.47526 19.8999 5.86676L19.8999 21.5001C19.8999 21.8252 19.7245 22.125 19.4412 22.2844C19.1579 22.4439 18.8107 22.4381 18.5328 22.2694L11.9999 18.303L5.46694 22.2694C5.18906 22.4381 4.84179 22.4439 4.55848 22.2844C4.27517 22.125 4.09986 21.8252 4.09986 21.5001V5.9001C4.09986 5.88895 4.09986 5.87784 4.09985 5.86677C4.09984 5.47526 4.09982 5.12877 4.12328 4.84161C4.14826 4.53583 4.20427 4.21898 4.36144 3.91052C4.59154 3.45893 4.95869 3.09178 5.41028 2.86168C5.71873 2.70452 6.03559 2.64851 6.34137 2.62353C6.62853 2.60006 6.97502 2.60008 7.36652 2.6001ZM6.48795 4.41755C6.29348 4.43344 6.23987 4.45917 6.22746 4.4655C6.11456 4.52302 6.02278 4.61481 5.96525 4.72771C5.95893 4.74012 5.93319 4.79372 5.9173 4.98819C5.90056 5.19317 5.89986 5.46521 5.89986 5.9001V19.9008L11.5328 16.4808C11.8198 16.3065 12.1799 16.3065 12.4669 16.4808L18.0999 19.9008V5.9001C18.0999 5.46521 18.0992 5.19317 18.0824 4.98819C18.0665 4.79372 18.0408 4.74012 18.0345 4.72771C17.9769 4.61481 17.8851 4.52302 17.7723 4.4655C17.7598 4.45917 17.7062 4.43344 17.5118 4.41755C17.3068 4.4008 17.0347 4.4001 16.5999 4.4001H7.39986C6.96497 4.4001 6.69293 4.4008 6.48795 4.41755Z" fill="#CACCD8"/>
</svg>