<svg xmlns="http://www.w3.org/2000/svg" width="24" height="24" viewBox="0 0 24 24" fill="none">
  <path fill-rule="evenodd" clip-rule="evenodd" d="M16.272 7.1267C15.9268 7.48428 15.357 7.49428 14.9994 7.14902L12.8996 5.12157V14.5008C12.8996 14.9978 12.4966 15.4008 11.9996 15.4008C11.5025 15.4008 11.0996 14.9978 11.0996 14.5008V5.12157L8.99971 7.14902C8.64213 7.49428 8.07236 7.48428 7.72711 7.1267C7.38186 6.76911 7.39186 6.19935 7.74944 5.8541L11.3744 2.3541C11.7232 2.01738 12.276 2.01738 12.6247 2.3541L16.2497 5.8541C16.6073 6.19935 16.6173 6.76911 16.272 7.1267ZM20.8996 9.99941L20.8996 19.4298C20.8996 19.6841 20.8996 19.9261 20.883 20.1301C20.8648 20.3525 20.8224 20.6076 20.6925 20.8626C20.5103 21.2201 20.2197 21.5108 19.8622 21.6929C19.6072 21.8228 19.3521 21.8652 19.1297 21.8834C18.9257 21.9001 18.6837 21.9 18.4294 21.9H5.56985C5.31555 21.9 5.07347 21.9001 4.86952 21.8834C4.64712 21.8652 4.39201 21.8228 4.13703 21.6929C3.77952 21.5108 3.48886 21.2201 3.3067 20.8626C3.17678 20.6076 3.1344 20.3525 3.11623 20.1301C3.09956 19.9261 3.09958 19.6841 3.09961 19.4298V9.99941H4.89961V19.9997C4.89961 20.0549 4.94439 20.0997 4.99961 20.0997H18.9996C19.0548 20.0997 19.0996 20.0549 19.0996 19.9997V9.99941H20.8996Z" fill="#23252B"/>
</svg>