<svg width="67" height="32" viewBox="0 0 67 32" fill="none" xmlns="http://www.w3.org/2000/svg">
<rect x="0.5" y="0.500488" width="66.0002" height="31" rx="7.5" fill="white"/>
<rect x="0.5" y="0.500488" width="66.0002" height="31" rx="7.5" stroke="#11D85D"/>
<path d="M25.4743 12.8393C25.7704 13.1354 25.7704 13.6156 25.4743 13.9117L20.2242 19.1617C19.9281 19.4579 19.4479 19.4579 19.1518 19.1617L16.5268 16.5367C16.2307 16.2406 16.2307 15.7604 16.5268 15.4643C16.8229 15.1682 17.3031 15.1682 17.5992 15.4643L19.688 17.5531L24.4018 12.8393C24.698 12.5432 25.1781 12.5432 25.4743 12.8393Z" fill="#11D85D"/>
<path d="M41.5977 10.4497V21.0435H40.3555V15.6411H39.1602V20.5044H37.9648V10.6489H39.1602V14.5981H40.3555V10.4497H41.5977ZM36.7695 11.7036V12.7583H34.1211V17.4692C35.2754 17.4575 36.2246 17.3989 37.2969 17.1997L37.3906 18.2661C36.1133 18.5239 35 18.5591 33.5234 18.5708H32.8086V11.7036H36.7695ZM52.5312 18.77V19.8247H42.8516V18.77H45.3594V16.5903H43.6836V15.5356H45.1719V12.395H43.6484V11.3521H51.6875V12.395H50.1406V15.5356H51.6523V16.5903H49.9766V18.77H52.5312ZM46.4727 15.5356H48.8516V12.395H46.4727V15.5356ZM46.6602 18.77H48.6758V16.5903H46.6602V18.77Z" fill="#11D85D"/>
</svg>
