<svg width="67" height="32" viewBox="0 0 67 32" fill="none" xmlns="http://www.w3.org/2000/svg">
<rect x="0.5" y="0.5" width="66.0002" height="31" rx="7.5" fill="white"/>
<rect x="0.5" y="0.5" width="66.0002" height="31" rx="7.5" stroke="#E1E1E8"/>
<path d="M25.4743 12.8388C25.7704 13.135 25.7704 13.6151 25.4743 13.9113L20.2242 19.1613C19.9281 19.4574 19.4479 19.4574 19.1518 19.1613L16.5268 16.5363C16.2307 16.2401 16.2307 15.76 16.5268 15.4638C16.8229 15.1677 17.3031 15.1677 17.5992 15.4638L19.688 17.5526L24.4018 12.8388C24.698 12.5427 25.1781 12.5427 25.4743 12.8388Z" fill="#CACCD8"/>
<path d="M41.5977 10.4492V21.043H40.3555V15.6406H39.1602V20.5039H37.9648V10.6484H39.1602V14.5977H40.3555V10.4492H41.5977ZM36.7695 11.7031V12.7578H34.1211V17.4688C35.2754 17.457 36.2246 17.3984 37.2969 17.1992L37.3906 18.2656C36.1133 18.5234 35 18.5586 33.5234 18.5703H32.8086V11.7031H36.7695ZM52.5312 18.7695V19.8242H42.8516V18.7695H45.3594V16.5898H43.6836V15.5352H45.1719V12.3945H43.6484V11.3516H51.6875V12.3945H50.1406V15.5352H51.6523V16.5898H49.9766V18.7695H52.5312ZM46.4727 15.5352H48.8516V12.3945H46.4727V15.5352ZM46.6602 18.7695H48.6758V16.5898H46.6602V18.7695Z" fill="#CACCD8"/>
</svg>
