<svg xmlns="http://www.w3.org/2000/svg" width="30" height="30" viewBox="0 0 30 30" fill="none">
  <path fill-rule="evenodd" clip-rule="evenodd" d="M27.5 15C27.5 21.9036 21.9036 27.5 15 27.5C8.09644 27.5 2.5 21.9036 2.5 15C2.5 8.09644 8.09644 2.5 15 2.5C21.9036 2.5 27.5 8.09644 27.5 15ZM15 22.1875C15.5178 22.1875 15.9375 21.7678 15.9375 21.25V13.75C15.9375 13.2322 15.5178 12.8125 15 12.8125C14.4822 12.8125 14.0625 13.2322 14.0625 13.75V21.25C14.0625 21.7678 14.4822 22.1875 15 22.1875ZM15 8.75C15.6904 8.75 16.25 9.30964 16.25 10C16.25 10.6904 15.6904 11.25 15 11.25C14.3096 11.25 13.75 10.6904 13.75 10C13.75 9.30964 14.3096 8.75 15 8.75Z" fill="#232332"/>
</svg>