<svg xmlns="http://www.w3.org/2000/svg" width="20" height="20" viewBox="0 0 20 20" fill="none">
  <path d="M18.3335 10.5819C18.3322 11.8065 18.3229 12.8474 18.2533 13.7015C18.1725 14.6926 18.0071 15.5208 17.6367 16.2086C17.4733 16.512 17.2725 16.7837 17.0281 17.0281C16.3345 17.7218 15.4507 18.036 14.3308 18.1866C13.2366 18.3337 11.8343 18.3337 10.0448 18.3337H9.95585C8.1664 18.3337 6.76404 18.3337 5.66986 18.1866C4.54991 18.036 3.66618 17.7218 2.97252 17.0281C2.35758 16.4132 2.04001 15.6478 1.87114 14.6983C1.70525 13.7656 1.6749 12.6052 1.6686 11.1643C1.66699 10.7977 1.66699 10.4101 1.66699 10.0011V9.95585C1.66698 8.1664 1.66697 6.76404 1.81408 5.66986C1.96466 4.54991 2.27887 3.66618 2.97252 2.97252C3.66618 2.27887 4.54991 1.96466 5.66986 1.81408C6.64292 1.68326 7.89488 1.66878 9.41868 1.66719C9.73978 1.66685 10.0003 1.92729 10.0003 2.24839C10.0003 2.56948 9.73966 2.82966 9.41857 2.83C7.87324 2.83163 6.72325 2.84571 5.8248 2.9665C4.83379 3.09974 4.23634 3.35315 3.79474 3.79474C3.35315 4.23634 3.09974 4.83379 2.9665 5.8248C2.83102 6.83254 2.82978 8.15674 2.82978 10.0003C2.82978 10.2255 2.82978 10.4432 2.83005 10.654L3.60612 9.97495C4.31253 9.35685 5.3772 9.3923 6.04093 10.056L9.3663 13.3814C9.89903 13.9141 10.7376 13.9868 11.354 13.5536L11.5852 13.3911C12.4722 12.7677 13.6723 12.84 14.4781 13.5652L16.6723 15.54C16.8932 15.0762 17.0243 14.4668 17.0944 13.6071C17.1604 12.7971 17.1694 11.8132 17.1707 10.5819C17.171 10.2608 17.4312 10.0003 17.7523 10.0003C18.0734 10.0003 18.3338 10.2608 18.3335 10.5819Z" fill="#35363F"/>
  <path fill-rule="evenodd" clip-rule="evenodd" d="M14.5837 9.16699C12.8159 9.16699 11.932 9.16699 11.3828 8.61782C10.8337 8.06864 10.8337 7.18476 10.8337 5.41699C10.8337 3.64923 10.8337 2.76534 11.3828 2.21617C11.932 1.66699 12.8159 1.66699 14.5837 1.66699C16.3514 1.66699 17.2353 1.66699 17.7845 2.21617C18.3337 2.76534 18.3337 3.64923 18.3337 5.41699C18.3337 7.18476 18.3337 8.06864 17.7845 8.61782C17.2353 9.16699 16.3514 9.16699 14.5837 9.16699ZM15.2087 3.75033C15.2087 3.40515 14.9288 3.12533 14.5837 3.12533C14.2385 3.12533 13.9587 3.40515 13.9587 3.75033V4.79199H12.917C12.5718 4.79199 12.292 5.07181 12.292 5.41699C12.292 5.76217 12.5718 6.04199 12.917 6.04199H13.9587V7.08366C13.9587 7.42884 14.2385 7.70866 14.5837 7.70866C14.9288 7.70866 15.2087 7.42884 15.2087 7.08366V6.04199H16.2503C16.5955 6.04199 16.8753 5.76217 16.8753 5.41699C16.8753 5.07181 16.5955 4.79199 16.2503 4.79199H15.2087V3.75033Z" fill="#35363F"/>
</svg>