<svg width="40" height="40" viewBox="0 0 40 40" fill="none" xmlns="http://www.w3.org/2000/svg">
<rect x="0.5" y="0.500488" width="39" height="39" rx="11.5" fill="white"/>
<rect x="0.5" y="0.500488" width="39" height="39" rx="11.5" stroke="#EAEAF2"/>
<path d="M12.584 14.167C12.584 13.7528 12.9198 13.417 13.334 13.417H26.6673C27.0815 13.417 27.4173 13.7528 27.4173 14.167C27.4173 14.5812 27.0815 14.917 26.6673 14.917H13.334C12.9198 14.917 12.584 14.5812 12.584 14.167Z" fill="#ADAFBB"/>
<path d="M12.584 25.8337C12.584 25.4194 12.9198 25.0837 13.334 25.0837H26.6673C27.0815 25.0837 27.4173 25.4194 27.4173 25.8337C27.4173 26.2479 27.0815 26.5837 26.6673 26.5837H13.334C12.9198 26.5837 12.584 26.2479 12.584 25.8337Z" fill="#ADAFBB"/>
<path d="M13.334 19.2503C12.9198 19.2503 12.584 19.5861 12.584 20.0003C12.584 20.4145 12.9198 20.7503 13.334 20.7503H26.6673C27.0815 20.7503 27.4173 20.4145 27.4173 20.0003C27.4173 19.5861 27.0815 19.2503 26.6673 19.2503H13.334Z" fill="#ADAFBB"/>
</svg>
