<svg width="40" height="40" viewBox="0 0 40 40" fill="none" xmlns="http://www.w3.org/2000/svg">
<rect y="0.000488281" width="40.0001" height="40" rx="13.3333" fill="black" fill-opacity="0.4"/>
<path fill-rule="evenodd" clip-rule="evenodd" d="M12.8985 12.8989C13.3685 12.4289 14.1307 12.4289 14.6007 12.8989L19.9996 18.2978L25.3984 12.8989C25.8685 12.4289 26.6307 12.4289 27.1007 12.8989C27.5708 13.369 27.5708 14.1312 27.1007 14.6012L21.7019 20.0001L27.1007 25.3989C27.5708 25.869 27.5708 26.6312 27.1007 27.1012C26.6307 27.5713 25.8685 27.5713 25.3984 27.1012L19.9996 21.7024L14.6007 27.1012C14.1307 27.5713 13.3685 27.5713 12.8985 27.1012C12.4284 26.6312 12.4284 25.869 12.8985 25.3989L18.2973 20.0001L12.8985 14.6012C12.4284 14.1312 12.4284 13.369 12.8985 12.8989Z" fill="white"/>
</svg>
