<svg xmlns="http://www.w3.org/2000/svg" width="16" height="16" viewBox="0 0 16 16" fill="none">
  <path fill-rule="evenodd" clip-rule="evenodd" d="M2.34905 7.99995C3.42439 5.97724 5.55325 4.59996 8.0038 4.59996C10.4543 4.59996 12.5832 5.97724 13.6585 7.99995C12.5832 10.0227 10.4543 11.3999 8.0038 11.3999C5.55325 11.3999 3.42439 10.0227 2.34905 7.99995ZM14.8705 8.26115C14.9491 8.09587 14.9491 7.90403 14.8705 7.73875C13.6499 5.17329 11.0339 3.39996 8.0038 3.39996C4.97366 3.39996 2.3577 5.17329 1.1371 7.73875C1.05847 7.90403 1.05847 8.09587 1.1371 8.26115C2.3577 10.8266 4.97366 12.5999 8.0038 12.5999C11.0339 12.5999 13.6499 10.8266 14.8705 8.26115ZM6.6038 7.99996C6.6038 7.22676 7.2306 6.59996 8.0038 6.59996C8.77699 6.59996 9.4038 7.22676 9.4038 7.99996C9.4038 8.77316 8.77699 9.39996 8.0038 9.39996C7.2306 9.39996 6.6038 8.77316 6.6038 7.99996ZM8.0038 5.39996C6.56786 5.39996 5.4038 6.56402 5.4038 7.99996C5.4038 9.4359 6.56786 10.6 8.0038 10.6C9.43974 10.6 10.6038 9.4359 10.6038 7.99996C10.6038 6.56402 9.43974 5.39996 8.0038 5.39996Z" fill="#ADAFBB"/>
</svg>