<svg width="14" height="10" viewBox="0 0 14 10" fill="none" xmlns="http://www.w3.org/2000/svg">
<path fill-rule="evenodd" clip-rule="evenodd" d="M1.34856 4.99842C2.4239 2.97571 4.55276 1.59844 7.00331 1.59844C9.45385 1.59844 11.5827 2.97571 12.6581 4.99842C11.5827 7.02113 9.45385 8.3984 7.00331 8.3984C4.55276 8.3984 2.4239 7.02113 1.34856 4.99842ZM13.87 5.25962C13.9486 5.09434 13.9486 4.9025 13.87 4.73722C12.6494 2.17176 10.0334 0.398438 7.00331 0.398438C3.97317 0.398438 1.35721 2.17176 0.136615 4.73722C0.0579772 4.9025 0.0579772 5.09434 0.136615 5.25962C1.35721 7.82508 3.97317 9.5984 7.00331 9.5984C10.0334 9.5984 12.6494 7.82508 13.87 5.25962ZM5.60331 4.99844C5.60331 4.22524 6.23011 3.59844 7.00331 3.59844C7.77651 3.59844 8.40331 4.22524 8.40331 4.99844C8.40331 5.77164 7.77651 6.39844 7.00331 6.39844C6.23011 6.39844 5.60331 5.77164 5.60331 4.99844ZM7.00331 2.39844C5.56737 2.39844 4.40331 3.5625 4.40331 4.99844C4.40331 6.43438 5.56737 7.59844 7.00331 7.59844C8.43925 7.59844 9.60331 6.43438 9.60331 4.99844C9.60331 3.5625 8.43925 2.39844 7.00331 2.39844Z" fill="#858898"/>
</svg>
