<svg xmlns="http://www.w3.org/2000/svg" width="16" height="16" viewBox="0 0 16 16" fill="none">
  <path fill-rule="evenodd" clip-rule="evenodd" d="M2.34905 8.00013C3.42439 5.97742 5.55325 4.60015 8.0038 4.60015C10.4543 4.60015 12.5832 5.97742 13.6585 8.00013C12.5832 10.0228 10.4543 11.4001 8.0038 11.4001C5.55325 11.4001 3.42439 10.0228 2.34905 8.00013ZM14.8705 8.26133C14.9491 8.09605 14.9491 7.90421 14.8705 7.73893C13.6499 5.17347 11.0339 3.40015 8.0038 3.40015C4.97366 3.40015 2.3577 5.17347 1.1371 7.73893C1.05847 7.90421 1.05847 8.09605 1.1371 8.26133C2.3577 10.8268 4.97366 12.6001 8.0038 12.6001C11.0339 12.6001 13.6499 10.8268 14.8705 8.26133ZM6.6038 8.00015C6.6038 7.22695 7.2306 6.60015 8.0038 6.60015C8.77699 6.60015 9.4038 7.22695 9.4038 8.00015C9.4038 8.77335 8.77699 9.40015 8.0038 9.40015C7.2306 9.40015 6.6038 8.77335 6.6038 8.00015ZM8.0038 5.40015C6.56786 5.40015 5.4038 6.56421 5.4038 8.00015C5.4038 9.43609 6.56786 10.6001 8.0038 10.6001C9.43974 10.6001 10.6038 9.43609 10.6038 8.00015C10.6038 6.56421 9.43974 5.40015 8.0038 5.40015Z" fill="#CACCD8"/>
</svg>