<svg xmlns="http://www.w3.org/2000/svg" width="20" height="20" viewBox="0 0 20 20" fill="none">
  <path fill-rule="evenodd" clip-rule="evenodd" d="M15.5482 1.84314C15.9912 1.62356 16.5114 1.62358 16.9544 1.84318C17.1924 1.96115 17.3929 2.16297 17.5663 2.33752L17.6638 2.43495C17.8383 2.60836 18.04 2.80885 18.158 3.04684C18.3775 3.48986 18.3775 4.01 18.1579 4.45301C18.04 4.691 17.8382 4.89148 17.6637 5.06489L9.47863 13.2499H6.7513V10.5226L14.9362 2.33745C15.1096 2.1629 15.3102 1.9611 15.5482 1.84314ZM16.3102 3.20272C16.2777 3.17017 16.2249 3.17017 16.1924 3.20271L8.25134 11.1438V11.7498H8.85734L16.7983 3.80865C16.8308 3.77611 16.8308 3.72335 16.7983 3.69081L16.3102 3.20272Z" fill="#23252B"/>
  <path fill-rule="evenodd" clip-rule="evenodd" d="M6.22067 2.16675C5.66334 2.16674 5.20002 2.16673 4.8219 2.19762C4.42812 2.2298 4.06117 2.29918 3.715 2.47556C3.18187 2.7472 2.74843 3.18065 2.47678 3.71378C2.3004 4.05995 2.23102 4.4269 2.19884 4.82068C2.16795 5.1988 2.16796 5.66212 2.16797 6.21946V13.7807C2.16796 14.338 2.16795 14.8014 2.19884 15.1795C2.23102 15.5733 2.3004 15.9402 2.47678 16.2864C2.74843 16.8195 3.18187 17.253 3.715 17.5246C4.06117 17.701 4.42812 17.7704 4.8219 17.8025C5.20002 17.8334 5.66334 17.8334 6.22067 17.8334H13.782C14.3393 17.8334 14.8027 17.8334 15.1808 17.8025C15.5746 17.7704 15.9415 17.701 16.2877 17.5246C16.8208 17.253 17.2543 16.8195 17.5259 16.2864C17.7023 15.9402 17.7717 15.5732 17.8038 15.1794C17.8347 14.8013 17.8347 14.338 17.8347 13.7806L17.8346 9.16674L16.3346 9.16676L16.3347 13.75C16.3347 14.3458 16.3341 14.7475 16.3088 15.0573C16.2842 15.3583 16.2401 15.5059 16.1894 15.6054C16.0616 15.8563 15.8576 16.0603 15.6067 16.1881C15.5072 16.2388 15.3596 16.2829 15.0586 16.3075C14.7488 16.3328 14.3471 16.3334 13.7514 16.3334H6.2513C5.65554 16.3334 5.25382 16.3328 4.94405 16.3075C4.64303 16.2829 4.49545 16.2388 4.39598 16.1881C4.1451 16.0603 3.94112 15.8563 3.81329 15.6054C3.76261 15.5059 3.71846 15.3584 3.69386 15.0573C3.66855 14.7476 3.66797 14.3458 3.66797 13.7501V6.25008C3.66797 5.65432 3.66855 5.2526 3.69386 4.94283C3.71846 4.64181 3.76261 4.49424 3.81329 4.39476C3.94112 4.14388 4.1451 3.9399 4.39598 3.81207C4.49545 3.76139 4.64303 3.71724 4.94405 3.69264C5.25382 3.66733 5.65554 3.66675 6.2513 3.66675H10.8346V2.16675L6.22067 2.16675Z" fill="#23252B"/>
</svg>