<svg xmlns="http://www.w3.org/2000/svg" width="96" height="96" viewBox="0 0 96 96" fill="none">
  <path d="M43.7048 9.44083C45.1184 10.305 45.5638 12.1516 44.6996 13.5652C44.0725 14.591 44.2297 15.9128 45.0799 16.763L45.4714 17.1545C47.826 19.5091 48.6943 22.9682 47.7307 26.1558C47.2513 27.7417 45.577 28.6388 43.991 28.1594C42.4051 27.68 41.508 26.0057 41.9874 24.4197C42.3109 23.3493 42.0194 22.1878 41.2287 21.3972L40.8372 21.0056C38.0271 18.1956 37.5076 13.8263 39.5804 10.4357C40.4446 9.02205 42.2912 8.57664 43.7048 9.44083Z" fill="#11D85D"/>
  <path d="M79.898 28.1872C79.3443 28.4006 78.8536 28.8913 77.872 29.8729C76.8904 30.8545 76.3996 31.3452 76.1863 31.8989C75.9367 32.5468 75.9367 33.2644 76.1863 33.9123C76.3996 34.4659 76.8904 34.9567 77.872 35.9383C78.8536 36.9199 79.3443 37.4106 79.898 37.624C80.5459 37.8736 81.2635 37.8736 81.9114 37.624C82.465 37.4106 82.9558 36.9199 83.9374 35.9383C84.9189 34.9567 85.4097 34.4659 85.623 33.9123C85.8727 33.2644 85.8727 32.5468 85.623 31.8989C85.4097 31.3452 84.9189 30.8545 83.9374 29.8729C82.9558 28.8913 82.465 28.4006 81.9114 28.1872C81.2635 27.9376 80.5459 27.9376 79.898 28.1872Z" fill="#11D85D"/>
  <path d="M85.6318 50.2385C84.1849 49.6058 82.5023 49.8716 81.3208 50.9193C78.0838 53.7897 73.3732 54.2667 69.6264 52.1035L68.7751 51.612C67.3402 50.7836 66.8486 48.9488 67.677 47.5139C68.5054 46.079 70.3402 45.5874 71.7751 46.4158L72.6264 46.9074C74.1366 47.7793 76.0353 47.587 77.34 46.43C80.2713 43.8307 84.4458 43.1715 88.0355 44.741L89.2014 45.2508C90.7195 45.9145 91.4121 47.6833 90.7483 49.2014C90.0846 50.7194 88.3158 51.412 86.7977 50.7482L85.6318 50.2385Z" fill="#11D85D"/>
  <path opacity="0.7" d="M54.2441 17.5853C55.0483 16.7811 55.4504 16.379 55.9154 16.2316C56.3087 16.1069 56.7309 16.1069 57.1241 16.2316C57.5891 16.379 57.9912 16.7811 58.7954 17.5853C59.5996 18.3895 60.0018 18.7916 60.1492 19.2566C60.2738 19.6499 60.2738 20.0721 60.1492 20.4653C60.0018 20.9303 59.5997 21.3324 58.7954 22.1366C57.9912 22.9408 57.5891 23.343 57.1241 23.4904C56.7309 23.615 56.3087 23.615 55.9154 23.4904C55.4504 23.343 55.0483 22.9408 54.2441 22.1366C53.4399 21.3324 53.0378 20.9303 52.8904 20.4653C52.7657 20.0721 52.7657 19.6499 52.8904 19.2566C53.0378 18.7916 53.4399 18.3895 54.2441 17.5853Z" fill="#11D85D"/>
  <path opacity="0.7" d="M76.2329 61.2534C77.0708 60.4155 78.4292 60.4155 79.2671 61.2534C80.105 62.0913 80.105 63.4497 79.2671 64.2876C78.4292 65.1255 77.0708 65.1255 76.2329 64.2876C75.395 63.4497 75.395 62.0913 76.2329 61.2534Z" fill="#11D85D"/>
  <g opacity="0.5">
    <path d="M27.7065 15.7638C28.5444 14.9259 29.9029 14.9259 30.7407 15.7638C31.5786 16.6017 31.5786 17.9601 30.7407 18.798C29.9029 19.6359 28.5444 19.6359 27.7065 18.798C26.8687 17.9601 26.8687 16.6017 27.7065 15.7638Z" fill="#11D85D"/>
    <path d="M70.7549 18.8871C72.3795 19.2121 73.4332 20.7926 73.1083 22.4172L72.5323 25.297C71.7397 29.2602 68.8841 32.4949 65.0498 33.773C63.2581 34.3703 61.9238 35.8817 61.5534 37.7337L60.9775 40.6134C60.6525 42.2381 59.0721 43.2917 57.4474 42.9668C55.8227 42.6419 54.7691 41.0614 55.094 39.4367L55.6699 36.557C56.4626 32.5937 59.3181 29.359 63.1524 28.0809C64.9441 27.4837 66.2784 25.9722 66.6488 24.1203L67.2248 21.2405C67.5497 19.6159 69.1302 18.5622 70.7549 18.8871Z" fill="#11D85D"/>
  </g>
  <path opacity="0.2" d="M69.9985 38.9669C70.8364 38.129 72.1949 38.129 73.0327 38.9669C73.8706 39.8048 73.8706 41.1632 73.0327 42.0011C72.1949 42.839 70.8364 42.839 69.9985 42.0011C69.1606 41.1632 69.1606 39.8048 69.9985 38.9669Z" fill="#11D85D"/>
  <path opacity="0.5" d="M16.0473 63.0471L22.8053 42.7732C25.8693 33.581 27.4014 28.9849 31.0264 28.1291C34.6514 27.2734 38.0771 30.6991 44.9286 37.5506L58.4446 51.0665C65.296 57.918 68.7217 61.3437 67.866 64.9687C67.0102 68.5938 62.4141 70.1258 53.2219 73.1898L32.948 79.9478L32.9479 79.9478C21.8863 83.635 16.3555 85.4786 13.436 82.5591C10.5165 79.6396 12.3601 74.1088 16.0473 63.0471Z" fill="#11D85D"/>
  <path d="M35.2004 30.017L35.4029 29.0369C33.8304 28.1143 32.444 27.7947 31.0271 28.1291C30.4494 28.2655 29.9248 28.4969 29.4387 28.8268L32.2244 29.4023C30.3103 29.0069 29.6599 28.8723 29.4387 28.8268C29.3922 28.8584 29.3456 28.8912 29.2998 28.9245L29.2785 29.0295C29.2497 29.1731 29.208 29.383 29.1554 29.653C29.0503 30.193 28.9019 30.9738 28.7266 31.9465C28.3762 33.8906 27.9175 36.6074 27.4831 39.7029C26.6226 45.8358 25.8255 53.6717 26.2361 59.9334C26.4846 63.7224 27.2729 68.4226 27.9764 72.0953C28.3315 73.9489 28.6714 75.5734 28.9226 76.7352C29.0484 77.3165 29.1521 77.783 29.2248 78.1055L29.3093 78.4779L29.332 78.5766L29.3397 78.61C29.3398 78.6102 29.3405 78.6132 32.2624 77.9333L29.3397 78.61L29.8876 80.9647C30.8579 80.6448 31.8773 80.305 32.9487 79.9478L35.6053 79.0623L35.1781 77.2264L35.1578 77.1379L35.0781 76.7871C35.0088 76.4795 34.9088 76.0299 34.787 75.4669C34.5434 74.3401 34.2135 72.7634 33.8693 70.9666C33.1743 67.3383 32.4462 62.9405 32.2233 59.5408C31.8551 53.9256 32.5744 46.598 33.4249 40.5366C33.8461 37.5351 34.2915 34.8971 34.6315 33.0106C34.8013 32.068 34.9446 31.3147 35.0449 30.7992C35.0951 30.5416 35.1344 30.3435 35.161 30.2111L35.1911 30.0625L35.1984 30.0266L35.2004 30.017Z" fill="#11D85D"/>
  <path d="M52.1571 73.5451L46.4649 75.4424L46.0954 74.3305L48.9422 73.3843C46.0954 74.3305 46.0955 74.3308 46.0954 74.3305L46.0917 74.3194L46.0837 74.2951L46.0552 74.2081C46.0309 74.1333 45.9962 74.0256 45.9525 73.8879C45.8651 73.6125 45.7417 73.2167 45.5944 72.7245C45.3001 71.7416 44.908 70.3667 44.5153 68.794C43.7469 65.7172 42.9095 61.628 42.9095 58.2208C42.9095 54.8136 43.7469 50.7243 44.5153 47.6476C44.908 46.0749 45.3001 44.7 45.5944 43.717C45.7417 43.2248 45.8651 42.829 45.9525 42.5537C45.9962 42.4159 46.0309 42.3082 46.0552 42.2335L46.0837 42.1465L46.0917 42.1222L46.0941 42.115C46.0942 42.1146 46.0954 42.1111 48.9422 43.0573L46.0954 42.1111L46.9421 39.5634L51.6897 44.3109C51.6838 44.3294 51.6777 44.3486 51.6714 44.3686C51.5929 44.6159 51.4794 44.9801 51.3424 45.4377C51.068 46.3543 50.7019 47.638 50.3365 49.1013C49.5885 52.0965 48.9095 55.589 48.9095 58.2208C48.9095 60.8525 49.5885 64.345 50.3365 67.3403C50.7019 68.8036 51.068 70.0872 51.3424 71.0039C51.4794 71.4614 51.5929 71.8257 51.6714 72.0729C51.7106 72.1965 51.741 72.2907 51.7611 72.3525L51.7834 72.4207L51.7884 72.4359L52.1571 73.5451Z" fill="#11D85D"/>
</svg>