<svg xmlns="http://www.w3.org/2000/svg" width="96" height="96" viewBox="0 0 96 96" fill="none">
  <path d="M43.7097 9.44083C45.1233 10.305 45.5687 12.1516 44.7045 13.5652C44.0774 14.591 44.2346 15.9128 45.0847 16.763L45.4763 17.1545C47.8309 19.5091 48.6991 22.9682 47.7356 26.1558C47.2562 27.7417 45.5819 28.6388 43.9959 28.1594C42.4099 27.68 41.5129 26.0057 41.9923 24.4197C42.3158 23.3493 42.0243 22.1878 41.2336 21.3972L40.8421 21.0056C38.032 18.1956 37.5125 13.8263 39.5853 10.4357C40.4495 9.02205 42.296 8.57664 43.7097 9.44083Z" fill="#2BC466"/>
  <path d="M79.9029 28.1872C79.3492 28.4006 78.8584 28.8913 77.8769 29.8729C76.8953 30.8545 76.4045 31.3452 76.1912 31.8989C75.9416 32.5468 75.9416 33.2644 76.1912 33.9123C76.4045 34.466 76.8953 34.9567 77.8769 35.9383C78.8584 36.9199 79.3492 37.4106 79.9029 37.624C80.5508 37.8736 81.2683 37.8736 81.9163 37.624C82.4699 37.4106 82.9607 36.9199 83.9423 35.9383C84.9238 34.9567 85.4146 34.466 85.6279 33.9123C85.8776 33.2644 85.8776 32.5468 85.6279 31.8989C85.4146 31.3452 84.9238 30.8545 83.9423 29.8729C82.9607 28.8913 82.4699 28.4006 81.9163 28.1872C81.2683 27.9376 80.5508 27.9376 79.9029 28.1872Z" fill="#2BC466"/>
  <path d="M85.6367 50.2385C84.1898 49.6058 82.5072 49.8716 81.3257 50.9193C78.0887 53.7897 73.3781 54.2667 69.6313 52.1035L68.7799 51.612C67.3451 50.7836 66.8534 48.9488 67.6819 47.5139C68.5103 46.079 70.3451 45.5874 71.7799 46.4158L72.6313 46.9074C74.1415 47.7793 76.0402 47.587 77.3449 46.43C80.2762 43.8307 84.4507 43.1715 88.0404 44.741L89.2063 45.2508C90.7244 45.9145 91.417 47.6833 90.7532 49.2014C90.0894 50.7194 88.3207 51.412 86.8026 50.7482L85.6367 50.2385Z" fill="#2BC466"/>
  <path opacity="0.7" d="M54.2382 17.5859C55.0425 16.7817 55.4446 16.3796 55.9095 16.2322C56.3028 16.1075 56.725 16.1075 57.1183 16.2322C57.5832 16.3796 57.9853 16.7817 58.7896 17.5859C59.5938 18.3901 59.9959 18.7922 60.1433 19.2572C60.268 19.6505 60.268 20.0727 60.1433 20.4659C59.9959 20.9309 59.5938 21.333 58.7896 22.1372C57.9854 22.9414 57.5832 23.3436 57.1183 23.491C56.725 23.6156 56.3028 23.6156 55.9095 23.491C55.4446 23.3436 55.0425 22.9415 54.2382 22.1372C53.434 21.333 53.0319 20.9309 52.8845 20.4659C52.7598 20.0727 52.7598 19.6505 52.8845 19.2572C53.0319 18.7922 53.434 18.3901 54.2382 17.5859Z" fill="#2BC466"/>
  <path opacity="0.7" d="M76.2319 61.2534C77.0698 60.4155 78.4283 60.4155 79.2661 61.2534C80.104 62.0913 80.104 63.4497 79.2661 64.2876C78.4283 65.1255 77.0698 65.1255 76.2319 64.2876C75.394 63.4497 75.394 62.0913 76.2319 61.2534Z" fill="#2BC466"/>
  <g opacity="0.5">
    <path d="M27.7124 15.7632C28.5503 14.9253 29.9087 14.9253 30.7466 15.7632C31.5845 16.601 31.5845 17.9595 30.7466 18.7974C29.9087 19.6353 28.5503 19.6353 27.7124 18.7974C26.8745 17.9595 26.8745 16.601 27.7124 15.7632Z" fill="#2BC466"/>
    <path d="M70.7607 18.8865C72.3854 19.2115 73.4391 20.7919 73.1141 22.4166L72.5382 25.2964C71.7455 29.2596 68.89 32.4943 65.0557 33.7724C63.264 34.3696 61.9297 35.8811 61.5593 37.7331L60.9833 40.6128C60.6584 42.2375 59.0779 43.2911 57.4532 42.9662C55.8286 42.6413 54.7749 41.0608 55.0998 39.4361L55.6758 36.5564C56.4685 32.5931 59.324 29.3584 63.1583 28.0803C64.95 27.4831 66.2843 25.9716 66.6547 24.1197L67.2306 21.2399C67.5556 19.6152 69.136 18.5616 70.7607 18.8865Z" fill="#2BC466"/>
  </g>
  <path opacity="0.2" d="M70.0034 38.9663C70.8413 38.1284 72.1997 38.1284 73.0376 38.9663C73.8755 39.8042 73.8755 41.1626 73.0376 42.0005C72.1997 42.8384 70.8413 42.8384 70.0034 42.0005C69.1655 41.1626 69.1655 39.8042 70.0034 38.9663Z" fill="#2BC466"/>
  <path opacity="0.5" d="M16.0522 63.0471L22.8102 42.7732C25.8742 33.581 27.4062 28.9849 31.0313 28.1291C34.6563 27.2734 38.082 30.6991 44.9335 37.5506L58.4494 51.0665C65.3009 57.918 68.7266 61.3437 67.8708 64.9687C67.0151 68.5938 62.419 70.1258 53.2268 73.1898L32.9529 79.9478L32.9528 79.9478C21.8912 83.635 16.3604 85.4786 13.4409 82.5591C10.5213 79.6396 12.365 74.1088 16.0522 63.0471Z" fill="#2BC466"/>
  <path d="M35.2004 30.017L35.4029 29.0369C33.8304 28.1143 32.444 27.7947 31.0271 28.1291C30.4494 28.2655 29.9248 28.4969 29.4387 28.8268L32.2244 29.4023C30.3103 29.0069 29.6599 28.8723 29.4387 28.8268C29.3922 28.8584 29.3456 28.8912 29.2998 28.9245L29.2785 29.0295C29.2497 29.1731 29.208 29.383 29.1554 29.653C29.0503 30.193 28.9019 30.9738 28.7266 31.9465C28.3762 33.8906 27.9175 36.6074 27.4831 39.7029C26.6226 45.8358 25.8255 53.6717 26.2361 59.9334C26.4846 63.7224 27.2729 68.4226 27.9764 72.0953C28.3315 73.9489 28.6714 75.5734 28.9226 76.7352C29.0484 77.3165 29.1521 77.783 29.2248 78.1055L29.3093 78.4779L29.332 78.5766L29.3397 78.61C29.3398 78.6102 29.3405 78.6132 32.2624 77.9333L29.3397 78.61L29.8876 80.9647C30.8579 80.6448 31.8773 80.305 32.9487 79.9478L35.6053 79.0623L35.1781 77.2264L35.1578 77.1379L35.0781 76.7871C35.0088 76.4795 34.9088 76.0299 34.787 75.4669C34.5434 74.3401 34.2135 72.7634 33.8693 70.9666C33.1743 67.3383 32.4462 62.9405 32.2233 59.5408C31.8551 53.9256 32.5744 46.598 33.4249 40.5366C33.8461 37.5351 34.2915 34.8971 34.6315 33.0106C34.8013 32.068 34.9446 31.3147 35.0449 30.7992C35.0951 30.5416 35.1344 30.3435 35.161 30.2111L35.1911 30.0625L35.1984 30.0266L35.2004 30.017Z" fill="#2BC466"/>
  <path d="M52.1571 73.5451L46.4649 75.4424L46.0954 74.3305L48.9422 73.3843C46.0954 74.3305 46.0955 74.3308 46.0954 74.3305L46.0917 74.3194L46.0837 74.2951L46.0552 74.2081C46.0309 74.1333 45.9962 74.0256 45.9525 73.8879C45.8651 73.6125 45.7417 73.2167 45.5944 72.7245C45.3001 71.7416 44.908 70.3667 44.5153 68.794C43.7469 65.7172 42.9095 61.628 42.9095 58.2208C42.9095 54.8136 43.7469 50.7243 44.5153 47.6476C44.908 46.0749 45.3001 44.7 45.5944 43.717C45.7417 43.2248 45.8651 42.829 45.9525 42.5537C45.9962 42.4159 46.0309 42.3082 46.0552 42.2335L46.0837 42.1465L46.0917 42.1222L46.0941 42.115C46.0942 42.1146 46.0954 42.1111 48.9422 43.0573L46.0954 42.1111L46.9421 39.5634L51.6897 44.3109C51.6838 44.3294 51.6777 44.3486 51.6714 44.3686C51.5929 44.6159 51.4794 44.9801 51.3424 45.4377C51.068 46.3543 50.7019 47.638 50.3365 49.1013C49.5885 52.0965 48.9095 55.589 48.9095 58.2208C48.9095 60.8525 49.5885 64.345 50.3365 67.3403C50.7019 68.8036 51.068 70.0872 51.3424 71.0039C51.4794 71.4614 51.5929 71.8257 51.6714 72.0729C51.7106 72.1965 51.741 72.2907 51.7611 72.3525L51.7834 72.4207L51.7884 72.4359L52.1571 73.5451Z" fill="#2BC466"/>
</svg>