<svg width="28" height="28" viewBox="0 0 28 28" fill="none" xmlns="http://www.w3.org/2000/svg">
<circle cx="14" cy="14" r="14" fill="#F2F2F9"/>
<path d="M20.3471 11.0204H20.5023L20.4445 10.8764C19.3517 8.15362 17.013 6.5 14.1005 6.5C12.1939 6.5 10.4179 7.18507 9.11806 8.4663C7.81757 9.7482 7 11.6208 7 13.984C7 16.3566 7.82689 18.2293 9.13196 19.5088C10.4363 20.7876 12.2122 21.4681 14.1005 21.4681C16.0894 21.4681 17.816 20.7645 19.0455 19.5049C20.2749 18.2452 21 16.4369 21 14.2397V13.3448V13.2399H20.8951H13.9726H13.8677V13.3448V15.5366V15.6415H13.9726H18.2509C18.0648 16.6945 17.5879 17.5282 16.8963 18.1044C16.1783 18.7029 15.2214 19.0299 14.1005 19.0299C11.5966 19.0299 9.76693 16.9727 9.76693 13.984C9.76693 10.9954 11.5966 8.93816 14.1005 8.93816C15.5999 8.93816 16.9851 9.74182 17.5864 10.9619L17.6151 11.0204H17.6804H20.3471Z" fill="#DDDDE8" stroke="#DDDDE8" stroke-width="0.20981"/>
</svg>
