<svg xmlns="http://www.w3.org/2000/svg" width="96" height="96" viewBox="0 0 96 96" fill="none">
  <circle cx="48" cy="48" r="48" fill="#F2F2F9"/>
  <path d="M69.7616 37.7841H70.2935L70.0955 37.2905C66.3487 27.9552 58.3304 22.2856 48.3445 22.2856C41.8078 22.2856 35.7184 24.6344 31.2619 29.0272C26.8031 33.4223 24 39.8427 24 47.9451C24 56.0798 26.835 62.5003 31.3096 66.8872C35.7814 71.2717 41.8704 73.6048 48.3445 73.6048C55.1635 73.6048 61.0835 71.1926 65.2989 66.874C69.514 62.555 72 56.3549 72 48.8219V45.7534V45.3938H71.6404H47.9061H47.5463V45.7534V53.2682V53.6278H47.9061H62.5745C61.9365 57.2383 60.3015 60.0965 57.9303 62.0722C55.4684 64.124 52.1875 65.2453 48.3445 65.2453C39.7597 65.2453 33.4866 58.192 33.4866 47.9451C33.4866 37.6984 39.7597 30.645 48.3445 30.645C53.4855 30.645 58.2347 33.4005 60.2961 37.5834L60.3948 37.7841H60.6186H69.7616Z" fill="#DDDDE8" stroke="#DDDDE8" stroke-width="0.71935"/>
</svg>