<svg width="100" height="34" viewBox="0 0 100 34" fill="none" xmlns="http://www.w3.org/2000/svg">
<g clip-path="url(#clip0_3511_63343)">
<path d="M92.2084 32.9701H92.3177L92.354 32.8669L99.4438 12.7054L99.516 12.5H99.2982H95.619H95.506L95.472 12.6079L92.3264 22.5869C92.1441 23.1652 91.3243 23.1611 91.1478 22.581L88.1129 12.6093L88.0796 12.5H87.9654H84.2862H84.0771L84.1388 12.6998L87.9927 25.1792C88.3808 26.4357 89.4992 27.315 90.7952 27.4093L88.4684 32.7542L88.3745 32.9701H88.6099H92.2084Z" fill="#232332" stroke="#232332" stroke-width="0.308483"/>
<path d="M82.5319 12.6542V12.4999H82.3777H79.5558V7.28315V7.12891H79.4014H75.8566H75.7024V7.28315V12.4999H72.9025H72.7483V12.6542V15.8768V16.031H72.9025H75.7024V27.2187V27.3729H75.8566H79.4014H79.5558V27.2187V16.031H82.3777H82.5319V15.8768V12.6542Z" fill="#232332" stroke="#232332" stroke-width="0.308483"/>
<path d="M66.543 12.5017H66.3886V12.6559V27.2204V27.3746H66.543H70.0878H70.242V27.2204V12.6559V12.5017H70.0878H66.543ZM66.1201 8.66789V8.78429C66.1201 9.99669 67.103 10.9795 68.3154 10.9795C69.5278 10.9795 70.5106 9.99669 70.5106 8.78429V8.66789C70.5106 7.4555 69.5278 6.47266 68.3154 6.47266C67.103 6.47266 66.1201 7.4555 66.1201 8.66789Z" fill="#232332" stroke="#232332" stroke-width="0.308483"/>
<path d="M45.5721 27.372H45.7264V27.2178V19.0716C45.7264 18.0455 45.9635 17.2165 46.3995 16.6479C46.8314 16.0845 47.4695 15.7615 48.3114 15.7615C49.2213 15.7615 49.8212 16.0913 50.2013 16.6507C50.5887 17.2209 50.7621 18.0502 50.7621 19.0716V27.2178V27.372H50.9163H54.3806H54.5348V27.2178V19.0716C54.5348 18.0429 54.7529 17.2134 55.1697 16.6452C55.5814 16.0838 56.1981 15.7615 57.0393 15.7615C57.9498 15.7615 58.5713 16.092 58.9715 16.6535C59.378 17.2241 59.5705 18.0529 59.5705 19.0716V27.2178V27.372H59.7248H63.2697H63.4239V27.2178V18.7763C63.4239 16.5833 62.7695 14.9441 61.7191 13.8522C60.6691 12.7605 59.2372 12.2305 57.7106 12.2305C55.8072 12.2305 54.1284 13.069 53.0446 14.4317C52.5524 13.7372 51.9898 13.2006 51.3308 12.8309C50.6164 12.4302 49.7975 12.2305 48.8484 12.2305C47.5766 12.2305 46.4231 12.9514 45.7264 13.6866V12.6533V12.499H45.5721H42.0273H41.873V12.6533V27.2178V27.372H42.0273H45.5721Z" fill="#232332" stroke="#232332" stroke-width="0.308483"/>
<path d="M35.0869 12.5016H34.9326V12.6559V27.2204V27.3746H35.0869H38.6317H38.786V27.2204V12.6559V12.5016H38.6317H35.0869ZM34.6641 8.66789V8.78427C34.6641 9.99666 35.6469 10.9795 36.8593 10.9795C38.0717 10.9795 39.0546 9.99666 39.0546 8.78427V8.66789C39.0546 7.4555 38.0717 6.47266 36.8593 6.47266C35.6469 6.47266 34.6641 7.4555 34.6641 8.66789Z" fill="#232332" stroke="#232332" stroke-width="0.308483"/>
<path d="M27.3017 27.3729H27.4559V27.2187V20.3617C27.4559 19.1975 27.6945 18.2071 28.4101 17.5042C29.1271 16.8 30.3542 16.3534 32.4042 16.3534H32.5584V16.1991V12.4394V12.2852H32.4042C29.7978 12.2852 28.1739 13.3359 27.4022 14.4446V12.6542V12.5H27.248H23.7567H23.6025V12.6542V27.2187V27.3729H23.7567H27.3017Z" fill="#232332" stroke="#232332" stroke-width="0.308483"/>
<path d="M20.5227 12.3338H20.7508L20.6658 12.1221C19.0591 8.11881 15.6206 5.6875 11.3383 5.6875C8.53506 5.6875 5.9237 6.69475 4.0126 8.57854C2.10051 10.4633 0.898438 13.2166 0.898438 16.6912C0.898438 20.1796 2.1142 22.933 4.03305 24.8143C5.95074 26.6945 8.56193 27.695 11.3383 27.695C14.2625 27.695 16.8012 26.6606 18.6089 24.8086C20.4165 22.9565 21.4826 20.2976 21.4826 17.0672V15.7513V15.5971H21.3284H11.1503H10.9959V15.7513V18.974V19.1282H11.1503H17.4406C17.167 20.6765 16.4658 21.9022 15.449 22.7494C14.3932 23.6293 12.9863 24.1102 11.3383 24.1102C7.65677 24.1102 4.96665 21.0854 4.96665 16.6912C4.96665 12.297 7.65677 9.27231 11.3383 9.27231C13.5429 9.27231 15.5795 10.4539 16.4635 12.2477L16.5058 12.3338H16.6018H20.5227Z" fill="#232332" stroke="#232332" stroke-width="0.308483"/>
</g>
<defs>
<clipPath id="clip0_3511_63343">
<rect width="100" height="28.4211" fill="white" transform="translate(0 4.78906)"/>
</clipPath>
</defs>
</svg>
