<svg xmlns="http://www.w3.org/2000/svg" width="100" height="30" viewBox="0 0 100 30" fill="none">
  <g clip-path="url(#clip0_142_2608)">
    <path d="M92.2082 28.9703H92.3174L92.3537 28.8671L99.4435 8.70565L99.5157 8.50024H99.298H95.6188H95.5057L95.4718 8.60812L92.3262 18.5871C92.1439 19.1655 91.3241 19.1614 91.1475 18.5812L88.1127 8.60958L88.0793 8.50024H87.9651H84.286H84.0769L84.1386 8.7L87.9925 21.1795C88.3806 22.436 89.4989 23.3152 90.7949 23.4096L88.4682 28.7544L88.3743 28.9703H88.6096H92.2082Z" fill="white" stroke="white" stroke-width="0.308483"/>
    <path d="M82.5319 8.65468V8.50044H82.3777H79.5558V3.28364V3.12939H79.4014H75.8566H75.7024V3.28364V8.50044H72.9025H72.7483V8.65468V11.8773V12.0315H72.9025H75.7024V23.2192V23.3734H75.8566H79.4014H79.5558V23.2192V12.0315H82.3777H82.5319V11.8773V8.65468Z" fill="white" stroke="white" stroke-width="0.308483"/>
    <path d="M66.5432 8.50045H66.3889V8.65469V23.2192V23.3734H66.5432H70.088H70.2423V23.2192V8.65469V8.50045H70.088H66.5432ZM66.1204 4.66667V4.78307C66.1204 5.99547 67.1032 6.97831 68.3156 6.97831C69.528 6.97831 70.5109 5.99547 70.5109 4.78307V4.66667C70.5109 3.45428 69.528 2.47144 68.3156 2.47144C67.1032 2.47144 66.1204 3.45428 66.1204 4.66667Z" fill="white" stroke="white" stroke-width="0.308483"/>
    <path d="M45.5721 23.3732H45.7264V23.219V15.0729C45.7264 14.0468 45.9635 13.2177 46.3995 12.6491C46.8314 12.0857 47.4695 11.7628 48.3114 11.7628C49.2213 11.7628 49.8212 12.0926 50.2013 12.6519C50.5887 13.2221 50.7621 14.0514 50.7621 15.0729V23.219V23.3732H50.9163H54.3806H54.5348V23.219V15.0729C54.5348 14.0441 54.7529 13.2147 55.1697 12.6464C55.5814 12.085 56.1981 11.7628 57.0393 11.7628C57.9498 11.7628 58.5713 12.0932 58.9715 12.6548C59.378 13.2253 59.5705 14.0541 59.5705 15.0729V23.219V23.3732H59.7248H63.2697H63.4239V23.219V14.7775C63.4239 12.5846 62.7695 10.9453 61.7191 9.85339C60.6691 8.76172 59.2372 8.23169 57.7106 8.23169C55.8072 8.23169 54.1284 9.07017 53.0446 10.4329C52.5524 9.73837 51.9898 9.20179 51.3308 8.83215C50.6164 8.4314 49.7975 8.23169 48.8484 8.23169C47.5766 8.23169 46.4231 8.95258 45.7264 9.68785V8.65449V8.50025H45.5721H42.0273H41.873V8.65449V23.219V23.3732H42.0273H45.5721Z" fill="white" stroke="white" stroke-width="0.308483"/>
    <path d="M35.0872 8.50042H34.9328V8.65467V23.2192V23.3734H35.0872H38.632H38.7862V23.2192V8.65467V8.50042H38.632H35.0872ZM34.6643 4.66667V4.78305C34.6643 5.99544 35.6472 6.97828 36.8596 6.97828C38.072 6.97828 39.0548 5.99544 39.0548 4.78305V4.66667C39.0548 3.45428 38.072 2.47144 36.8596 2.47144C35.6472 2.47144 34.6643 3.45428 34.6643 4.66667Z" fill="white" stroke="white" stroke-width="0.308483"/>
    <path d="M27.3017 23.3732H27.4559V23.219V16.3619C27.4559 15.1977 27.6945 14.2074 28.4101 13.5044C29.1271 12.8002 30.3542 12.3536 32.4042 12.3536H32.5584V12.1994V8.43964V8.2854H32.4042C29.7978 8.2854 28.1739 9.33617 27.4022 10.4449V8.65448V8.50024H27.248H23.7567H23.6025V8.65448V23.219V23.3732H23.7567H27.3017Z" fill="white" stroke="white" stroke-width="0.308483"/>
    <path d="M20.5227 8.33429H20.7508L20.6658 8.1226C19.0591 4.1193 15.6206 1.68799 11.3383 1.68799C8.53506 1.68799 5.9237 2.69524 4.0126 4.57903C2.10051 6.46381 0.898438 9.2171 0.898438 12.6917C0.898438 16.1801 2.1142 18.9335 4.03305 20.8148C5.95074 22.695 8.56193 23.6955 11.3383 23.6955C14.2625 23.6955 16.8012 22.6611 18.6089 20.8091C20.4165 18.957 21.4826 16.2981 21.4826 13.0677V11.7518V11.5976H21.3284H11.1503H10.9959V11.7518V14.9744V15.1286H11.1503H17.4406C17.167 16.677 16.4658 17.9026 15.449 18.7499C14.3932 19.6298 12.9863 20.1106 11.3383 20.1106C7.65677 20.1106 4.96665 17.0859 4.96665 12.6917C4.96665 8.29752 7.65677 5.2728 11.3383 5.2728C13.5429 5.2728 15.5795 6.45442 16.4635 8.24823L16.5058 8.33429H16.6018H20.5227Z" fill="white" stroke="white" stroke-width="0.308483"/>
  </g>
  <defs>
    <clipPath id="clip0_142_2608">
      <rect width="100" height="28.4211" fill="white" transform="translate(0 0.789551)"/>
    </clipPath>
  </defs>
</svg>