<svg xmlns="http://www.w3.org/2000/svg" width="100" height="29" viewBox="0 0 100 29" fill="none">
  <g clip-path="url(#clip0_70_4703)">
    <path d="M92.2079 28.4703H92.3172L92.3535 28.3671L99.4433 8.20565L99.5155 8.00024H99.2977H95.6186H95.5055L95.4715 8.10812L92.3259 18.0871C92.1436 18.6655 91.3238 18.6614 91.1473 18.0812L88.1124 8.10958L88.0791 8.00024H87.9649H84.2857H84.0767L84.1383 8.2L87.9922 20.6795C88.3803 21.936 89.4987 22.8152 90.7947 22.9096L88.4679 28.2544L88.374 28.4703H88.6094H92.2079Z" fill="#232332" stroke="#232332" stroke-width="0.308483"/>
    <path d="M82.5316 8.15456V8.00032H82.3774H79.5555V2.78351V2.62927H79.4012H75.8564H75.7021V2.78351V8.00032H72.9023H72.748V8.15456V11.3772V11.5314H72.9023H75.7021V22.7191V22.8733H75.8564H79.4012H79.5555V22.7191V11.5314H82.3774H82.5316V11.3772V8.15456Z" fill="#232332" stroke="#232332" stroke-width="0.308483"/>
    <path d="M66.5434 8.00026H66.3891V8.1545V22.719V22.8732H66.5434H70.0883H70.2425V22.719V8.1545V8.00026H70.0883H66.5434ZM66.1206 4.16648V4.28288C66.1206 5.49528 67.1035 6.47813 68.3159 6.47813C69.5283 6.47813 70.5111 5.49528 70.5111 4.28288V4.16648C70.5111 2.95409 69.5283 1.97125 68.3159 1.97125C67.1035 1.97125 66.1206 2.95409 66.1206 4.16648Z" fill="#232332" stroke="#232332" stroke-width="0.308483"/>
    <path d="M45.5721 22.8732H45.7264V22.719V14.5729C45.7264 13.5468 45.9635 12.7177 46.3995 12.1491C46.8314 11.5857 47.4695 11.2628 48.3114 11.2628C49.2213 11.2628 49.8212 11.5926 50.2013 12.1519C50.5887 12.7221 50.7621 13.5514 50.7621 14.5729V22.719V22.8732H50.9163H54.3806H54.5348V22.719V14.5729C54.5348 13.5441 54.7529 12.7147 55.1697 12.1464C55.5814 11.585 56.1981 11.2628 57.0393 11.2628C57.9498 11.2628 58.5713 11.5932 58.9715 12.1548C59.378 12.7253 59.5705 13.5541 59.5705 14.5729V22.719V22.8732H59.7248H63.2697H63.4239V22.719V14.2775C63.4239 12.0846 62.7695 10.4453 61.7191 9.35339C60.6691 8.26172 59.2372 7.73169 57.7106 7.73169C55.8072 7.73169 54.1284 8.57017 53.0446 9.93293C52.5524 9.23837 51.9898 8.70179 51.3308 8.33215C50.6164 7.9314 49.7975 7.73169 48.8484 7.73169C47.5766 7.73169 46.4231 8.45258 45.7264 9.18785V8.15449V8.00025H45.5721H42.0273H41.873V8.15449V22.719V22.8732H42.0273H45.5721Z" fill="#232332" stroke="#232332" stroke-width="0.308483"/>
    <path d="M35.0874 8.00024H34.9331V8.15448V22.719V22.8732H35.0874H38.6322H38.7864V22.719V8.15448V8.00024H38.6322H35.0874ZM34.6646 4.16648V4.28286C34.6646 5.49525 35.6474 6.47809 36.8598 6.47809C38.0722 6.47809 39.0551 5.49525 39.0551 4.28286V4.16648C39.0551 2.95409 38.0722 1.97125 36.8598 1.97125C35.6474 1.97125 34.6646 2.95409 34.6646 4.16648Z" fill="#232332" stroke="#232332" stroke-width="0.308483"/>
    <path d="M27.3017 22.8732H27.4559V22.719V15.8619C27.4559 14.6977 27.6945 13.7074 28.4101 13.0044C29.1271 12.3002 30.3542 11.8536 32.4042 11.8536H32.5584V11.6994V7.93964V7.7854H32.4042C29.7978 7.7854 28.1739 8.83617 27.4022 9.94486V8.15448V8.00024H27.248H23.7567H23.6025V8.15448V22.719V22.8732H23.7567H27.3017Z" fill="#232332" stroke="#232332" stroke-width="0.308483"/>
    <path d="M20.5227 7.83429H20.7508L20.6658 7.6226C19.0591 3.6193 15.6206 1.18799 11.3383 1.18799C8.53506 1.18799 5.9237 2.19524 4.0126 4.07903C2.10051 5.96381 0.898438 8.7171 0.898438 12.1917C0.898438 15.6801 2.1142 18.4335 4.03305 20.3148C5.95074 22.195 8.56193 23.1955 11.3383 23.1955C14.2625 23.1955 16.8012 22.1611 18.6089 20.3091C20.4165 18.457 21.4826 15.7981 21.4826 12.5677V11.2518V11.0976H21.3284H11.1503H10.9959V11.2518V14.4744V14.6286H11.1503H17.4406C17.167 16.177 16.4658 17.4026 15.449 18.2499C14.3932 19.1298 12.9863 19.6106 11.3383 19.6106C7.65677 19.6106 4.96665 16.5859 4.96665 12.1917C4.96665 7.79752 7.65677 4.7728 11.3383 4.7728C13.5429 4.7728 15.5795 5.95442 16.4635 7.74823L16.5058 7.83429H16.6018H20.5227Z" fill="#232332" stroke="#232332" stroke-width="0.308483"/>
  </g>
  <defs>
    <clipPath id="clip0_70_4703">
      <rect width="100" height="28.4211" fill="white" transform="translate(0 0.28949)"/>
    </clipPath>
  </defs>
</svg>