<svg width="640" height="178" viewBox="0 0 640 178" fill="none" xmlns="http://www.w3.org/2000/svg">
<g clip-path="url(#clip0_518_13286)">
<rect width="640" height="177.778" fill="#F8F8FC"/>
</g>
<g clip-path="url(#clip1_518_13286)">
<path d="M362.207 102.181H362.317L362.353 102.078L369.443 81.9162L369.515 81.7108H369.297H365.618H365.505L365.471 81.8187L362.325 91.7977C362.143 92.376 361.323 92.3719 361.147 91.7918L358.112 81.8201L358.079 81.7108H357.964H354.285H354.076L354.138 81.9105L357.992 94.39C358.38 95.6465 359.498 96.5258 360.794 96.6201L358.467 101.965L358.374 102.181H358.609H362.207Z" fill="#CACCD8" stroke="#CACCD8" stroke-width="0.308483"/>
<path d="M352.532 81.8651V81.7109H352.377H349.556V76.4941V76.3398H349.401H345.856H345.702V76.4941V81.7109H342.902H342.748V81.8651V85.0877V85.2419H342.902H345.702V96.4296V96.5838H345.856H349.401H349.556V96.4296V85.2419H352.377H352.532V85.0877V81.8651Z" fill="#CACCD8" stroke="#CACCD8" stroke-width="0.308483"/>
<path d="M336.544 81.7108H336.39V81.865V96.4295V96.5837H336.544H340.089H340.243V96.4295V81.865V81.7108H340.089H336.544ZM336.121 77.877V77.9934C336.121 79.2058 337.104 80.1887 338.316 80.1887C339.529 80.1887 340.512 79.2058 340.512 77.9934V77.877C340.512 76.6646 339.529 75.6818 338.316 75.6818C337.104 75.6818 336.121 76.6646 336.121 77.877Z" fill="#CACCD8" stroke="#CACCD8" stroke-width="0.308483"/>
<path d="M315.572 96.5837H315.726V96.4295V88.2834C315.726 87.2573 315.963 86.4283 316.399 85.8596C316.831 85.2963 317.469 84.9733 318.311 84.9733C319.221 84.9733 319.821 85.3031 320.201 85.8625C320.589 86.4327 320.762 87.2619 320.762 88.2834V96.4295V96.5837H320.916H324.381H324.535V96.4295V88.2834C324.535 87.2547 324.753 86.4252 325.17 85.857C325.581 85.2955 326.198 84.9733 327.039 84.9733C327.95 84.9733 328.571 85.3037 328.971 85.8653C329.378 86.4358 329.571 87.2647 329.571 88.2834V96.4295V96.5837H329.725H333.27H333.424V96.4295V87.988C333.424 85.7951 332.769 84.1559 331.719 83.0639C330.669 81.9723 329.237 81.4422 327.711 81.4422C325.807 81.4422 324.128 82.2807 323.045 83.6435C322.552 82.9489 321.99 82.4123 321.331 82.0427C320.616 81.6419 319.797 81.4422 318.848 81.4422C317.577 81.4422 316.423 82.1631 315.726 82.8984V81.865V81.7108H315.572H312.027H311.873V81.865V96.4295V96.5837H312.027H315.572Z" fill="#CACCD8" stroke="#CACCD8" stroke-width="0.308483"/>
<path d="M305.087 81.7108H304.933V81.865V96.4295V96.5837H305.087H308.632H308.786V96.4295V81.865V81.7108H308.632H305.087ZM304.664 77.877V77.9934C304.664 79.2058 305.647 80.1886 306.859 80.1886C308.072 80.1886 309.055 79.2058 309.055 77.9934V77.877C309.055 76.6646 308.072 75.6818 306.859 75.6818C305.647 75.6818 304.664 76.6646 304.664 77.877Z" fill="#CACCD8" stroke="#CACCD8" stroke-width="0.308483"/>
<path d="M297.301 96.5837H297.455V96.4295V89.5725C297.455 88.4082 297.694 87.4179 298.409 86.715C299.126 86.0108 300.353 85.5641 302.403 85.5641H302.557V85.4099V81.6502V81.4959H302.403C299.797 81.4959 298.173 82.5467 297.401 83.6554V81.865V81.7108H297.247H293.756H293.602V81.865V96.4295V96.5837H293.756H297.301Z" fill="#CACCD8" stroke="#CACCD8" stroke-width="0.308483"/>
<path d="M290.523 81.5448H290.751L290.666 81.3331C289.059 77.3298 285.621 74.8985 281.338 74.8985C278.535 74.8985 275.924 75.9057 274.013 77.7895C272.101 79.6743 270.898 82.4276 270.898 85.9022C270.898 89.3906 272.114 92.144 274.033 94.0252C275.951 95.9054 278.562 96.906 281.338 96.906C284.262 96.906 286.801 95.8715 288.609 94.0195C290.416 92.1674 291.483 89.5086 291.483 86.2782V84.9623V84.8081H291.328H281.15H280.996V84.9623V88.1849V88.3391H281.15H287.441C287.167 89.8874 286.466 91.1131 285.449 91.9604C284.393 92.8403 282.986 93.3211 281.338 93.3211C277.657 93.3211 274.967 90.2964 274.967 85.9022C274.967 81.508 277.657 78.4833 281.338 78.4833C283.543 78.4833 285.58 79.6649 286.464 81.4587L286.506 81.5448H286.602H290.523Z" fill="#CACCD8" stroke="#CACCD8" stroke-width="0.308483"/>
</g>
<defs>
<clipPath id="clip0_518_13286">
<rect width="640" height="177.778" fill="white"/>
</clipPath>
<clipPath id="clip1_518_13286">
<rect width="100" height="28.4211" fill="white" transform="translate(270 74)"/>
</clipPath>
</defs>
</svg>
