<svg width="240" height="240" viewBox="0 0 240 240" fill="none" xmlns="http://www.w3.org/2000/svg">
<rect x="0.5" y="0.5" width="239" height="239" rx="11.5" fill="#F5F7FA"/>
<rect x="0.5" y="0.5" width="239" height="239" rx="11.5" stroke="#EAEAF2"/>
<path fill-rule="evenodd" clip-rule="evenodd" d="M120.002 127.556C132.275 127.556 142.224 117.607 142.224 105.334C142.224 93.0606 132.275 83.1113 120.002 83.1113C107.729 83.1113 97.7793 93.0606 97.7793 105.334C97.7793 117.607 107.729 127.556 120.002 127.556ZM121.668 98.6669C121.668 97.7464 120.922 97.0002 120.002 97.0002C119.081 97.0002 118.335 97.7464 118.335 98.6669L118.335 103.667H113.335C112.414 103.667 111.668 104.413 111.668 105.334C111.668 106.254 112.414 107 113.335 107H118.335V112C118.335 112.921 119.081 113.667 120.002 113.667C120.922 113.667 121.668 112.921 121.668 112L121.668 107H126.668C127.589 107 128.335 106.254 128.335 105.334C128.335 104.413 127.589 103.667 126.668 103.667H121.668V98.6669Z" fill="#CACCD8"/>
<path d="M91.7471 153.102H93.251V160.115C93.251 162.029 92.0479 163.137 90.2295 163.137C88.5479 163.137 87.29 162.193 87.29 160.512H88.7803C88.7939 161.346 89.4092 161.852 90.2705 161.852C91.2139 161.852 91.7471 161.25 91.7471 160.115V153.102ZM95.2607 163V153.102H98.7881C101.085 153.102 102.22 154.482 102.22 156.314C102.22 158.133 101.085 159.527 98.7881 159.527H96.7646V163H95.2607ZM96.7646 158.242H98.6377C100.101 158.242 100.702 157.422 100.702 156.314C100.702 155.193 100.101 154.387 98.6377 154.387H96.7646V158.242ZM110.491 156.232C110.122 155.057 109.233 154.346 107.921 154.346C106.253 154.346 104.968 155.658 104.968 158.051C104.968 160.443 106.239 161.756 107.989 161.756C109.568 161.756 110.614 160.758 110.642 159.172H108.208V157.928H112.104V159.049C112.104 161.551 110.382 163.137 107.976 163.137C105.296 163.137 103.478 161.182 103.478 158.051C103.478 154.893 105.351 152.965 107.907 152.965C110.054 152.965 111.694 154.305 112.036 156.232H110.491ZM120.909 152.637L117.724 164.49H116.425L119.61 152.637H120.909ZM125.53 163V153.102H129.058C131.354 153.102 132.489 154.482 132.489 156.314C132.489 158.133 131.354 159.527 129.058 159.527H127.034V163H125.53ZM127.034 158.242H128.907C130.37 158.242 130.972 157.422 130.972 156.314C130.972 155.193 130.37 154.387 128.907 154.387H127.034V158.242ZM142.06 153.102V163H140.679L135.661 155.768H135.579V163H134.075V153.102H135.47L140.487 160.348H140.583V153.102H142.06ZM150.769 156.232C150.399 155.057 149.511 154.346 148.198 154.346C146.53 154.346 145.245 155.658 145.245 158.051C145.245 160.443 146.517 161.756 148.267 161.756C149.846 161.756 150.892 160.758 150.919 159.172H148.485V157.928H152.382V159.049C152.382 161.551 150.659 163.137 148.253 163.137C145.573 163.137 143.755 161.182 143.755 158.051C143.755 154.893 145.628 152.965 148.185 152.965C150.331 152.965 151.972 154.305 152.313 156.232H150.769ZM74.3018 173.102V183H72.7842V174.605H72.7295L70.3643 176.15V174.715L72.8252 173.102H74.3018ZM80.6729 174.168C80.6729 175.727 81.7529 177.148 83.6123 177.736L82.9971 178.748C81.6025 178.304 80.584 177.381 80.0439 176.219C79.5107 177.559 78.4375 178.618 76.9678 179.131L76.2979 178.092C78.2119 177.463 79.3604 175.877 79.374 174.182V173.84H76.6807V172.787H83.3115V173.84H80.6729V174.168ZM86.0186 171.912V174.947H87.7959V176.014H86.0186V179.268H84.7197V171.912H86.0186ZM82.0674 179.568C84.5967 179.568 86.1279 180.402 86.1279 181.838C86.1279 183.287 84.5967 184.148 82.0674 184.135C79.5107 184.148 77.9521 183.287 77.9521 181.838C77.9521 180.402 79.5107 179.568 82.0674 179.568ZM82.0674 180.594C80.29 180.594 79.2373 181.045 79.251 181.838C79.2373 182.658 80.29 183.109 82.0674 183.109C83.8311 183.109 84.8564 182.658 84.8564 181.838C84.8564 181.045 83.8311 180.594 82.0674 180.594ZM101.55 171.912V175.016H103.313V176.082H101.55V179.145H100.237V171.912H101.55ZM97.585 179.377C100.087 179.377 101.646 180.252 101.646 181.756C101.646 183.26 100.087 184.148 97.585 184.135C95.0557 184.148 93.4697 183.26 93.4697 181.756C93.4697 180.252 95.0557 179.377 97.585 179.377ZM97.585 180.43C95.8076 180.416 94.7412 180.908 94.7549 181.756C94.7412 182.604 95.8076 183.096 97.585 183.096C99.3213 183.096 100.388 182.604 100.401 181.756C100.388 180.908 99.3213 180.416 97.585 180.43ZM97.8994 172.814V173.867H93.7158V177.203C96.1289 177.196 97.4893 177.121 99.0342 176.807L99.1572 177.859C97.5166 178.201 96.0537 178.256 93.4014 178.256H92.4307V172.814H97.8994ZM111.612 173.102V183H110.095V174.605H110.04L107.675 176.15V174.715L110.136 173.102H111.612ZM117.573 183.137C115.276 183.137 113.937 181.291 113.937 178.051C113.937 174.838 115.304 172.965 117.573 172.965C119.843 172.965 121.21 174.838 121.21 178.051C121.21 181.291 119.856 183.137 117.573 183.137ZM117.573 181.838C118.913 181.838 119.706 180.525 119.706 178.051C119.706 175.59 118.899 174.236 117.573 174.236C116.247 174.236 115.44 175.59 115.44 178.051C115.44 180.525 116.233 181.838 117.573 181.838ZM122.905 173.102H124.737L127.868 180.771H127.991L131.122 173.102H132.954V183H131.519V175.85H131.423L128.524 182.986H127.335L124.423 175.836H124.341V183H122.905V173.102ZM134.978 183V173.102H138.601C140.706 173.102 141.731 174.236 141.731 175.699C141.731 176.93 140.979 177.559 140.063 177.791V177.887C141.048 177.941 142.114 178.803 142.114 180.334C142.114 181.852 141.075 183 138.765 183H134.978ZM138.628 181.715C140.05 181.715 140.624 181.086 140.624 180.266C140.624 179.322 139.872 178.557 138.683 178.557H136.481V181.715H138.628ZM138.478 177.381C139.476 177.381 140.255 176.766 140.255 175.822C140.255 175.002 139.694 174.387 138.505 174.387H136.481V177.381H138.478ZM156.729 171.912V184.189H155.431V171.912H156.729ZM150.181 172.828C151.999 172.828 153.339 174.496 153.339 177.121C153.339 179.76 151.999 181.428 150.181 181.428C148.335 181.428 147.009 179.76 147.009 177.121C147.009 174.496 148.335 172.828 150.181 172.828ZM150.181 173.99C149.046 173.99 148.267 175.193 148.267 177.121C148.267 179.062 149.046 180.266 150.181 180.266C151.302 180.266 152.081 179.062 152.081 177.121C152.081 175.193 151.302 173.99 150.181 173.99ZM169.171 171.912V184.162H167.927V177.887H166.354V183.533H165.138V172.158H166.354V176.82H167.927V171.912H169.171ZM160.558 173.361V179.896C161.692 179.89 162.93 179.801 164.317 179.527L164.454 180.662C162.772 180.963 161.364 181.045 160.052 181.045H159.259V173.361H160.558ZM40.0127 198.42V200.539C41.1338 200.478 42.2686 200.382 43.335 200.225L43.4307 201.182C40.6553 201.688 37.6885 201.715 35.501 201.715L35.3369 200.648C36.3213 200.642 37.4834 200.635 38.7139 200.594V198.42H40.0127ZM42.7607 193.471V194.523H40.0127C40.0811 195.959 41.2432 197.203 43.0752 197.695L42.4736 198.707C41.0107 198.29 39.917 197.401 39.3701 196.232C38.8301 197.463 37.7568 198.393 36.2803 198.816L35.665 197.832C37.4902 197.312 38.6387 196.027 38.7002 194.523H35.9932V193.471H38.7139V192.008H40.0127V193.471H42.7607ZM45.3994 191.912V204.189H44.1006V191.912H45.3994ZM57.8818 191.912V204.162H56.6377V197.832H55.0518V203.533H53.8623V192.158H55.0518V196.766H56.6377V191.912H57.8818ZM52.3721 193.389V194.441H49.0771V200.115C50.5811 200.102 51.7158 200.033 53.0283 199.787L53.124 200.854C51.6475 201.154 50.3896 201.209 48.5986 201.223H47.7783V193.389H52.3721ZM67.0693 193.102V203H65.5518V194.605H65.4971L63.1318 196.15V194.715L65.5928 193.102H67.0693ZM73.0303 203.137C70.7334 203.137 69.3936 201.291 69.3936 198.051C69.3936 194.838 70.7607 192.965 73.0303 192.965C75.2998 192.965 76.667 194.838 76.667 198.051C76.667 201.291 75.3135 203.137 73.0303 203.137ZM73.0303 201.838C74.3701 201.838 75.1631 200.525 75.1631 198.051C75.1631 195.59 74.3564 194.236 73.0303 194.236C71.7041 194.236 70.8975 195.59 70.8975 198.051C70.8975 200.525 71.6904 201.838 73.0303 201.838ZM82.0811 194.168C82.0811 195.727 83.1611 197.148 85.0205 197.736L84.4053 198.748C83.0107 198.304 81.9922 197.381 81.4521 196.219C80.9189 197.559 79.8457 198.618 78.376 199.131L77.7061 198.092C79.6201 197.463 80.7686 195.877 80.7822 194.182V193.84H78.0889V192.787H84.7197V193.84H82.0811V194.168ZM87.4268 191.912V194.947H89.2041V196.014H87.4268V199.268H86.1279V191.912H87.4268ZM83.4756 199.568C86.0049 199.568 87.5361 200.402 87.5361 201.838C87.5361 203.287 86.0049 204.148 83.4756 204.135C80.9189 204.148 79.3604 203.287 79.3604 201.838C79.3604 200.402 80.9189 199.568 83.4756 199.568ZM83.4756 200.594C81.6982 200.594 80.6455 201.045 80.6592 201.838C80.6455 202.658 81.6982 203.109 83.4756 203.109C85.2393 203.109 86.2646 202.658 86.2646 201.838C86.2646 201.045 85.2393 200.594 83.4756 200.594ZM99.6357 191.912V196.889H101.413V197.955H99.6357V204.162H98.3369V191.912H99.6357ZM93.5928 193.225C93.5928 196.287 93.0322 199.076 90.8174 201.441L89.792 200.717C91.583 198.857 92.2324 196.745 92.3623 194.291H90.2295V193.225H93.5928ZM96.9697 193.225C96.9697 196.328 96.5869 199.582 94.3311 202.248L93.292 201.537C95.1104 199.411 95.6572 196.909 95.7529 194.291H93.9893V193.225H96.9697ZM106.513 195.521C106.513 197.572 107.853 199.691 109.739 200.498L109.028 201.51C107.586 200.874 106.438 199.527 105.87 197.887C105.303 199.637 104.147 201.127 102.726 201.824L101.974 200.799C103.819 199.938 105.187 197.627 105.2 195.521V194.223H102.397V193.143H109.302V194.223H106.513V195.521ZM112.146 191.912V204.162H110.847V191.912H112.146ZM120.909 192.473C122.522 192.459 123.767 193.396 124.04 194.77H126.433V191.912H127.731V198.488H126.433V195.836H124.054C123.787 197.244 122.536 198.188 120.909 198.188C119.036 198.188 117.696 197.012 117.696 195.316C117.696 193.648 119.036 192.459 120.909 192.473ZM120.909 193.553C119.747 193.553 118.94 194.264 118.94 195.316C118.94 196.369 119.747 197.094 120.909 197.094C122.044 197.094 122.851 196.369 122.851 195.316C122.851 194.264 122.044 193.553 120.909 193.553ZM121.032 199.076V200.498H126.433V199.076H127.731V204.012H119.747V199.076H121.032ZM121.032 202.945H126.433V201.523H121.032V202.945ZM140.829 201.605V202.699H129.618V201.605H134.554V199.459H130.985V195.562H138.177V193.84H130.958V192.773H139.462V196.602H132.271V198.393H139.749V199.459H135.839V201.605H140.829ZM151.644 197.723V198.789H143.112V193.006H151.534V194.072H144.397V197.723H151.644ZM152.929 201.469V202.549H141.718V201.469H152.929ZM166.778 191.912V196.793H168.679V197.873H166.778V204.148H165.479V191.912H166.778ZM163.579 193.197C163.565 196.738 162.007 199.896 157.974 201.893L157.249 200.881C160.318 199.35 161.986 197.135 162.253 194.277H157.864V193.197H163.579ZM179.233 195.221V196.273H170.825V192.131H172.11V195.221H179.233ZM180.519 197.572V198.639H169.335V197.572H180.519ZM174.913 199.637C177.552 199.637 179.138 200.443 179.138 201.865C179.138 203.301 177.552 204.107 174.913 204.107C172.261 204.107 170.661 203.301 170.661 201.865C170.661 200.443 172.261 199.637 174.913 199.637ZM174.913 200.648C173.04 200.662 171.974 201.072 171.974 201.865C171.974 202.645 173.04 203.109 174.913 203.109C176.759 203.109 177.839 202.645 177.839 201.865C177.839 201.072 176.759 200.662 174.913 200.648ZM187.491 193.936V194.988H181.407V193.936H183.813V192.268H185.099V193.936H187.491ZM184.456 195.727C186.015 195.727 187.108 196.889 187.122 198.543C187.108 200.211 186.015 201.387 184.456 201.387C182.925 201.387 181.79 200.211 181.804 198.543C181.79 196.889 182.925 195.727 184.456 195.727ZM184.456 196.807C183.567 196.807 182.952 197.531 182.952 198.543C182.952 199.582 183.567 200.279 184.456 200.279C185.331 200.279 185.974 199.582 185.974 198.543C185.974 197.531 185.331 196.807 184.456 196.807ZM191.921 191.912V204.162H190.69V198.078H189.282V203.588H188.052V192.186H189.282V197.012H190.69V191.912H191.921ZM204.745 201.551V202.631H193.534V201.551H196.214V198.352C195.209 197.798 194.601 196.916 194.601 195.822C194.601 193.895 196.487 192.623 199.112 192.623C201.751 192.623 203.638 193.895 203.638 195.822C203.638 196.902 203.05 197.771 202.065 198.324V201.551H204.745ZM199.112 193.662C197.185 193.662 195.858 194.496 195.858 195.822C195.858 197.135 197.185 197.996 199.112 197.996C201.026 197.996 202.38 197.135 202.38 195.822C202.38 194.496 201.026 193.662 199.112 193.662ZM197.499 201.551H200.753V198.816C200.254 198.946 199.7 199.008 199.112 199.008C198.538 199.008 197.991 198.946 197.499 198.83V201.551Z" fill="#ADAFBB"/>
</svg>
